{
.appVersion = "983";
DisplayStrings = (
"/Germandbls \U00DF\U00DF",
"b/curve banduogqa/acutecomb/tildecomb_acutecomb/secondtonechinese \U00B4/acutedotaccentcomb \U00E1/abreve/abreveacute/abrevedotbelow/abrevegrave/abrevehookabove/brevecomb_tildecomb/abrevetilde/acaron \U00E2/acircumflexacute/acircumflexdotbelow/acircumflexgrave/acircumflexhookabove/circumflexcomb_tildecomb/acircumflextilde/adblgrave \U00E4/adotbelow \U00E0/ahookabove/ainvertedbreve/amacron/aogonek \U00E5/aringacute \U00E3",
"hmn/eng p\U00FEru/uogonek/curve a",
"/curve aaapbdqnmu"
);
classes = (
{
automatic = 1;

glyphs = (
{
color = 1;
glyphname = A;
layers = (
{
anchors = (
{
name = bottom;
position = "{300, 0}";
},
{
name = ogonek;
position = "{540, 0}";
},
{
name = top;
position = "{414, 692}";
},
{
name = topleft;
position = "{347, 692}";
}
);
background = {
anchors = (
{
name = bottom;
position = "{300, 0}";
},
{
name = ogonek;
position = "{541, 0}";
},
{
name = top;
position = "{414, 692}";
},
{
name = topleft;
position = "{347, 692}";
}
);
paths = (
{
closed = 1;
nodes = (
"423 693 LINE",
"404 691 LINE",
"60 22 LINE",
"69 29 LINE",
"-28 15 LINE",
"-31 0 LINE",
"189 0 LINE",
"192 15 LINE",
"77 29 LINE",
"80 22 LINE",
"178 213 LINE",
"168 206 LINE",
"494 206 LINE",
"487 213 LINE",
"520 22 LINE",
"525 29 LINE",
"405 15 LINE",
"402 0 LINE",
"627 0 LINE",
"629 15 LINE",
"534 29 LINE",
"541 22 LINE"
);
},
{
closed = 1;
nodes = (
"412 672 LINE",
"408 672 LINE",
"486 219 LINE",
"491 225 LINE",
"177 225 LINE",
"181 219 LINE"
);
}
);
};
guideLines = (
{
angle = 90;
position = "{1217, -200}";
},
{
angle = 90;
position = "{1196, -200}";
}
);
layerId = "075BA79B-D813-4287-A9DD-CCAF2D535ED3";
paths = (
{
closed = 1;
nodes = (
"423 693 LINE",
"403 691 LINE",
"60 22 LINE",
"69 29 LINE",
"-24 15 LINE",
"-27 0 LINE",
"189 0 LINE",
"192 15 LINE",
"77 29 LINE",
"81 22 LINE",
"178 213 LINE",
"168 206 LINE",
"494 206 LINE",
"487 213 LINE",
"520 22 LINE",
"525 29 LINE",
"405 15 LINE",
"402 0 LINE",
"622 0 LINE",
"624 15 LINE",
"534 29 LINE",
"541 22 LINE"
);
},
{
closed = 1;
nodes = (
"412 672 LINE",
"408 672 LINE",
"486 219 LINE",
"491 225 LINE",
"177 225 LINE",
"181 219 LINE"
);
}
);
width = 677;
},
{
anchors = (
{
name = bottom;
position = "{282, 0}";
},
{
name = ogonek;
position = "{572, 0}";
},
{
name = top;
position = "{418, 710}";
},
{
name = topleft;
position = "{263, 710}";
}
);
background = {
paths = (
{
closed = 1;
nodes = (
"517 716 LINE",
"351 702 LINE",
"421 102 LINE",
"622 139 LINE"
);
}
);
};
layerId = "927AED37-E9E6-4F96-A08E-421C3785EFC6";
paths = (
{
closed = 1;
nodes = (
"517 713 LINE",
"312 708 LINE",
"-3 94 LINE",
"51 133 LINE",
"-29 100 LINE",
"-45 0 LINE",
"222 0 LINE",
"238 100 LINE",
"186 127 LINE",
"187 105 LINE",
"231 203 LINE",
"205 185 LINE",
"420 185 LINE",
"409 205 LINE",
"421 104 LINE",
"429 131 LINE",
"371 100 LINE",
"355 0 LINE",
"641 0 LINE",
"657 100 LINE",
"590 135 LINE",
"631 89 LINE"
);
},
{
closed = 1;
nodes = (
"412 604 LINE",
"363 605 LINE",
"400 286 LINE",
"413 315 LINE",
"264 315 LINE",
"271 291 LINE"
);
}
);
width = 683;
},
{
anchors = (
{
name = bottom;
position = "{314, 0}";
},
{
name = ogonek;
position = "{599, 10}";
},
{
name = top;
position = "{425, 700}";
}
);
layerId = "89F00A14-383C-41A8-AF30-A12CE933D7AF";
paths = (
{
closed = 1;
nodes = (
"229 0 LINE",
"239 60 LINE",
"155 79 LINE",
"210 190 LINE",
"465 190 LINE",
"485 80 LINE",
"399 60 LINE",
"390 0 LINE",
"655 0 LINE",
"665 60 LINE",
"597 77 LINE",
"477 700 LINE",
"378 695 LINE",
"58 80 LINE",
"-27 60 LINE",
"-36 0 LINE"
);
},
{
closed = 1;
nodes = (
"400 571 LINE",
"451 270 LINE",
"249 270 LINE"
);
}
);
width = 712;
}
);
leftKerningGroup = A;
rightKerningGroup = A;
unicode = 0041;
},
{
color = 1;
glyphname = Aogonek;
layers = (
{
background = {
components = (
{
name = A;
},
{
name = ogonekcomb.case.alt;
transform = "{1, 0, 0, 1, 348, 0}";
}
);
};
components = (
{
name = A;
},
{
name = ogonekcomb.case.alt;
transform = "{1, 0, 0, 1, 381, 0}";
}
);
layerId = "075BA79B-D813-4287-A9DD-CCAF2D535ED3";
width = 677;
},
{
background = {
components = (
{
name = A;
},
{
alignment = 1;
name = ogonekcomb.case.alt;
transform = "{1, 0, 0, 1, 387, 0}";
}
);
};
components = (
{
name = A;
},
{
alignment = 1;
name = ogonekcomb.case.alt;
transform = "{1, 0, 0, 1, 385, 0}";
}
);
layerId = "927AED37-E9E6-4F96-A08E-421C3785EFC6";
width = 683;
},
{
background = {
components = (
{
name = A;
}
);
paths = (
{
closed = 1;
nodes = (
"574 -220 OFFCURVE",
"616 -200 OFFCURVE",
"616 -200 CURVE",
"614 -153 LINE",
"614 -153 OFFCURVE",
"588 -160 OFFCURVE",
"568 -160 CURVE SMOOTH",
"546 -160 OFFCURVE",
"530 -147 OFFCURVE",
"530 -124 CURVE SMOOTH",
"530 -67 OFFCURVE",
"655 0 OFFCURVE",
"655 0 CURVE SMOOTH",
"577 0 LINE SMOOTH",
"577 0 OFFCURVE",
"450 -55 OFFCURVE",
"450 -145 CURVE SMOOTH",
"450 -193 OFFCURVE",
"487 -220 OFFCURVE",
"535 -220 CURVE SMOOTH"
);
}
);
};
components = (
{
name = A;
}
);
layerId = "89F00A14-383C-41A8-AF30-A12CE933D7AF";
paths = (
{
closed = 1;
nodes = (
"574 -220 OFFCURVE",
"616 -200 OFFCURVE",
"616 -200 CURVE",
"614 -153 LINE",
"614 -153 OFFCURVE",
"588 -160 OFFCURVE",
"568 -160 CURVE SMOOTH",
"546 -160 OFFCURVE",
"530 -147 OFFCURVE",
"530 -124 CURVE SMOOTH",
"530 -67 OFFCURVE",
"655 0 OFFCURVE",
"655 0 CURVE SMOOTH",
"577 0 LINE SMOOTH",
"577 0 OFFCURVE",
"450 -55 OFFCURVE",
"450 -145 CURVE SMOOTH",
"450 -193 OFFCURVE",
"487 -220 OFFCURVE",
"535 -220 CURVE SMOOTH"
);
}
);
width = 712;
}
);
leftKerningGroup = A;
rightKerningGroup = A;
unicode = 0104;
},
{
color = 1;
glyphname = AE;
layers = (
{
anchors = (
{
name = bottom;
position = "{424, 0}";
},
{
name = top;
position = "{648, 692}";
}
);
background = {
anchors = (
{
name = bottom;
position = "{424, 0}";
},
{
name = top;
position = "{648, 692}";
}
);
paths = (
{
closed = 1;
nodes = (
"193 0 LINE",
"195 15 LINE",
"81 29 LINE",
"84 22 LINE",
"227 232 LINE",
"216 226 LINE",
"477 226 LINE",
"471 233 LINE",
"438 21 LINE",
"446 29 LINE",
"341 15 LINE",
"339 0 LINE",
"799 0 LINE",
"822 141 LINE",
"807 141 LINE",
"772 12 LINE",
"781 19 LINE",
"450 19 LINE",
"456 12 LINE",
"512 366 LINE",
"504 359 LINE",
"778 359 LINE",
"781 378 LINE",
"507 378 LINE",
"513 371 LINE",
"561 680 LINE",
"554 673 LINE",
"872 673 LINE",
"866 680 LINE",
"861 556 LINE",
"875 556 LINE",
"896 692 LINE",
"564 692 LINE",
"416 687 LINE",
"413 672 LINE",
"507 664 LINE",
"504 671 LINE",
"63 22 LINE",
"73 29 LINE",
"-25 15 LINE",
"-27 0 LINE"
);
},
{
closed = 1;
nodes = (
"531 679 LINE",
"520 673 LINE",
"548 673 LINE",
"542 680 LINE",
"472 238 LINE",
"480 245 LINE",
"229 245 LINE",
"231 239 LINE"
);
}
);
};
layerId = "075BA79B-D813-4287-A9DD-CCAF2D535ED3";
paths = (
{
closed = 1;
nodes = (
"193 0 LINE",
"195 15 LINE",
"81 29 LINE",
"84 22 LINE",
"227 232 LINE",
"216 226 LINE",
"477 226 LINE",
"471 233 LINE",
"438 21 LINE",
"446 29 LINE",
"341 15 LINE",
"339 0 LINE",
"802 0 LINE",
"825 141 LINE",
"810 141 LINE",
"776 12 LINE",
"784 19 LINE",
"450 19 LINE",
"456 12 LINE",
"512 366 LINE",
"504 359 LINE",
"781 359 LINE",
"784 378 LINE",
"507 378 LINE",
"513 371 LINE",
"561 680 LINE",
"553 673 LINE",
"875 673 LINE",
"869 680 LINE",
"864 556 LINE",
"878 556 LINE",
"899 692 LINE",
"564 692 LINE",
"416 687 LINE",
"413 672 LINE",
"507 664 LINE",
"504 671 LINE",
"63 22 LINE",
"74 29 LINE",
"-25 15 LINE",
"-27 0 LINE"
);
},
{
closed = 1;
nodes = (
"531 679 LINE",
"520 673 LINE",
"548 673 LINE",
"542 680 LINE",
"472 238 LINE",
"480 245 LINE",
"229 245 LINE",
"232 239 LINE"
);
}
);
width = 936;
},
{
anchors = (
{
name = bottom;
position = "{409, 0}";
},
{
name = top;
position = "{575, 710}";
}
);
background = {
anchors = (
{
name = bottom;
position = "{409, 0}";
},
{
name = top;
position = "{575, 710}";
}
);
paths = (
{
closed = 1;
nodes = (
"223 0 LINE",
"238 100 LINE",
"176 133 LINE",
"181 91 LINE",
"251 221 LINE",
"206 195 LINE",
"426 195 LINE",
"481 710 LINE",
"228 705 LINE",
"213 605 LINE",
"299 568 LINE",
"282 598 LINE",
"-4 92 LINE",
"54 133 LINE",
"-30 100 LINE",
"-45 0 LINE"
);
},
{
closed = 1;
nodes = (
"448 583 LINE",
"409 565 LINE",
"485 565 LINE",
"459 584 LINE",
"449 325 LINE",
"280 325 LINE",
"299 305 LINE"
);
},
{
closed = 1;
nodes = (
"708 115 LINE",
"750 145 LINE",
"561 145 LINE",
"580 105 LINE",
"615 325 LINE",
"581 295 LINE",
"783 295 LINE",
"805 430 LINE",
"606 430 LINE",
"627 400 LINE",
"658 595 LINE",
"624 565 LINE",
"802 565 LINE",
"773 591 LINE",
"783 508 LINE",
"897 508 LINE",
"929 710 LINE",
"673 710 LINE",
"423 705 LINE",
"407 605 LINE",
"481 571 LINE",
"462 600 LINE",
"383 106 LINE",
"407 131 LINE",
"327 100 LINE",
"311 0 LINE",
"826 0 LINE",
"861 211 LINE",
"745 211 LINE"
);
}
);
};
layerId = "927AED37-E9E6-4F96-A08E-421C3785EFC6";
paths = (
{
closed = 1;
nodes = (
"223 0 LINE",
"239 100 LINE",
"176 133 LINE",
"179 91 LINE",
"250 221 LINE",
"207 195 LINE",
"428 195 LINE",
"401 221 LINE",
"382 104 LINE",
"412 136 LINE",
"336 100 LINE",
"320 0 LINE",
"824 0 LINE",
"858 211 LINE",
"742 211 LINE",
"703 111 LINE",
"735 145 LINE",
"560 145 LINE",
"580 106 LINE",
"615 325 LINE",
"580 295 LINE",
"780 295 LINE",
"802 430 LINE",
"606 430 LINE",
"627 400 LINE",
"658 595 LINE",
"623 565 LINE",
"798 565 LINE",
"770 593 LINE",
"780 508 LINE",
"894 508 LINE",
"926 710 LINE",
"481 710 LINE",
"228 705 LINE",
"212 605 LINE",
"300 568 LINE",
"285 598 LINE",
"-4 92 LINE",
"53 133 LINE",
"-29 100 LINE",
"-45 0 LINE"
);
},
{
closed = 1;
nodes = (
"448 583 LINE",
"409 565 LINE",
"486 565 LINE",
"460 584 LINE",
"415 305 LINE",
"448 325 LINE",
"278 325 LINE",
"296 305 LINE"
);
}
);
width = 899;
},
{
layerId = "89F00A14-383C-41A8-AF30-A12CE933D7AF";
paths = (
{
closed = 1;
nodes = (
"223 0 LINE",
"233 60 LINE",
"158 77 LINE",
"241 205 LINE",
"458 205 LINE",
"438 80 LINE",
"350 60 LINE",
"340 0 LINE",
"837 0 LINE",
"868 182 LINE",
"802 182 LINE",
"765 80 LINE",
"538 80 LINE",
"577 325 LINE",
"805 325 LINE",
"817 405 LINE",
"589 405 LINE",
"624 620 LINE",
"845 620 LINE",
"855 530 LINE",
"911 530 LINE",
"938 700 LINE",
"536 700 LINE",
"345 695 LINE",
"336 640 LINE",
"415 620 LINE",
"58 80 LINE",
"-27 60 LINE",
"-37 0 LINE"
);
},
{
closed = 1;
nodes = (
"507 620 LINE",
"524 620 LINE",
"470 285 LINE",
"292 285 LINE"
);
}
);
width = 936;
}
);
leftKerningGroup = AE;
leftMetricsKey = A;
rightKerningGroup = E;
rightMetricsKey = E;
unicode = 00C6;
},
{
color = 1;
glyphname = B;
layers = (
{
anchors = (
{
name = bottom;
position = "{266, 0}";
},
{
name = top;
position = "{375, 691}";
}
);
background = {
anchors = (
{
name = bottom;
position = "{266, 0}";
},
{
name = top;
position = "{375, 691}";
}
);
paths = (
{
closed = 1;
nodes = (
"489 377 OFFCURVE",
"540 441 OFFCURVE",
"553 524 CURVE SMOOTH",
"569 621 OFFCURVE",
"521 692 OFFCURVE",
"383 692 CURVE SMOOTH",
"255 692 LINE",
"138 687 LINE",
"136 672 LINE",
"237 663 LINE",
"232 671 LINE",
"129 21 LINE",
"137 29 LINE",
"32 15 LINE",
"30 0 LINE",
"269 0 LINE SMOOTH",
"436 0 OFFCURVE",
"509 82 OFFCURVE",
"525 182 CURVE SMOOTH",
"540 275 OFFCURVE",
"497 354 OFFCURVE",
"371 358 CURVE",
"368 354 LINE"
);
},
{
closed = 1;
nodes = (
"503 673 OFFCURVE",
"546 613 OFFCURVE",
"532 524 CURVE SMOOTH",
"518 433 OFFCURVE",
"450 364 OFFCURVE",
"300 364 CURVE SMOOTH",
"196 364 LINE",
"201 355 LINE",
"252 678 LINE",
"244 673 LINE",
"377 673 LINE SMOOTH"
);
},
{
closed = 1;
nodes = (
"141 19 LINE",
"147 15 LINE",
"201 355 LINE",
"193 345 LINE",
"351 345 LINE SMOOTH",
"476 345 OFFCURVE",
"518 272 OFFCURVE",
"504 182 CURVE SMOOTH",
"490 92 OFFCURVE",
"423 19 OFFCURVE",
"271 19 CURVE SMOOTH"
);
}
);
};
guideLines = (
{
angle = 90;
position = "{406, 425}";
}
);
layerId = "075BA79B-D813-4287-A9DD-CCAF2D535ED3";
paths = (
{
closed = 1;
nodes = (
"482 375 OFFCURVE",
"556 447 OFFCURVE",
"556 552 CURVE SMOOTH",
"556 640 OFFCURVE",
"504 692 OFFCURVE",
"383 692 CURVE SMOOTH",
"255 692 LINE",
"138 687 LINE",
"136 672 LINE",
"237 663 LINE",
"231 671 LINE",
"128 21 LINE",
"137 29 LINE",
"32 15 LINE",
"30 0 LINE",
"276 0 LINE SMOOTH",
"432 0 OFFCURVE",
"528 87 OFFCURVE",
"528 211 CURVE SMOOTH",
"528 302 OFFCURVE",
"477 354 OFFCURVE",
"371 358 CURVE",
"368 354 LINE"
);
},
{
closed = 1;
nodes = (
"492 673 OFFCURVE",
"535 626 OFFCURVE",
"535 549 CURVE SMOOTH",
"535 435 OFFCURVE",
"442 364 OFFCURVE",
"300 364 CURVE SMOOTH",
"196 364 LINE",
"201 355 LINE",
"252 678 LINE",
"244 673 LINE",
"377 673 LINE SMOOTH"
);
},
{
closed = 1;
nodes = (
"141 19 LINE",
"147 15 LINE",
"201 355 LINE",
"193 345 LINE",
"351 345 LINE SMOOTH",
"461 345 OFFCURVE",
"507 291 OFFCURVE",
"507 210 CURVE SMOOTH",
"507 100 OFFCURVE",
"423 19 OFFCURVE",
"278 19 CURVE SMOOTH"
);
}
);
width = 634;
},
{
anchors = (
{
name = bottom;
position = "{274, 0}";
},
{
name = top;
position = "{387, 710}";
}
);
background = {
paths = (
{
closed = 1;
nodes = (
"408 710 LINE",
"95 705 LINE",
"79 605 LINE",
"153 571 LINE",
"134 600 LINE",
"55 105 LINE",
"79 131 LINE",
"-1 100 LINE",
"-17 0 LINE",
"295 0 LINE",
"311 100 LINE",
"242 132 LINE",
"252 105 LINE",
"331 600 LINE",
"309 572 LINE",
"392 610 LINE"
);
}
);
};
guideLines = (
{
angle = -99;
position = "{277, 231}";
}
);
layerId = "927AED37-E9E6-4F96-A08E-421C3785EFC6";
paths = (
{
closed = 1;
nodes = (
"524 363 OFFCURVE",
"625 420 OFFCURVE",
"625 566 CURVE SMOOTH",
"625 671 OFFCURVE",
"534 711 OFFCURVE",
"411 711 CURVE SMOOTH",
"339 711 LINE",
"95 705 LINE",
"79 605 LINE",
"153 571 LINE",
"134 600 LINE",
"55 105 LINE",
"79 131 LINE",
"-1 100 LINE",
"-17 0 LINE",
"293 0 LINE SMOOTH",
"472 0 OFFCURVE",
"596 73 OFFCURVE",
"596 238 CURVE SMOOTH",
"596 334 OFFCURVE",
"511 375 OFFCURVE",
"379 370 CURVE",
"372 355 LINE"
);
},
{
closed = 1;
nodes = (
"408 568 OFFCURVE",
"427 553 OFFCURVE",
"427 516 CURVE SMOOTH",
"427 445 OFFCURVE",
"386 428 OFFCURVE",
"318 428 CURVE SMOOTH",
"277 428 LINE",
"300 403 LINE",
"331 600 LINE",
"295 568 LINE",
"367 568 LINE SMOOTH"
);
},
{
closed = 1;
nodes = (
"232 143 LINE",
"252 105 LINE",
"289 336 LINE",
"253 308 LINE",
"344 308 LINE SMOOTH",
"383 308 OFFCURVE",
"397 285 OFFCURVE",
"397 247 CURVE SMOOTH",
"397 175 OFFCURVE",
"360 143 OFFCURVE",
"287 143 CURVE SMOOTH"
);
}
);
width = 624;
},
{
layerId = "89F00A14-383C-41A8-AF30-A12CE933D7AF";
paths = (
{
closed = 1;
nodes = (
"300 0 LINE SMOOTH",
"453 0 OFFCURVE",
"570 79 OFFCURVE",
"570 228 CURVE SMOOTH",
"570 306 OFFCURVE",
"513 346 OFFCURVE",
"438 363 CURVE",
"508 379 OFFCURVE",
"594 434 OFFCURVE",
"594 547 CURVE SMOOTH",
"594 652 OFFCURVE",
"504 700 OFFCURVE",
"399 700 CURVE SMOOTH",
"295 700 LINE",
"110 695 LINE",
"101 640 LINE",
"182 620 LINE",
"97 80 LINE",
"8 60 LINE",
"-2 0 LINE"
);
},
{
closed = 1;
nodes = (
"235 325 LINE",
"310 325 LINE SMOOTH",
"409 325 OFFCURVE",
"463 300 OFFCURVE",
"463 218 CURVE SMOOTH",
"463 145 OFFCURVE",
"404 80 OFFCURVE",
"290 80 CURVE SMOOTH",
"197 80 LINE"
);
},
{
closed = 1;
nodes = (
"282 620 LINE",
"389 620 LINE",
"446 620 OFFCURVE",
"488 591 OFFCURVE",
"488 537 CURVE SMOOTH",
"488 427 OFFCURVE",
"384 400 OFFCURVE",
"320 400 CURVE SMOOTH",
"247 400 LINE"
);
}
);
width = 629;
},
{
anchors = (
{
name = bottom;
position = "{274, 0}";
},
{
name = top;
position = "{387, 710}";
}
);
associatedMasterId = "927AED37-E9E6-4F96-A08E-421C3785EFC6";
background = {
paths = (
{
closed = 1;
nodes = (
"520 362 OFFCURVE",
"600 406 OFFCURVE",
"621 519 CURVE SMOOTH",
"648 664 OFFCURVE",
"551 711 OFFCURVE",
"412 711 CURVE SMOOTH",
"340 711 LINE",
"94 705 LINE",
"78 605 LINE",
"160 569 LINE",
"137 610 LINE",
"55 95 LINE",
"86 134 LINE",
"-2 100 LINE",
"-17 0 LINE",
"292 0 LINE SMOOTH",
"473 0 OFFCURVE",
"571 66 OFFCURVE",
"593 192 CURVE SMOOTH",
"617 328 OFFCURVE",
"528 379 OFFCURVE",
"380 373 CURVE",
"373 354 LINE"
);
},
{
closed = 1;
nodes = (
"416 566 OFFCURVE",
"433 546 OFFCURVE",
"426 502 CURVE SMOOTH",
"416 440 OFFCURVE",
"377 433 OFFCURVE",
"319 433 CURVE SMOOTH",
"278 433 LINE",
"304 403 LINE",
"335 596 LINE",
"296 566 LINE",
"368 566 LINE SMOOTH"
);
},
{
closed = 1;
nodes = (
"233 145 LINE",
"258 113 LINE",
"293 334 LINE",
"254 303 LINE",
"345 303 LINE SMOOTH",
"391 303 OFFCURVE",
"403 271 OFFCURVE",
"397 228 CURVE SMOOTH",
"388 164 OFFCURVE",
"350 145 OFFCURVE",
"288 145 CURVE SMOOTH"
);
}
);
};
guideLines = (
{
angle = -99;
position = "{77, 231}";
},
{
angle = -99;
position = "{277, 231}";
}
);
layerId = "129A7785-7554-4D5E-BACA-9472471CEBC2";
name = "Jun 28 17, 17:31";
paths = (
{
closed = 1;
nodes = (
"525 363 OFFCURVE",
"626 420 OFFCURVE",
"626 568 CURVE SMOOTH",
"626 671 OFFCURVE",
"535 711 OFFCURVE",
"412 711 CURVE SMOOTH",
"340 711 LINE",
"94 705 LINE",
"78 605 LINE",
"160 569 LINE",
"137 610 LINE",
"55 95 LINE",
"86 134 LINE",
"-2 100 LINE",
"-17 0 LINE",
"294 0 LINE SMOOTH",
"473 0 OFFCURVE",
"597 73 OFFCURVE",
"597 238 CURVE SMOOTH",
"597 334 OFFCURVE",
"512 378 OFFCURVE",
"380 373 CURVE",
"373 355 LINE"
);
},
{
closed = 1;
nodes = (
"409 566 OFFCURVE",
"428 551 OFFCURVE",
"428 519 CURVE SMOOTH",
"428 450 OFFCURVE",
"387 433 OFFCURVE",
"319 433 CURVE SMOOTH",
"278 433 LINE",
"304 403 LINE",
"335 596 LINE",
"296 566 LINE",
"368 566 LINE SMOOTH"
);
},
{
closed = 1;
nodes = (
"233 145 LINE",
"258 113 LINE",
"293 334 LINE",
"254 303 LINE",
"345 303 LINE SMOOTH",
"384 303 OFFCURVE",
"398 280 OFFCURVE",
"398 247 CURVE SMOOTH",
"398 175 OFFCURVE",
"361 145 OFFCURVE",
"288 145 CURVE SMOOTH"
);
}
);
width = 622;
},
{
anchors = (
{
name = bottom;
position = "{265, 0}";
},
{
name = top;
position = "{374, 691}";
}
);
associatedMasterId = "075BA79B-D813-4287-A9DD-CCAF2D535ED3";
background = {
anchors = (
{
name = bottom;
position = "{265, 0}";
},
{
name = top;
position = "{374, 691}";
}
);
paths = (
{
closed = 1;
nodes = (
"488 377 OFFCURVE",
"539 442 OFFCURVE",
"552 525 CURVE SMOOTH",
"568 622 OFFCURVE",
"520 692 OFFCURVE",
"383 692 CURVE SMOOTH",
"254 692 LINE",
"137 687 LINE",
"135 672 LINE",
"236 662 LINE",
"231 670 LINE",
"128 21 LINE",
"136 29 LINE",
"31 15 LINE",
"29 0 LINE",
"268 0 LINE SMOOTH",
"435 0 OFFCURVE",
"508 83 OFFCURVE",
"524 183 CURVE SMOOTH",
"539 276 OFFCURVE",
"497 354 OFFCURVE",
"370 358 CURVE",
"367 354 LINE"
);
},
{
closed = 1;
nodes = (
"501 673 OFFCURVE",
"545 612 OFFCURVE",
"531 523 CURVE SMOOTH",
"517 432 OFFCURVE",
"449 364 OFFCURVE",
"299 364 CURVE SMOOTH",
"195 364 LINE",
"200 357 LINE",
"252 680 LINE",
"244 673 LINE",
"375 673 LINE SMOOTH"
);
},
{
closed = 1;
nodes = (
"140 19 LINE",
"146 12 LINE",
"200 352 LINE",
"192 345 LINE",
"349 345 LINE SMOOTH",
"475 345 OFFCURVE",
"517 271 OFFCURVE",
"503 181 CURVE SMOOTH",
"488 91 OFFCURVE",
"422 19 OFFCURVE",
"271 19 CURVE SMOOTH"
);
}
);
};
guideLines = (
{
angle = 90;
position = "{405, 425}";
}
);
layerId = "8DAF7985-2BE6-432C-AD75-D2E587CF8DED";
name = "Jul 3 17, 15:15";
paths = (
{
closed = 1;
nodes = (
"488 377 OFFCURVE",
"539 441 OFFCURVE",
"552 524 CURVE SMOOTH",
"568 621 OFFCURVE",
"520 692 OFFCURVE",
"382 692 CURVE SMOOTH",
"254 692 LINE",
"137 687 LINE",
"135 672 LINE",
"236 662 LINE",
"231 670 LINE",
"128 21 LINE",
"136 29 LINE",
"31 15 LINE",
"29 0 LINE",
"268 0 LINE SMOOTH",
"435 0 OFFCURVE",
"508 82 OFFCURVE",
"524 182 CURVE SMOOTH",
"539 275 OFFCURVE",
"496 354 OFFCURVE",
"370 358 CURVE",
"367 354 LINE"
);
},
{
closed = 1;
nodes = (
"502 673 OFFCURVE",
"545 613 OFFCURVE",
"531 524 CURVE SMOOTH",
"517 433 OFFCURVE",
"449 364 OFFCURVE",
"299 364 CURVE SMOOTH",
"195 364 LINE",
"201 357 LINE",
"251 680 LINE",
"243 673 LINE",
"376 673 LINE SMOOTH"
);
},
{
closed = 1;
nodes = (
"140 19 LINE",
"146 12 LINE",
"199 352 LINE",
"192 345 LINE",
"350 345 LINE SMOOTH",
"475 345 OFFCURVE",
"517 272 OFFCURVE",
"503 182 CURVE SMOOTH",
"489 92 OFFCURVE",
"422 19 OFFCURVE",
"270 19 CURVE SMOOTH"
);
}
);
width = 633;
}
);
leftKerningGroup = H;
rightKerningGroup = B;
unicode = 0042;
},
{
color = 1;
glyphname = C;
layers = (
{
anchors = (
{
name = bottom;
position = "{326, 0}";
},
{
name = top;
position = "{459, 692}";
}
);
background = {
paths = (
{
closed = 1;
nodes = (
"389 -6 OFFCURVE",
"476 26 OFFCURVE",
"566 93 CURVE",
"555 109 LINE",
"471 45 OFFCURVE",
"390 14 OFFCURVE",
"318 14 CURVE SMOOTH",
"204 14 OFFCURVE",
"114 101 OFFCURVE",
"114 262 CURVE SMOOTH",
"114 470 OFFCURVE",
"243 678 OFFCURVE",
"435 678 CURVE SMOOTH",
"493 678 OFFCURVE",
"561 661 OFFCURVE",
"618 637 CURVE",
"614 646 LINE",
"604 516 LINE",
"619 516 LINE",
"644 650 LINE",
"575 683 OFFCURVE",
"504 698 OFFCURVE",
"443 698 CURVE SMOOTH",
"231 698 OFFCURVE",
"93 487 OFFCURVE",
"93 256 CURVE SMOOTH",
"93 90 OFFCURVE",
"191 -6 OFFCURVE",
"314 -6 CURVE SMOOTH"
);
}
);
};
layerId = "075BA79B-D813-4287-A9DD-CCAF2D535ED3";
paths = (
{
closed = 1;
nodes = (
"186 -6 OFFCURVE",
"313 -6 CURVE SMOOTH",
"390 -6 OFFCURVE",
"478 26 OFFCURVE",
"566 93 CURVE",
"555 109 LINE",
"472 45 OFFCURVE",
"389 14 OFFCURVE",
"317 14 CURVE SMOOTH",
"200 14 OFFCURVE",
"114 97 OFFCURVE",
"114 265 CURVE SMOOTH",
"114 469 OFFCURVE",
"241 678 OFFCURVE",
"440 678 CURVE SMOOTH",
"495 678 OFFCURVE",
"564 662 OFFCURVE",
"620 638 CURVE",
"614 646 LINE",
"604 516 LINE",
"619 516 LINE",
"644 650 LINE",
"575 683 OFFCURVE",
"503 698 OFFCURVE",
"446 698 CURVE SMOOTH",
"231 698 OFFCURVE",
"93 485 OFFCURVE",
"93 263 CURVE SMOOTH",
"93 81 OFFCURVE"
);
}
);
width = 658;
},
{
anchors = (
{
name = bottom;
position = "{303, 0}";
},
{
name = top;
position = "{420, 710}";
}
);
background = {
paths = (
{
closed = 1;
nodes = (
"363 -15 OFFCURVE",
"461 10 OFFCURVE",
"564 82 CURVE",
"501 205 LINE",
"438 168 OFFCURVE",
"383 147 OFFCURVE",
"336 147 CURVE SMOOTH",
"267 147 OFFCURVE",
"230 193 OFFCURVE",
"230 286 CURVE SMOOTH",
"230 428 OFFCURVE",
"281 570 OFFCURVE",
"410 570 CURVE SMOOTH",
"435 570 OFFCURVE",
"466 565 OFFCURVE",
"503 551 CURVE",
"470 579 LINE",
"484 472 LINE",
"599 472 LINE",
"639 669 LINE",
"557 705 OFFCURVE",
"486 725 OFFCURVE",
"409 725 CURVE SMOOTH",
"165 725 OFFCURVE",
"21 529 OFFCURVE",
"21 280 CURVE SMOOTH",
"21 91 OFFCURVE",
"129 -15 OFFCURVE",
"286 -15 CURVE SMOOTH"
);
}
);
};
layerId = "927AED37-E9E6-4F96-A08E-421C3785EFC6";
paths = (
{
closed = 1;
nodes = (
"142 -15 OFFCURVE",
"291 -15 CURVE SMOOTH",
"375 -15 OFFCURVE",
"470 17 OFFCURVE",
"564 82 CURVE",
"501 205 LINE",
"438 168 OFFCURVE",
"382 147 OFFCURVE",
"338 147 CURVE SMOOTH",
"276 147 OFFCURVE",
"238 189 OFFCURVE",
"238 286 CURVE SMOOTH",
"238 428 OFFCURVE",
"289 570 OFFCURVE",
"410 570 CURVE SMOOTH",
"435 570 OFFCURVE",
"466 565 OFFCURVE",
"503 551 CURVE",
"470 579 LINE",
"484 472 LINE",
"599 472 LINE",
"639 669 LINE",
"557 705 OFFCURVE",
"486 725 OFFCURVE",
"409 725 CURVE SMOOTH",
"173 725 OFFCURVE",
"29 529 OFFCURVE",
"29 280 CURVE SMOOTH",
"29 85 OFFCURVE"
);
}
);
width = 606;
},
{
layerId = "89F00A14-383C-41A8-AF30-A12CE933D7AF";
paths = (
{
closed = 1;
nodes = (
"443 -10 OFFCURVE",
"550 68 OFFCURVE",
"586 97 CURVE",
"550 156 LINE",
"516 131 OFFCURVE",
"431 80 OFFCURVE",
"328 80 CURVE SMOOTH",
"233 80 OFFCURVE",
"170 153 OFFCURVE",
"170 263 CURVE SMOOTH",
"170 448 OFFCURVE",
"272 625 OFFCURVE",
"432 625 CURVE SMOOTH",
"497 625 OFFCURVE",
"549 607 OFFCURVE",
"566 600 CURVE",
"578 490 LINE",
"636 490 LINE",
"663 660 LINE",
"663 660 OFFCURVE",
"562 710 OFFCURVE",
"452 710 CURVE SMOOTH",
"227 710 OFFCURVE",
"60 518 OFFCURVE",
"60 244 CURVE SMOOTH",
"60 89 OFFCURVE",
"153 -10 OFFCURVE",
"308 -10 CURVE SMOOTH"
);
}
);
width = 638;
},
{
anchors = (
{
name = bottom;
position = "{284, 0}";
},
{
name = top;
position = "{403, 710}";
}
);
associatedMasterId = "927AED37-E9E6-4F96-A08E-421C3785EFC6";
background = {
anchors = (
{
name = bottom;
position = "{284, 0}";
},
{
name = top;
position = "{403, 710}";
}
);
paths = (
{
closed = 1;
nodes = (
"361 -15 OFFCURVE",
"461 14 OFFCURVE",
"564 86 CURVE",
"509 202 LINE",
"444 165 OFFCURVE",
"391 147 OFFCURVE",
"348 147 CURVE SMOOTH",
"259 147 OFFCURVE",
"220 225 OFFCURVE",
"244 376 CURVE SMOOTH",
"263 501 OFFCURVE",
"311 570 OFFCURVE",
"404 570 CURVE SMOOTH",
"434 570 OFFCURVE",
"464 563 OFFCURVE",
"501 549 CURVE",
"473 579 LINE",
"486 472 LINE",
"602 472 LINE",
"645 671 LINE",
"563 707 OFFCURVE",
"494 725 OFFCURVE",
"421 725 CURVE SMOOTH",
"225 725 OFFCURVE",
"67 597 OFFCURVE",
"30 358 CURVE SMOOTH",
"-8 120 OFFCURVE",
"104 -15 OFFCURVE",
"280 -15 CURVE SMOOTH"
);
}
);
};
layerId = "AF4718EB-36BF-4063-8E61-6C037834A009";
name = "Jun 27 17, 18:22";
paths = (
{
closed = 1;
nodes = (
"366 -15 OFFCURVE",
"464 10 OFFCURVE",
"567 82 CURVE",
"504 205 LINE",
"441 168 OFFCURVE",
"386 147 OFFCURVE",
"339 147 CURVE SMOOTH",
"255 147 OFFCURVE",
"219 219 OFFCURVE",
"242 363 CURVE SMOOTH",
"262 495 OFFCURVE",
"315 570 OFFCURVE",
"413 570 CURVE SMOOTH",
"438 570 OFFCURVE",
"469 565 OFFCURVE",
"506 551 CURVE",
"473 579 LINE",
"487 472 LINE",
"602 472 LINE",
"642 669 LINE",
"560 705 OFFCURVE",
"489 725 OFFCURVE",
"412 725 CURVE SMOOTH",
"220 725 OFFCURVE",
"68 603 OFFCURVE",
"32 371 CURVE SMOOTH",
"-7 126 OFFCURVE",
"108 -15 OFFCURVE",
"289 -15 CURVE SMOOTH"
);
}
);
width = 604;
},
{
anchors = (
{
name = bottom;
position = "{325, 0}";
},
{
name = top;
position = "{435, 692}";
}
);
associatedMasterId = "075BA79B-D813-4287-A9DD-CCAF2D535ED3";
background = {
paths = (
{
closed = 1;
nodes = (
"396 -6 OFFCURVE",
"485 26 OFFCURVE",
"575 93 CURVE",
"564 109 LINE",
"480 45 OFFCURVE",
"399 15 OFFCURVE",
"327 15 CURVE SMOOTH",
"185 15 OFFCURVE",
"88 136 OFFCURVE",
"120 344 CURVE SMOOTH",
"153 550 OFFCURVE",
"285 678 OFFCURVE",
"444 678 CURVE SMOOTH",
"502 678 OFFCURVE",
"570 661 OFFCURVE",
"627 637 CURVE",
"623 646 LINE",
"613 516 LINE",
"628 516 LINE",
"653 650 LINE",
"584 683 OFFCURVE",
"515 698 OFFCURVE",
"454 698 CURVE SMOOTH",
"277 698 OFFCURVE",
"135 567 OFFCURVE",
"99 344 CURVE SMOOTH",
"64 123 OFFCURVE",
"166 -6 OFFCURVE",
"321 -6 CURVE SMOOTH"
);
}
);
};
layerId = "E9A76839-7688-4F9E-A98B-4B18546F1EA0";
name = "Jul 3 17, 17:54";
paths = (
{
closed = 1;
nodes = (
"396 -6 OFFCURVE",
"485 26 OFFCURVE",
"575 93 CURVE",
"564 109 LINE",
"480 45 OFFCURVE",
"399 15 OFFCURVE",
"327 15 CURVE SMOOTH",
"203 15 OFFCURVE",
"114 107 OFFCURVE",
"114 268 CURVE SMOOTH",
"114 476 OFFCURVE",
"242 678 OFFCURVE",
"444 678 CURVE SMOOTH",
"502 678 OFFCURVE",
"570 661 OFFCURVE",
"627 637 CURVE",
"623 646 LINE",
"613 516 LINE",
"628 516 LINE",
"653 650 LINE",
"584 683 OFFCURVE",
"515 698 OFFCURVE",
"454 698 CURVE SMOOTH",
"232 698 OFFCURVE",
"92 492 OFFCURVE",
"92 261 CURVE SMOOTH",
"92 91 OFFCURVE",
"187 -6 OFFCURVE",
"321 -6 CURVE SMOOTH"
);
}
);
width = 669;
},
{
anchors = (
{
name = bottom;
position = "{315, 0}";
},
{
name = top;
position = "{425, 692}";
}
);
associatedMasterId = "075BA79B-D813-4287-A9DD-CCAF2D535ED3";
background = {
paths = (
{
closed = 1;
nodes = (
"533 -6 OFFCURVE",
"674 213 OFFCURVE",
"674 436 CURVE SMOOTH",
"674 613 OFFCURVE",
"567 698 OFFCURVE",
"437 698 CURVE SMOOTH",
"226 698 OFFCURVE",
"82 487 OFFCURVE",
"82 257 CURVE SMOOTH",
"82 77 OFFCURVE",
"190 -6 OFFCURVE",
"317 -6 CURVE SMOOTH"
);
},
{
closed = 1;
nodes = (
"199 14 OFFCURVE",
"103 96 OFFCURVE",
"103 261 CURVE SMOOTH",
"103 473 OFFCURVE",
"237 678 OFFCURVE",
"435 678 CURVE SMOOTH",
"555 678 OFFCURVE",
"653 596 OFFCURVE",
"653 431 CURVE SMOOTH",
"653 219 OFFCURVE",
"517 14 OFFCURVE",
"319 14 CURVE SMOOTH"
);
}
);
};
layerId = "C8446BC9-D6DF-488F-A056-C09AB75F1B39";
name = "Jul 4 17, 11:56";
paths = (
{
closed = 1;
nodes = (
"388 -6 OFFCURVE",
"475 26 OFFCURVE",
"565 93 CURVE",
"554 109 LINE",
"470 45 OFFCURVE",
"389 14 OFFCURVE",
"317 14 CURVE SMOOTH",
"203 14 OFFCURVE",
"113 101 OFFCURVE",
"113 262 CURVE SMOOTH",
"113 470 OFFCURVE",
"242 678 OFFCURVE",
"434 678 CURVE SMOOTH",
"492 678 OFFCURVE",
"560 661 OFFCURVE",
"617 637 CURVE",
"613 646 LINE",
"603 516 LINE",
"618 516 LINE",
"643 650 LINE",
"574 683 OFFCURVE",
"503 698 OFFCURVE",
"442 698 CURVE SMOOTH",
"230 698 OFFCURVE",
"92 487 OFFCURVE",
"92 256 CURVE SMOOTH",
"92 90 OFFCURVE",
"190 -6 OFFCURVE",
"313 -6 CURVE SMOOTH"
);
}
);
width = 659;
}
);
leftKerningGroup = O;
rightKerningGroup = C;
unicode = 0043;
},
{
color = 1;
glyphname = D;
layers = (
{
anchors = (
{
name = bottom;
position = "{314, 0}";
},
{
name = center;
position = "{381, 345}";
},
{
name = top;
position = "{393, 691}";
}
);
background = {
paths = (
{
closed = 1;
nodes = (
"512 0 OFFCURVE",
"653 213 OFFCURVE",
"653 436 CURVE SMOOTH",
"653 613 OFFCURVE",
"546 692 OFFCURVE",
"416 692 CURVE SMOOTH",
"205 692 OFFCURVE",
"61 487 OFFCURVE",
"61 257 CURVE SMOOTH",
"61 77 OFFCURVE",
"169 0 OFFCURVE",
"296 0 CURVE SMOOTH"
);
},
{
closed = 1;
nodes = (
"178 20 OFFCURVE",
"82 96 OFFCURVE",
"82 261 CURVE SMOOTH",
"82 473 OFFCURVE",
"216 672 OFFCURVE",
"414 672 CURVE SMOOTH",
"534 672 OFFCURVE",
"632 596 OFFCURVE",
"632 431 CURVE SMOOTH",
"632 219 OFFCURVE",
"496 20 OFFCURVE",
"298 20 CURVE SMOOTH"
);
}
);
};
layerId = "075BA79B-D813-4287-A9DD-CCAF2D535ED3";
paths = (
{
closed = 1;
nodes = (
"282 692 LINE",
"137 687 LINE",
"135 672 LINE",
"236 663 LINE",
"231 671 LINE",
"128 21 LINE",
"136 29 LINE",
"31 15 LINE",
"29 0 LINE",
"289 0 LINE SMOOTH",
"511 0 OFFCURVE",
"653 210 OFFCURVE",
"653 429 CURVE SMOOTH",
"653 616 OFFCURVE",
"549 692 OFFCURVE",
"387 692 CURVE SMOOTH"
);
},
{
closed = 1;
nodes = (
"140 19 LINE",
"146 14 LINE",
"251 678 LINE",
"243 673 LINE",
"381 673 LINE SMOOTH",
"537 673 OFFCURVE",
"632 598 OFFCURVE",
"632 426 CURVE SMOOTH",
"632 220 OFFCURVE",
"496 19 OFFCURVE",
"291 19 CURVE SMOOTH"
);
}
);
width = 716;
},
{
anchors = (
{
name = bottom;
position = "{275, 0}";
},
{
name = center;
position = "{360, 356}";
},
{
name = top;
position = "{359, 710}";
}
);
background = {
paths = (
{
closed = 1;
nodes = (
"349 710 LINE",
"95 705 LINE",
"79 605 LINE",
"153 571 LINE",
"134 600 LINE",
"55 105 LINE",
"79 131 LINE",
"-1 100 LINE",
"-17 0 LINE",
"280 0 LINE SMOOTH",
"497 0 OFFCURVE",
"637 124 OFFCURVE",
"674 356 CURVE SMOOTH",
"710 584 OFFCURVE",
"615 710 OFFCURVE",
"407 710 CURVE SMOOTH"
);
},
{
closed = 1;
nodes = (
"233 145 LINE",
"252 105 LINE",
"331 600 LINE",
"296 565 LINE",
"389 565 LINE SMOOTH",
"466 565 OFFCURVE",
"489 523 OFFCURVE",
"465 373 CURVE SMOOTH",
"435 185 OFFCURVE",
"380 145 OFFCURVE",
"303 145 CURVE SMOOTH"
);
}
);
};
guideLines = (
{
angle = -99;
position = "{19, 231}";
},
{
angle = -99;
position = "{277, 231}";
},
{
angle = -99;
position = "{77, 231}";
}
);
layerId = "927AED37-E9E6-4F96-A08E-421C3785EFC6";
paths = (
{
closed = 1;
nodes = (
"349 710 LINE",
"95 705 LINE",
"79 605 LINE",
"153 571 LINE",
"134 600 LINE",
"55 105 LINE",
"79 131 LINE",
"-1 100 LINE",
"-17 0 LINE",
"272 0 LINE SMOOTH",
"543 0 OFFCURVE",
"681 195 OFFCURVE",
"681 430 CURVE SMOOTH",
"681 617 OFFCURVE",
"593 710 OFFCURVE",
"407 710 CURVE SMOOTH"
);
},
{
closed = 1;
nodes = (
"233 145 LINE",
"252 105 LINE",
"331 600 LINE",
"296 565 LINE",
"378 565 LINE SMOOTH",
"458 565 OFFCURVE",
"473 515 OFFCURVE",
"473 448 CURVE SMOOTH",
"473 360 OFFCURVE",
"447 145 OFFCURVE",
"308 145 CURVE SMOOTH"
);
}
);
width = 682;
},
{
layerId = "89F00A14-383C-41A8-AF30-A12CE933D7AF";
paths = (
{
closed = 1;
nodes = (
"261 0 LINE SMOOTH",
"510 0 OFFCURVE",
"669 165 OFFCURVE",
"669 465 CURVE SMOOTH",
"669 612 OFFCURVE",
"568 700 OFFCURVE",
"421 700 CURVE SMOOTH",
"292 700 LINE",
"107 695 LINE",
"98 640 LINE",
"179 620 LINE",
"92 79 LINE",
"6 60 LINE",
"-4 0 LINE"
);
},
{
closed = 1;
nodes = (
"280 620 LINE",
"406 620 LINE SMOOTH",
"511 620 OFFCURVE",
"564 557 OFFCURVE",
"564 452 CURVE SMOOTH",
"564 232 OFFCURVE",
"461 80 OFFCURVE",
"276 80 CURVE SMOOTH",
"194 80 LINE"
);
}
);
width = 704;
},
{
anchors = (
{
name = bottom;
position = "{275, 0}";
},
{
name = center;
position = "{360, 356}";
},
{
name = top;
position = "{369, 710}";
}
);
associatedMasterId = "927AED37-E9E6-4F96-A08E-421C3785EFC6";
background = {
anchors = (
{
name = bottom;
position = "{275, 0}";
},
{
name = center;
position = "{360, 356}";
},
{
name = top;
position = "{369, 710}";
}
);
paths = (
{
closed = 1;
nodes = (
"349 710 LINE",
"94 705 LINE",
"78 605 LINE",
"157 570 LINE",
"137 610 LINE",
"55 95 LINE",
"86 134 LINE",
"-2 100 LINE",
"-17 0 LINE",
"275 0 LINE SMOOTH",
"492 0 OFFCURVE",
"638 130 OFFCURVE",
"676 369 CURVE SMOOTH",
"711 590 OFFCURVE",
"619 710 OFFCURVE",
"412 710 CURVE SMOOTH"
);
},
{
closed = 1;
nodes = (
"231 145 LINE",
"255 115 LINE",
"331 595 LINE",
"298 565 LINE",
"384 565 LINE SMOOTH",
"462 565 OFFCURVE",
"488 517 OFFCURVE",
"463 360 CURVE SMOOTH",
"434 179 OFFCURVE",
"385 145 OFFCURVE",
"308 145 CURVE SMOOTH"
);
}
);
};
guideLines = (
{
angle = -99;
position = "{19, 231}";
},
{
angle = -99;
position = "{277, 231}";
},
{
angle = -99;
position = "{77, 231}";
}
);
layerId = "04D56E0B-7657-498A-966B-61A304C282D0";
name = "Jun 27 17, 18:23";
paths = (
{
closed = 1;
nodes = (
"349 710 LINE",
"94 705 LINE",
"78 605 LINE",
"156 570 LINE",
"137 610 LINE",
"55 95 LINE",
"87 134 LINE",
"-2 100 LINE",
"-18 0 LINE",
"280 0 LINE SMOOTH",
"497 0 OFFCURVE",
"637 124 OFFCURVE",
"674 356 CURVE SMOOTH",
"710 584 OFFCURVE",
"615 710 OFFCURVE",
"407 710 CURVE SMOOTH"
);
},
{
closed = 1;
nodes = (
"233 145 LINE",
"258 115 LINE",
"335 595 LINE",
"296 565 LINE",
"389 565 LINE SMOOTH",
"466 565 OFFCURVE",
"489 523 OFFCURVE",
"465 373 CURVE SMOOTH",
"435 185 OFFCURVE",
"380 145 OFFCURVE",
"303 145 CURVE SMOOTH"
);
}
);
width = 676;
},
{
anchors = (
{
name = bottom;
position = "{275, 0}";
},
{
name = center;
position = "{360, 356}";
},
{
name = top;
position = "{369, 710}";
}
);
associatedMasterId = "927AED37-E9E6-4F96-A08E-421C3785EFC6";
background = {
anchors = (
{
name = bottom;
position = "{275, 0}";
},
{
name = center;
position = "{360, 356}";
},
{
name = top;
position = "{369, 710}";
}
);
};
guideLines = (
{
angle = -99;
position = "{19, 231}";
},
{
angle = -99;
position = "{277, 231}";
},
{
angle = -99;
position = "{77, 231}";
}
);
layerId = "6EED9467-230C-4374-8CDA-4FE014C3087D";
name = "Jun 28 17, 17:33";
paths = (
{
closed = 1;
nodes = (
"349 710 LINE",
"94 705 LINE",
"78 605 LINE",
"156 570 LINE",
"137 610 LINE",
"55 95 LINE",
"87 134 LINE",
"-2 100 LINE",
"-18 0 LINE",
"280 0 LINE SMOOTH",
"497 0 OFFCURVE",
"637 124 OFFCURVE",
"674 356 CURVE SMOOTH",
"710 584 OFFCURVE",
"615 710 OFFCURVE",
"407 710 CURVE SMOOTH"
);
},
{
closed = 1;
nodes = (
"233 145 LINE",
"258 115 LINE",
"335 595 LINE",
"296 565 LINE",
"389 565 LINE SMOOTH",
"466 565 OFFCURVE",
"489 523 OFFCURVE",
"465 373 CURVE SMOOTH",
"435 185 OFFCURVE",
"380 145 OFFCURVE",
"303 145 CURVE SMOOTH"
);
}
);
width = 676;
},
{
anchors = (
{
name = bottom;
position = "{314, 0}";
},
{
name = center;
position = "{381, 345}";
},
{
name = top;
position = "{403, 691}";
}
);
associatedMasterId = "075BA79B-D813-4287-A9DD-CCAF2D535ED3";
background = {
paths = (
{
closed = 1;
nodes = (
"282 692 LINE",
"137 687 LINE",
"135 672 LINE",
"236 663 LINE",
"231 671 LINE",
"128 21 LINE",
"136 29 LINE",
"31 15 LINE",
"29 0 LINE",
"289 0 LINE SMOOTH",
"453 0 OFFCURVE",
"609 119 OFFCURVE",
"646 354 CURVE SMOOTH",
"684 590 OFFCURVE",
"560 692 OFFCURVE",
"409 692 CURVE SMOOTH"
);
},
{
closed = 1;
nodes = (
"140 19 LINE",
"146 14 LINE",
"251 678 LINE",
"243 673 LINE",
"406 673 LINE SMOOTH",
"551 673 OFFCURVE",
"659 571 OFFCURVE",
"625 352 CURVE SMOOTH",
"589 127 OFFCURVE",
"440 19 OFFCURVE",
"291 19 CURVE SMOOTH"
);
}
);
};
layerId = "DC82266B-48F5-4D3B-AA36-2F6700E6677F";
name = "Jul 3 17, 17:57";
paths = (
{
closed = 1;
nodes = (
"282 692 LINE",
"137 687 LINE",
"135 672 LINE",
"236 663 LINE",
"231 671 LINE",
"128 21 LINE",
"136 29 LINE",
"31 15 LINE",
"29 0 LINE",
"289 0 LINE SMOOTH",
"511 0 OFFCURVE",
"653 207 OFFCURVE",
"653 435 CURVE SMOOTH",
"653 614 OFFCURVE",
"541 692 OFFCURVE",
"409 692 CURVE SMOOTH"
);
},
{
closed = 1;
nodes = (
"140 19 LINE",
"146 14 LINE",
"251 678 LINE",
"243 673 LINE",
"406 673 LINE SMOOTH",
"533 673 OFFCURVE",
"631 595 OFFCURVE",
"631 429 CURVE SMOOTH",
"631 212 OFFCURVE",
"498 19 OFFCURVE",
"291 19 CURVE SMOOTH"
);
}
);
width = 715;
}
);
leftKerningGroup = H;
rightKerningGroup = O;
unicode = 0044;
},
{
color = 1;
glyphname = Eth;
layers = (
{
background = {
components = (
{
name = D;
}
);
paths = (
{
closed = 1;
nodes = (
"37 345 LINE",
"344 345 LINE",
"347 364 LINE",
"40 364 LINE"
);
}
);
};
components = (
{
name = D;
}
);
guideLines = (
{
angle = -99;
position = "{372, 231}";
},
{
angle = -99;
position = "{65, 231}";
}
);
layerId = "075BA79B-D813-4287-A9DD-CCAF2D535ED3";
paths = (
{
closed = 1;
nodes = (
"83 345 LINE",
"390 345 LINE",
"393 364 LINE",
"86 364 LINE"
);
}
);
width = 716;
},
{
background = {
components = (
{
name = D;
transform = "{1, 0, 0, 1, 15, 0}";
}
);
paths = (
{
closed = 1;
nodes = (
"0 302 LINE",
"344 302 LINE",
"363 417 LINE",
"18 417 LINE"
);
}
);
};
components = (
{
name = D;
}
);
guideLines = (
{
angle = 90;
position = "{-302, 241}";
},
{
angle = -99;
position = "{19, 231}";
},
{
angle = -99;
position = "{360, 231}";
}
);
layerId = "927AED37-E9E6-4F96-A08E-421C3785EFC6";
paths = (
{
closed = 1;
nodes = (
"30 302 LINE",
"372 302 LINE",
"390 417 LINE",
"48 417 LINE"
);
}
);
width = 682;
},
{
background = {
paths = (
{
closed = 1;
nodes = (
"268 0 LINE SMOOTH",
"517 0 OFFCURVE",
"678 165 OFFCURVE",
"678 465 CURVE SMOOTH",
"678 612 OFFCURVE",
"575 700 OFFCURVE",
"428 700 CURVE SMOOTH",
"299 700 LINE",
"114 695 LINE",
"105 640 LINE",
"186 620 LINE",
"151 405 LINE",
"68 405 LINE",
"55 325 LINE",
"139 325 LINE",
"99 79 LINE",
"13 60 LINE",
"3 0 LINE"
);
},
{
closed = 1;
nodes = (
"240 325 LINE",
"393 325 LINE",
"404 405 LINE",
"252 405 LINE",
"287 620 LINE",
"413 620 LINE SMOOTH",
"518 620 OFFCURVE",
"573 557 OFFCURVE",
"573 452 CURVE SMOOTH",
"573 232 OFFCURVE",
"468 80 OFFCURVE",
"283 80 CURVE SMOOTH",
"201 80 LINE"
);
}
);
};
layerId = "89F00A14-383C-41A8-AF30-A12CE933D7AF";
paths = (
{
closed = 1;
nodes = (
"268 0 LINE SMOOTH",
"517 0 OFFCURVE",
"678 165 OFFCURVE",
"678 465 CURVE SMOOTH",
"678 612 OFFCURVE",
"575 700 OFFCURVE",
"428 700 CURVE SMOOTH",
"299 700 LINE",
"114 695 LINE",
"105 640 LINE",
"186 620 LINE",
"151 405 LINE",
"68 405 LINE",
"55 325 LINE",
"139 325 LINE",
"99 79 LINE",
"13 60 LINE",
"3 0 LINE"
);
},
{
closed = 1;
nodes = (
"240 325 LINE",
"393 325 LINE",
"404 405 LINE",
"252 405 LINE",
"287 620 LINE",
"413 620 LINE SMOOTH",
"518 620 OFFCURVE",
"573 557 OFFCURVE",
"573 452 CURVE SMOOTH",
"573 232 OFFCURVE",
"468 80 OFFCURVE",
"283 80 CURVE SMOOTH",
"201 80 LINE"
);
}
);
width = 713;
}
);
leftKerningGroup = H;
rightKerningGroup = O;
rightMetricsKey = D;
unicode = 00D0;
},
{
color = 1;
glyphname = E;
layers = (
{
anchors = (
{
name = bottom;
position = "{277, 0}";
},
{
name = ogonek;
position = "{499, 0}";
},
{
name = top;
position = "{396, 692}";
},
{
name = topleft;
position = "{110, 691}";
}
);
background = {
paths = (
{
closed = 1;
nodes = (
"350 692 LINE",
"138 687 LINE",
"136 672 LINE",
"237 663 LINE",
"232 671 LINE",
"129 21 LINE",
"137 29 LINE",
"32 15 LINE",
"30 0 LINE",
"241 0 LINE",
"243 15 LINE",
"143 29 LINE",
"148 21 LINE",
"251 671 LINE",
"243 663 LINE",
"348 677 LINE"
);
}
);
};
guideLines = (
{
angle = 90;
position = "{733, 116}";
},
{
angle = -99;
position = "{181, 231}";
},
{
angle = -99;
position = "{162, 231}";
}
);
layerId = "075BA79B-D813-4287-A9DD-CCAF2D535ED3";
paths = (
{
closed = 1;
nodes = (
"472 12 LINE",
"481 19 LINE",
"141 19 LINE",
"147 16 LINE",
"203 368 LINE",
"195 359 LINE",
"478 359 LINE",
"481 378 LINE",
"198 378 LINE",
"203 369 LINE",
"252 678 LINE",
"244 673 LINE",
"572 673 LINE",
"565 680 LINE",
"560 556 LINE",
"575 556 LINE",
"596 692 LINE",
"255 692 LINE",
"138 687 LINE",
"136 672 LINE",
"237 663 LINE",
"231 671 LINE",
"128 21 LINE",
"137 29 LINE",
"32 15 LINE",
"30 0 LINE",
"499 0 LINE",
"521 141 LINE",
"507 141 LINE"
);
}
);
width = 632;
},
{
anchors = (
{
name = bottom;
position = "{250, 0}";
},
{
name = ogonek;
position = "{499, 0}";
},
{
name = top;
position = "{362, 710}";
},
{
name = topleft;
position = "{82, 710}";
}
);
background = {
paths = (
{
closed = 1;
nodes = (
"409 710 LINE",
"96 705 LINE",
"80 605 LINE",
"154 571 LINE",
"135 600 LINE",
"56 105 LINE",
"80 131 LINE",
"0 100 LINE",
"-16 0 LINE",
"296 0 LINE",
"312 100 LINE",
"243 132 LINE",
"253 105 LINE",
"332 600 LINE",
"310 572 LINE",
"393 610 LINE"
);
}
);
};
layerId = "927AED37-E9E6-4F96-A08E-421C3785EFC6";
paths = (
{
closed = 1;
nodes = (
"381 115 LINE",
"423 145 LINE",
"234 145 LINE",
"253 105 LINE",
"288 325 LINE",
"254 295 LINE",
"456 295 LINE",
"478 430 LINE",
"279 430 LINE",
"300 400 LINE",
"331 595 LINE",
"297 565 LINE",
"475 565 LINE",
"446 591 LINE",
"456 508 LINE",
"570 508 LINE",
"602 710 LINE",
"346 710 LINE",
"96 705 LINE",
"80 605 LINE",
"154 571 LINE",
"135 600 LINE",
"56 106 LINE",
"80 131 LINE",
"0 100 LINE",
"-16 0 LINE",
"499 0 LINE",
"534 211 LINE",
"418 211 LINE"
);
}
);
width = 575;
},
{
anchors = (
{
name = bottom;
position = "{260, 0}";
},
{
name = ogonek;
position = "{502, 10}";
},
{
name = top;
position = "{371, 700}";
},
{
name = topleft;
position = "{89, 700}";
}
);
layerId = "89F00A14-383C-41A8-AF30-A12CE933D7AF";
paths = (
{
closed = 1;
nodes = (
"505 0 LINE",
"536 182 LINE",
"470 182 LINE",
"433 80 LINE",
"206 80 LINE",
"245 325 LINE",
"473 325 LINE",
"485 405 LINE",
"257 405 LINE",
"292 620 LINE",
"513 620 LINE",
"523 530 LINE",
"579 530 LINE",
"606 700 LINE",
"305 700 LINE",
"119 695 LINE",
"110 640 LINE",
"192 620 LINE",
"106 80 LINE",
"18 60 LINE",
"8 0 LINE"
);
}
);
width = 604;
}
);
leftKerningGroup = H;
rightKerningGroup = E;
unicode = 0045;
},
{
color = 1;
glyphname = Ecedillabreve;
layers = (
{
background = {
components = (
{
name = brevecomb.case;
transform = "{1, 0, 0, 1, 119, 0}";
}
);
paths = (
{
closed = 1;
nodes = (
"468 12 LINE",
"477 19 LINE",
"140 19 LINE",
"145 12 LINE",
"201 366 LINE",
"194 359 LINE",
"475 359 LINE",
"478 378 LINE",
"197 378 LINE",
"202 371 LINE",
"251 680 LINE",
"243 673 LINE",
"568 673 LINE",
"562 680 LINE",
"556 556 LINE",
"571 556 LINE",
"592 692 LINE",
"254 692 LINE",
"138 687 LINE",
"136 672 LINE",
"236 662 LINE",
"230 670 LINE",
"128 21 LINE",
"136 29 LINE",
"31 15 LINE",
"29 0 LINE",
"495 0 LINE",
"517 141 LINE",
"503 141 LINE"
);
},
{
closed = 1;
nodes = (
"458 756 OFFCURVE",
"516 787 OFFCURVE",
"526 850 CURVE",
"511 849 LINE",
"500 801 OFFCURVE",
"453 777 OFFCURVE",
"409 777 CURVE SMOOTH",
"366 777 OFFCURVE",
"325 801 OFFCURVE",
"327 850 CURVE",
"312 848 LINE",
"304 787 OFFCURVE",
"353 756 OFFCURVE",
"405 756 CURVE SMOOTH"
);
},
{
closed = 1;
nodes = (
"305 -212 OFFCURVE",
"347 -188 OFFCURVE",
"355 -138 CURVE SMOOTH",
"361 -102 OFFCURVE",
"345 -74 OFFCURVE",
"275 -68 CURVE",
"285 0 LINE",
"267 0 LINE",
"250 -87 LINE",
"313 -88 OFFCURVE",
"340 -106 OFFCURVE",
"334 -141 CURVE SMOOTH",
"329 -175 OFFCURVE",
"297 -192 OFFCURVE",
"260 -192 CURVE SMOOTH",
"240 -192 OFFCURVE",
"218 -187 OFFCURVE",
"200 -179 CURVE",
"190 -196 LINE",
"211 -207 OFFCURVE",
"235 -212 OFFCURVE",
"256 -212 CURVE SMOOTH"
);
}
);
};
components = (
{
name = E;
},
{
name = cedillacomb.case;
transform = "{1, 0, 0, 1, 162, 0}";
},
{
name = brevecomb.case;
transform = "{1, 0, 0, 1, 121, 0}";
}
);
layerId = "075BA79B-D813-4287-A9DD-CCAF2D535ED3";
width = 632;
},
{
background = {
components = (
{
name = brevecomb.case;
transform = "{1, 0, 0, 1, 89, 0}";
}
);
paths = (
{
closed = 1;
nodes = (
"377 115 LINE",
"417 145 LINE",
"229 145 LINE",
"253 115 LINE",
"286 325 LINE",
"253 295 LINE",
"452 295 LINE",
"473 430 LINE",
"274 430 LINE",
"298 400 LINE",
"329 595 LINE",
"296 565 LINE",
"472 565 LINE",
"442 591 LINE",
"450 508 LINE",
"565 508 LINE",
"597 710 LINE",
"342 710 LINE",
"94 705 LINE",
"78 605 LINE",
"153 572 LINE",
"136 610 LINE",
"55 95 LINE",
"85 134 LINE",
"-2 100 LINE",
"-18 0 LINE",
"494 0 LINE",
"529 211 LINE",
"415 211 LINE"
);
},
{
closed = 1;
nodes = (
"289 -275 OFFCURVE",
"376 -232 OFFCURVE",
"390 -146 CURVE SMOOTH",
"399 -89 OFFCURVE",
"361 -49 OFFCURVE",
"290 -39 CURVE",
"296 0 LINE",
"186 0 LINE",
"160 -117 LINE",
"208 -119 OFFCURVE",
"259 -129 OFFCURVE",
"256 -151 CURVE SMOOTH",
"254 -166 OFFCURVE",
"238 -172 OFFCURVE",
"217 -172 CURVE SMOOTH",
"192 -172 OFFCURVE",
"159 -164 OFFCURVE",
"134 -154 CURVE",
"85 -246 LINE",
"119 -266 OFFCURVE",
"161 -275 OFFCURVE",
"202 -275 CURVE SMOOTH"
);
}
);
};
components = (
{
name = E;
},
{
name = cedillacomb.case;
transform = "{1, 0, 0, 1, 137, 0}";
},
{
name = brevecomb.case;
transform = "{1, 0, 0, 1, 82, 0}";
}
);
layerId = "927AED37-E9E6-4F96-A08E-421C3785EFC6";
width = 575;
},
{
background = {
components = (
{
name = E;
},
{
name = cedillacomb.case;
},
{
name = brevecomb.case;
}
);
};
components = (
{
name = E;
},
{
name = cedillacomb.case;
},
{
name = brevecomb.case;
}
);
layerId = "89F00A14-383C-41A8-AF30-A12CE933D7AF";
width = 600;
}
);
leftKerningGroup = H;
rightKerningGroup = E;
unicode = 1E1C;
},
{
color = 1;
glyphname = Eogonek;
layers = (
{
background = {
components = (
{
name = E;
},
{
name = ogonekcomb.case;
transform = "{1, 0, 0, 1, 311, 0}";
}
);
};
components = (
{
name = E;
},
{
name = ogonekcomb.case;
transform = "{1, 0, 0, 1, 303, 0}";
}
);
layerId = "075BA79B-D813-4287-A9DD-CCAF2D535ED3";
width = 632;
},
{
background = {
components = (
{
name = E;
},
{
name = ogonekcomb.case;
transform = "{1, 0, 0, 1, 279, 0}";
}
);
};
components = (
{
name = E;
},
{
name = ogonekcomb.case;
transform = "{1, 0, 0, 1, 282, 0}";
}
);
layerId = "927AED37-E9E6-4F96-A08E-421C3785EFC6";
width = 575;
},
{
background = {
components = (
{
name = E;
}
);
paths = (
{
closed = 1;
nodes = (
"431 -220 OFFCURVE",
"473 -200 OFFCURVE",
"473 -200 CURVE",
"471 -153 LINE",
"471 -153 OFFCURVE",
"445 -160 OFFCURVE",
"425 -160 CURVE SMOOTH",
"403 -160 OFFCURVE",
"387 -147 OFFCURVE",
"387 -124 CURVE SMOOTH",
"387 -67 OFFCURVE",
"505 0 OFFCURVE",
"505 0 CURVE",
"428 2 LINE",
"428 2 OFFCURVE",
"307 -55 OFFCURVE",
"307 -145 CURVE SMOOTH",
"307 -193 OFFCURVE",
"344 -220 OFFCURVE",
"392 -220 CURVE SMOOTH"
);
}
);
};
components = (
{
name = E;
}
);
layerId = "89F00A14-383C-41A8-AF30-A12CE933D7AF";
paths = (
{
closed = 1;
nodes = (
"431 -220 OFFCURVE",
"473 -200 OFFCURVE",
"473 -200 CURVE",
"471 -153 LINE",
"471 -153 OFFCURVE",
"445 -160 OFFCURVE",
"425 -160 CURVE SMOOTH",
"403 -160 OFFCURVE",
"387 -147 OFFCURVE",
"387 -124 CURVE SMOOTH",
"387 -67 OFFCURVE",
"505 0 OFFCURVE",
"505 0 CURVE",
"428 2 LINE",
"428 2 OFFCURVE",
"307 -55 OFFCURVE",
"307 -145 CURVE SMOOTH",
"307 -193 OFFCURVE",
"344 -220 OFFCURVE",
"392 -220 CURVE SMOOTH"
);
}
);
width = 604;
}
);
leftKerningGroup = H;
rightKerningGroup = E;
unicode = 0118;
},
{
color = 1;
glyphname = F;
layers = (
{
background = {
paths = (
{
closed = 1;
nodes = (
"350 692 LINE",
"138 687 LINE",
"136 672 LINE",
"237 663 LINE",
"232 671 LINE",
"129 21 LINE",
"137 29 LINE",
"32 15 LINE",
"30 0 LINE",
"241 0 LINE",
"243 15 LINE",
"143 29 LINE",
"148 21 LINE",
"251 671 LINE",
"243 663 LINE",
"348 677 LINE"
);
}
);
};
guideLines = (
{
angle = -99;
position = "{181, 231}";
},
{
angle = -99;
position = "{162, 231}";
}
);
layerId = "075BA79B-D813-4287-A9DD-CCAF2D535ED3";
paths = (
{
closed = 1;
nodes = (
"264 0 LINE",
"266 15 LINE",
"143 29 LINE",
"148 21 LINE",
"203 368 LINE",
"194 356 LINE",
"463 356 LINE",
"466 375 LINE",
"198 375 LINE",
"203 368 LINE",
"252 678 LINE",
"244 673 LINE",
"561 673 LINE",
"555 680 LINE",
"550 556 LINE",
"564 556 LINE",
"586 692 LINE",
"255 692 LINE",
"138 687 LINE",
"136 672 LINE",
"237 663 LINE",
"231 671 LINE",
"128 21 LINE",
"137 29 LINE",
"32 15 LINE",
"30 0 LINE"
);
}
);
width = 546;
},
{
background = {
paths = (
{
closed = 1;
nodes = (
"408 710 LINE",
"95 705 LINE",
"79 605 LINE",
"153 571 LINE",
"134 600 LINE",
"55 105 LINE",
"79 131 LINE",
"-1 100 LINE",
"-17 0 LINE",
"295 0 LINE",
"311 100 LINE",
"242 132 LINE",
"252 105 LINE",
"331 600 LINE",
"309 572 LINE",
"392 610 LINE"
);
}
);
};
guideLines = (
{
angle = -99;
position = "{75, 231}";
},
{
angle = -99;
position = "{273, 231}";
}
);
layerId = "927AED37-E9E6-4F96-A08E-421C3785EFC6";
paths = (
{
closed = 1;
nodes = (
"309 0 LINE",
"324 100 LINE",
"237 132 LINE",
"252 105 LINE",
"286 320 LINE",
"252 290 LINE",
"456 290 LINE",
"477 425 LINE",
"277 425 LINE",
"299 397 LINE",
"330 595 LINE",
"296 565 LINE",
"472 565 LINE",
"443 584 LINE",
"452 505 LINE",
"566 505 LINE",
"598 710 LINE",
"345 710 LINE",
"95 705 LINE",
"79 605 LINE",
"153 571 LINE",
"134 600 LINE",
"55 105 LINE",
"79 131 LINE",
"-1 100 LINE",
"-17 0 LINE"
);
}
);
width = 538;
},
{
layerId = "89F00A14-383C-41A8-AF30-A12CE933D7AF";
paths = (
{
closed = 1;
nodes = (
"289 0 LINE",
"299 60 LINE",
"201 80 LINE",
"239 315 LINE",
"467 315 LINE",
"479 395 LINE",
"250 395 LINE",
"287 620 LINE",
"508 620 LINE",
"518 530 LINE",
"574 530 LINE",
"601 700 LINE",
"300 700 LINE",
"114 695 LINE",
"105 640 LINE",
"188 620 LINE",
"101 80 LINE",
"13 60 LINE",
"3 0 LINE"
);
}
);
width = 547;
}
);
leftKerningGroup = H;
rightKerningGroup = F;
unicode = 0046;
},
{
color = 1;
glyphname = G;
layers = (
{
anchors = (
{
name = bottom;
position = "{347, 0}";
},
{
name = top;
position = "{465, 691}";
}
);
background = {
paths = (
{
closed = 1;
nodes = (
"393 -6 OFFCURVE",
"483 11 OFFCURVE",
"572 45 CURVE",
"611 294 LINE",
"603 286 LINE",
"703 300 LINE",
"705 315 LINE",
"498 310 LINE",
"496 295 LINE",
"597 287 LINE",
"591 294 LINE",
"553 51 LINE",
"559 60 LINE",
"476 30 OFFCURVE",
"392 14 OFFCURVE",
"331 14 CURVE SMOOTH",
"200 14 OFFCURVE",
"114 104 OFFCURVE",
"114 262 CURVE SMOOTH",
"114 469 OFFCURVE",
"240 678 OFFCURVE",
"445 678 CURVE SMOOTH",
"519 678 OFFCURVE",
"584 661 OFFCURVE",
"642 637 CURVE",
"638 646 LINE",
"628 516 LINE",
"643 516 LINE",
"668 650 LINE",
"599 683 OFFCURVE",
"528 698 OFFCURVE",
"454 698 CURVE SMOOTH",
"229 698 OFFCURVE",
"93 485 OFFCURVE",
"93 256 CURVE SMOOTH",
"93 94 OFFCURVE",
"185 -6 OFFCURVE",
"327 -6 CURVE SMOOTH"
);
}
);
};
guideLines = (
{
angle = -99;
position = "{412, 433}";
}
);
layerId = "075BA79B-D813-4287-A9DD-CCAF2D535ED3";
paths = (
{
closed = 1;
nodes = (
"408 -6 OFFCURVE",
"486 12 OFFCURVE",
"572 45 CURVE",
"611 294 LINE",
"603 286 LINE",
"703 300 LINE",
"705 315 LINE",
"498 310 LINE",
"496 295 LINE",
"597 287 LINE",
"591 294 LINE",
"553 51 LINE",
"559 60 LINE",
"479 30 OFFCURVE",
"407 14 OFFCURVE",
"342 14 CURVE SMOOTH",
"204 14 OFFCURVE",
"114 87 OFFCURVE",
"114 270 CURVE SMOOTH",
"114 505 OFFCURVE",
"263 679 OFFCURVE",
"464 679 CURVE SMOOTH",
"519 679 OFFCURVE",
"580 666 OFFCURVE",
"642 637 CURVE",
"638 646 LINE",
"628 516 LINE",
"643 516 LINE",
"668 650 LINE",
"596 683 OFFCURVE",
"527 699 OFFCURVE",
"463 699 CURVE SMOOTH",
"249 699 OFFCURVE",
"93 517 OFFCURVE",
"93 268 CURVE SMOOTH",
"93 72 OFFCURVE",
"190 -6 OFFCURVE",
"337 -6 CURVE SMOOTH"
);
}
);
width = 752;
},
{
anchors = (
{
name = bottom;
position = "{304, 0}";
},
{
name = top;
position = "{421, 710}";
}
);
background = {
anchors = (
{
name = bottom;
position = "{304, 0}";
},
{
name = top;
position = "{411, 710}";
}
);
paths = (
{
closed = 1;
nodes = (
"374 -15 OFFCURVE",
"467 8 OFFCURVE",
"568 55 CURVE",
"603 277 LINE",
"581 244 LINE",
"660 272 LINE",
"677 377 LINE",
"378 372 LINE",
"362 268 LINE",
"446 244 LINE",
"421 277 LINE",
"396 117 LINE",
"424 159 LINE",
"392 148 OFFCURVE",
"364 143 OFFCURVE",
"341 143 CURVE SMOOTH",
"250 143 OFFCURVE",
"225 226 OFFCURVE",
"247 364 CURVE SMOOTH",
"269 502 OFFCURVE",
"317 568 OFFCURVE",
"412 568 CURVE SMOOTH",
"435 568 OFFCURVE",
"470 564 OFFCURVE",
"507 550 CURVE",
"481 577 LINE",
"494 470 LINE",
"609 470 LINE",
"652 669 LINE",
"572 706 OFFCURVE",
"494 725 OFFCURVE",
"420 725 CURVE SMOOTH",
"228 725 OFFCURVE",
"73 598 OFFCURVE",
"34 353 CURVE SMOOTH",
"-4 112 OFFCURVE",
"106 -15 OFFCURVE",
"294 -15 CURVE SMOOTH"
);
}
);
};
layerId = "927AED37-E9E6-4F96-A08E-421C3785EFC6";
paths = (
{
closed = 1;
nodes = (
"378 -15 OFFCURVE",
"470 5 OFFCURVE",
"572 52 CURVE",
"602 277 LINE",
"580 244 LINE",
"661 272 LINE",
"677 377 LINE",
"378 372 LINE",
"362 268 LINE",
"444 244 LINE",
"419 277 LINE",
"397 117 LINE",
"422 161 LINE",
"388 150 OFFCURVE",
"360 143 OFFCURVE",
"332 143 CURVE SMOOTH",
"246 143 OFFCURVE",
"224 220 OFFCURVE",
"245 351 CURVE SMOOTH",
"268 496 OFFCURVE",
"322 568 OFFCURVE",
"421 568 CURVE SMOOTH",
"440 568 OFFCURVE",
"475 566 OFFCURVE",
"511 552 CURVE",
"481 577 LINE",
"495 470 LINE",
"609 470 LINE",
"648 667 LINE",
"568 704 OFFCURVE",
"489 725 OFFCURVE",
"411 725 CURVE SMOOTH",
"223 725 OFFCURVE",
"74 604 OFFCURVE",
"36 366 CURVE SMOOTH",
"-3 118 OFFCURVE",
"111 -15 OFFCURVE",
"303 -15 CURVE SMOOTH"
);
}
);
width = 667;
},
{
layerId = "89F00A14-383C-41A8-AF30-A12CE933D7AF";
paths = (
{
closed = 1;
nodes = (
"450 -10 OFFCURVE",
"536 24 OFFCURVE",
"592 50 CURVE",
"627 270 LINE",
"704 285 LINE",
"714 345 LINE",
"454 340 LINE",
"445 285 LINE",
"530 270 LINE",
"503 103 LINE",
"463 88 OFFCURVE",
"415 76 OFFCURVE",
"348 76 CURVE SMOOTH",
"226 76 OFFCURVE",
"170 149 OFFCURVE",
"170 263 CURVE SMOOTH",
"170 448 OFFCURVE",
"275 625 OFFCURVE",
"435 625 CURVE SMOOTH",
"508 625 OFFCURVE",
"551 609 OFFCURVE",
"566 603 CURVE",
"578 499 LINE",
"636 499 LINE",
"663 660 LINE",
"663 660 OFFCURVE",
"562 710 OFFCURVE",
"452 710 CURVE SMOOTH",
"227 710 OFFCURVE",
"60 519 OFFCURVE",
"60 244 CURVE SMOOTH",
"60 92 OFFCURVE",
"158 -10 OFFCURVE",
"323 -10 CURVE SMOOTH"
);
}
);
width = 726;
},
{
anchors = (
{
name = bottom;
position = "{345, 0}";
},
{
name = top;
position = "{453, 691}";
}
);
associatedMasterId = "075BA79B-D813-4287-A9DD-CCAF2D535ED3";
background = {
anchors = (
{
name = bottom;
position = "{345, 0}";
},
{
name = top;
position = "{453, 691}";
}
);
paths = (
{
closed = 1;
nodes = (
"401 -5 OFFCURVE",
"481 11 OFFCURVE",
"569 45 CURVE",
"609 294 LINE",
"601 286 LINE",
"701 300 LINE",
"703 315 LINE",
"496 310 LINE",
"494 295 LINE",
"595 287 LINE",
"590 294 LINE",
"551 51 LINE",
"557 60 LINE",
"475 30 OFFCURVE",
"401 15 OFFCURVE",
"341 15 CURVE SMOOTH",
"173 15 OFFCURVE",
"86 127 OFFCURVE",
"119 335 CURVE SMOOTH",
"154 554 OFFCURVE",
"289 678 OFFCURVE",
"451 678 CURVE SMOOTH",
"510 678 OFFCURVE",
"582 661 OFFCURVE",
"639 637 CURVE",
"637 646 LINE",
"626 516 LINE",
"640 516 LINE",
"666 650 LINE",
"598 683 OFFCURVE",
"525 698 OFFCURVE",
"463 698 CURVE SMOOTH",
"284 698 OFFCURVE",
"136 575 OFFCURVE",
"98 335 CURVE SMOOTH",
"63 112 OFFCURVE",
"155 -5 OFFCURVE",
"335 -5 CURVE SMOOTH"
);
}
);
};
guideLines = (
{
angle = 90;
position = "{480, 433}";
}
);
layerId = "2F6643E2-7CB6-4E4D-9DA0-198E2659CFDB";
name = "Jul 3 17, 18:00";
paths = (
{
closed = 1;
nodes = (
"402 -5 OFFCURVE",
"481 11 OFFCURVE",
"570 45 CURVE",
"609 294 LINE",
"601 286 LINE",
"701 300 LINE",
"703 315 LINE",
"496 310 LINE",
"494 295 LINE",
"595 287 LINE",
"589 294 LINE",
"551 51 LINE",
"557 60 LINE",
"474 30 OFFCURVE",
"401 15 OFFCURVE",
"340 15 CURVE SMOOTH",
"172 15 OFFCURVE",
"86 126 OFFCURVE",
"119 334 CURVE SMOOTH",
"154 553 OFFCURVE",
"289 678 OFFCURVE",
"452 678 CURVE SMOOTH",
"511 678 OFFCURVE",
"582 661 OFFCURVE",
"640 637 CURVE",
"637 646 LINE",
"626 516 LINE",
"640 516 LINE",
"666 650 LINE",
"597 683 OFFCURVE",
"524 698 OFFCURVE",
"461 698 CURVE SMOOTH",
"284 698 OFFCURVE",
"136 576 OFFCURVE",
"98 336 CURVE SMOOTH",
"63 113 OFFCURVE",
"156 -5 OFFCURVE",
"336 -5 CURVE SMOOTH"
);
}
);
width = 750;
}
);
leftKerningGroup = O;
leftMetricsKey = O;
rightKerningGroup = G;
unicode = 0047;
},
{
color = 1;
glyphname = H;
layers = (
{
anchors = (
{
name = bottom;
position = "{358, 0}";
},
{
name = center;
position = "{413, 346}";
},
{
name = top;
position = "{468, 692}";
},
{
name = topleft;
position = "{108, 692}";
}
);
background = {
paths = (
{
closed = 1;
nodes = (
"350 692 LINE",
"138 687 LINE",
"136 672 LINE",
"237 663 LINE",
"232 671 LINE",
"129 21 LINE",
"137 29 LINE",
"32 15 LINE",
"30 0 LINE",
"241 0 LINE",
"243 15 LINE",
"143 29 LINE",
"148 21 LINE",
"251 671 LINE",
"243 663 LINE",
"348 677 LINE"
);
},
{
closed = 1;
nodes = (
"785 692 LINE",
"573 687 LINE",
"571 672 LINE",
"672 663 LINE",
"667 671 LINE",
"564 21 LINE",
"572 29 LINE",
"467 15 LINE",
"465 0 LINE",
"676 0 LINE",
"678 15 LINE",
"578 29 LINE",
"583 21 LINE",
"686 671 LINE",
"678 663 LINE",
"783 677 LINE"
);
}
);
};
guideLines = (
{
angle = -99;
position = "{181, 231}";
},
{
angle = -99;
position = "{162, 231}";
},
{
angle = -99;
position = "{606, 231}";
},
{
angle = -99;
position = "{625, 231}";
}
);
layerId = "075BA79B-D813-4287-A9DD-CCAF2D535ED3";
paths = (
{
closed = 1;
nodes = (
"241 0 LINE",
"243 15 LINE",
"143 29 LINE",
"148 21 LINE",
"200 349 LINE",
"192 342 LINE",
"622 342 LINE",
"616 349 LINE",
"564 21 LINE",
"572 29 LINE",
"467 15 LINE",
"465 0 LINE",
"677 0 LINE",
"679 15 LINE",
"578 29 LINE",
"584 21 LINE",
"687 671 LINE",
"678 663 LINE",
"785 677 LINE",
"787 692 LINE",
"573 687 LINE",
"571 672 LINE",
"672 663 LINE",
"667 671 LINE",
"616 352 LINE",
"625 361 LINE",
"195 361 LINE",
"200 352 LINE",
"251 671 LINE",
"243 663 LINE",
"348 677 LINE",
"350 692 LINE",
"137 687 LINE",
"135 672 LINE",
"237 663 LINE",
"231 671 LINE",
"128 21 LINE",
"137 29 LINE",
"31 15 LINE",
"29 0 LINE"
);
}
);
width = 788;
},
{
anchors = (
{
name = bottom;
position = "{332, 0}";
},
{
name = center;
position = "{388, 355}";
},
{
name = top;
position = "{444, 710}";
},
{
name = topleft;
position = "{56, 710}";
}
);
background = {
anchors = (
{
name = bottom;
position = "{332, 0}";
},
{
name = center;
position = "{388, 355}";
},
{
name = top;
position = "{444, 710}";
},
{
name = topleft;
position = "{56, 710}";
}
);
guideLines = (
{
angle = -99;
position = "{460, 231}";
},
{
angle = -99;
position = "{660, 231}";
}
);
paths = (
{
closed = 1;
nodes = (
"408 710 LINE",
"95 705 LINE",
"79 605 LINE",
"153 571 LINE",
"134 600 LINE",
"55 105 LINE",
"79 131 LINE",
"-1 100 LINE",
"-17 0 LINE",
"295 0 LINE",
"311 100 LINE",
"242 132 LINE",
"252 105 LINE",
"331 600 LINE",
"309 572 LINE",
"392 610 LINE"
);
},
{
closed = 1;
nodes = (
"796 710 LINE",
"483 705 LINE",
"467 605 LINE",
"541 571 LINE",
"522 600 LINE",
"443 105 LINE",
"467 131 LINE",
"387 100 LINE",
"371 0 LINE",
"683 0 LINE",
"699 100 LINE",
"630 132 LINE",
"640 105 LINE",
"719 600 LINE",
"697 572 LINE",
"780 610 LINE"
);
}
);
};
guideLines = (
{
angle = -99;
position = "{460, 231}";
},
{
angle = -99;
position = "{660, 231}";
},
{
angle = -99;
position = "{720, 231}";
},
{
angle = -99;
position = "{20, 231}";
}
);
layerId = "927AED37-E9E6-4F96-A08E-421C3785EFC6";
paths = (
{
closed = 1;
nodes = (
"295 0 LINE",
"311 100 LINE",
"242 132 LINE",
"252 105 LINE",
"286 318 LINE",
"254 293 LINE",
"499 293 LINE",
"477 319 LINE",
"443 105 LINE",
"467 131 LINE",
"387 100 LINE",
"371 0 LINE",
"683 0 LINE",
"699 100 LINE",
"630 132 LINE",
"640 105 LINE",
"719 600 LINE",
"697 572 LINE",
"780 610 LINE",
"796 710 LINE",
"483 705 LINE",
"467 605 LINE",
"541 571 LINE",
"522 600 LINE",
"492 411 LINE",
"526 438 LINE",
"280 438 LINE",
"301 411 LINE",
"331 600 LINE",
"309 572 LINE",
"392 610 LINE",
"408 710 LINE",
"95 705 LINE",
"79 605 LINE",
"153 571 LINE",
"134 600 LINE",
"55 105 LINE",
"79 131 LINE",
"-1 100 LINE",
"-17 0 LINE"
);
}
);
width = 750;
},
{
background = {
paths = (
{
closed = 1;
nodes = (
"269 0 LINE",
"279 60 LINE",
"192 80 LINE",
"230 320 LINE",
"556 320 LINE",
"517 79 LINE",
"423 60 LINE",
"413 0 LINE",
"691 0 LINE",
"701 60 LINE",
"617 80 LINE",
"704 620 LINE",
"791 640 LINE",
"801 700 LINE",
"522 695 LINE",
"513 640 LINE",
"604 620 LINE",
"569 400 LINE",
"243 400 LINE",
"279 620 LINE",
"371 640 LINE",
"381 700 LINE",
"106 695 LINE",
"97 640 LINE",
"179 620 LINE",
"92 79 LINE",
"6 60 LINE",
"-4 0 LINE"
);
}
);
};
layerId = "89F00A14-383C-41A8-AF30-A12CE933D7AF";
paths = (
{
closed = 1;
nodes = (
"269 0 LINE",
"279 60 LINE",
"192 80 LINE",
"230 320 LINE",
"556 320 LINE",
"517 79 LINE",
"423 60 LINE",
"413 0 LINE",
"691 0 LINE",
"701 60 LINE",
"617 80 LINE",
"704 620 LINE",
"791 640 LINE",
"801 700 LINE",
"522 695 LINE",
"513 640 LINE",
"604 620 LINE",
"569 400 LINE",
"243 400 LINE",
"279 620 LINE",
"371 640 LINE",
"381 700 LINE",
"106 695 LINE",
"97 640 LINE",
"179 620 LINE",
"92 79 LINE",
"6 60 LINE",
"-4 0 LINE"
);
}
);
width = 771;
}
);
leftKerningGroup = H;
rightKerningGroup = H;
unicode = 0048;
},
{
color = 1;
glyphname = Hbar;
layers = (
{
anchors = (
{
name = bottom;
position = "{333, 0}";
},
{
name = center;
position = "{388, 345}";
},
{
name = top;
position = "{397, 700}";
},
{
name = topleft;
position = "{83, 700}";
}
);
background = {
anchors = (
{
name = bottom;
position = "{333, 0}";
},
{
name = center;
position = "{388, 345}";
},
{
name = top;
position = "{397, 700}";
},
{
name = topleft;
position = "{83, 700}";
}
);
paths = (
{
closed = 1;
nodes = (
"765 510 LINE",
"768 529 LINE",
"112 529 LINE",
"109 510 LINE"
);
},
{
closed = 1;
nodes = (
"240 0 LINE",
"242 15 LINE",
"142 29 LINE",
"147 21 LINE",
"199 349 LINE",
"191 342 LINE",
"630 342 LINE",
"624 349 LINE",
"572 21 LINE",
"580 29 LINE",
"475 15 LINE",
"473 0 LINE",
"684 0 LINE",
"687 15 LINE",
"586 29 LINE",
"592 21 LINE",
"695 671 LINE",
"687 663 LINE",
"792 677 LINE",
"794 692 LINE",
"582 687 LINE",
"580 672 LINE",
"681 664 LINE",
"675 671 LINE",
"625 354 LINE",
"633 361 LINE",
"194 361 LINE",
"200 354 LINE",
"250 671 LINE",
"242 663 LINE",
"347 677 LINE",
"349 692 LINE",
"137 687 LINE",
"135 672 LINE",
"236 663 LINE",
"231 671 LINE",
"128 21 LINE",
"136 29 LINE",
"31 15 LINE",
"29 0 LINE"
);
}
);
};
guideLines = (
{
angle = -99;
position = "{126, 614}";
},
{
angle = -99;
position = "{775, 614}";
}
);
layerId = "075BA79B-D813-4287-A9DD-CCAF2D535ED3";
paths = (
{
closed = 1;
nodes = (
"759 510 LINE",
"762 529 LINE",
"113 529 LINE",
"110 510 LINE"
);
},
{
closed = 1;
nodes = (
"241 0 LINE",
"243 15 LINE",
"143 29 LINE",
"148 21 LINE",
"200 349 LINE",
"192 342 LINE",
"622 342 LINE",
"616 349 LINE",
"564 21 LINE",
"572 29 LINE",
"467 15 LINE",
"465 0 LINE",
"677 0 LINE",
"679 15 LINE",
"578 29 LINE",
"584 21 LINE",
"687 671 LINE",
"678 663 LINE",
"785 677 LINE",
"787 692 LINE",
"573 687 LINE",
"571 672 LINE",
"672 663 LINE",
"667 671 LINE",
"616 352 LINE",
"625 361 LINE",
"195 361 LINE",
"200 352 LINE",
"251 671 LINE",
"243 663 LINE",
"348 677 LINE",
"350 692 LINE",
"137 687 LINE",
"135 672 LINE",
"237 663 LINE",
"231 671 LINE",
"128 21 LINE",
"137 29 LINE",
"31 15 LINE",
"29 0 LINE"
);
}
);
width = 789;
},
{
anchors = (
{
name = bottom;
position = "{330, 0}";
},
{
name = center;
position = "{386, 356}";
},
{
name = top;
position = "{466, 710}";
},
{
name = topleft;
position = "{78, 710}";
}
);
background = {
paths = (
{
closed = 1;
nodes = (
"757 467 LINE",
"771 557 LINE",
"72 557 LINE",
"58 467 LINE"
);
},
{
closed = 1;
nodes = (
"295 0 LINE",
"311 100 LINE",
"242 132 LINE",
"252 105 LINE",
"286 318 LINE",
"254 280 LINE",
"499 280 LINE",
"477 319 LINE",
"443 105 LINE",
"467 131 LINE",
"387 100 LINE",
"371 0 LINE",
"683 0 LINE",
"699 100 LINE",
"630 132 LINE",
"640 105 LINE",
"719 600 LINE",
"697 572 LINE",
"780 610 LINE",
"796 710 LINE",
"483 705 LINE",
"467 605 LINE",
"541 571 LINE",
"522 600 LINE",
"492 411 LINE",
"526 420 LINE",
"280 420 LINE",
"301 411 LINE",
"331 600 LINE",
"309 572 LINE",
"392 610 LINE",
"408 710 LINE",
"95 705 LINE",
"79 605 LINE",
"153 571 LINE",
"134 600 LINE",
"55 105 LINE",
"79 131 LINE",
"-1 100 LINE",
"-17 0 LINE"
);
}
);
};
guideLines = (
{
angle = -99;
position = "{69, 540}";
},
{
angle = -99;
position = "{769, 540}";
}
);
layerId = "927AED37-E9E6-4F96-A08E-421C3785EFC6";
paths = (
{
closed = 1;
nodes = (
"757 467 LINE",
"771 557 LINE",
"72 557 LINE",
"58 467 LINE"
);
},
{
closed = 1;
nodes = (
"295 0 LINE",
"311 100 LINE",
"242 132 LINE",
"252 105 LINE",
"286 318 LINE",
"254 280 LINE",
"499 280 LINE",
"477 319 LINE",
"443 105 LINE",
"467 131 LINE",
"387 100 LINE",
"371 0 LINE",
"683 0 LINE",
"699 100 LINE",
"630 132 LINE",
"640 105 LINE",
"719 600 LINE",
"697 572 LINE",
"780 610 LINE",
"796 710 LINE",
"483 705 LINE",
"467 605 LINE",
"541 571 LINE",
"522 600 LINE",
"487 383 LINE",
"526 420 LINE",
"280 420 LINE",
"298 390 LINE",
"331 600 LINE",
"309 572 LINE",
"392 610 LINE",
"408 710 LINE",
"95 705 LINE",
"79 605 LINE",
"153 571 LINE",
"134 600 LINE",
"55 105 LINE",
"79 131 LINE",
"-1 100 LINE",
"-17 0 LINE"
);
}
);
width = 750;
},
{
layerId = "89F00A14-383C-41A8-AF30-A12CE933D7AF";
paths = (
{
closed = 1;
nodes = (
"269 0 LINE",
"279 60 LINE",
"192 80 LINE",
"231 320 LINE",
"556 320 LINE",
"518 80 LINE",
"424 60 LINE",
"413 0 LINE",
"692 0 LINE",
"701 60 LINE",
"618 80 LINE",
"682 485 LINE",
"766 485 LINE",
"778 560 LINE",
"694 560 LINE",
"704 620 LINE",
"790 640 LINE",
"799 700 LINE",
"522 695 LINE",
"514 640 LINE",
"604 620 LINE",
"594 560 LINE",
"269 560 LINE",
"279 620 LINE",
"373 640 LINE",
"382 700 LINE",
"107 695 LINE",
"98 640 LINE",
"178 620 LINE",
"169 560 LINE",
"85 560 LINE",
"74 485 LINE",
"157 485 LINE",
"92 80 LINE",
"6 60 LINE",
"-4 0 LINE"
);
},
{
closed = 1;
nodes = (
"256 485 LINE",
"583 485 LINE",
"569 400 LINE",
"244 400 LINE"
);
}
);
width = 772;
}
);
leftKerningGroup = H;
leftMetricsKey = H;
rightKerningGroup = H;
rightMetricsKey = H;
unicode = 0126;
},
{
color = 1;
glyphname = I;
layers = (
{
anchors = (
{
name = bottom;
position = "{135, 0}";
},
{
name = ogonek;
position = "{152, 0}";
},
{
name = top;
position = "{245, 691}";
},
{
name = topleft;
position = "{110, 691}";
}
);
background = {
anchors = (
{
name = bottom;
position = "{135, 0}";
},
{
name = ogonek;
position = "{152, 0}";
},
{
name = top;
position = "{245, 691}";
},
{
name = topleft;
position = "{110, 691}";
}
);
paths = (
{
closed = 1;
nodes = (
"350 692 LINE",
"138 687 LINE",
"136 672 LINE",
"237 663 LINE",
"232 671 LINE",
"129 21 LINE",
"137 29 LINE",
"32 15 LINE",
"30 0 LINE",
"241 0 LINE",
"243 15 LINE",
"143 29 LINE",
"148 21 LINE",
"251 671 LINE",
"243 663 LINE",
"348 677 LINE"
);
}
);
};
guideLines = (
{
angle = -99;
position = "{181, 231}";
},
{
angle = -99;
position = "{162, 231}";
}
);
layerId = "075BA79B-D813-4287-A9DD-CCAF2D535ED3";
paths = (
{
closed = 1;
nodes = (
"350 692 LINE",
"137 687 LINE",
"135 672 LINE",
"237 663 LINE",
"231 671 LINE",
"128 21 LINE",
"137 29 LINE",
"31 15 LINE",
"29 0 LINE",
"241 0 LINE",
"243 15 LINE",
"143 29 LINE",
"148 21 LINE",
"251 671 LINE",
"243 663 LINE",
"348 677 LINE"
);
}
);
width = 352;
},
{
anchors = (
{
name = bottom;
position = "{141, 0}";
},
{
name = ogonek;
position = "{225, 0}";
},
{
name = top;
position = "{251, 710}";
},
{
name = topleft;
position = "{82, 710}";
}
);
background = {
anchors = (
{
name = bottom;
position = "{141, 0}";
},
{
name = ogonek;
position = "{213, 0}";
},
{
name = top;
position = "{251, 710}";
},
{
name = topleft;
position = "{82, 710}";
}
);
paths = (
{
closed = 1;
nodes = (
"408 710 LINE",
"95 705 LINE",
"79 605 LINE",
"155 571 LINE",
"136 600 LINE",
"58 105 LINE",
"78 131 LINE",
"-1 100 LINE",
"-16 0 LINE",
"296 0 LINE",
"311 100 LINE",
"241 132 LINE",
"255 105 LINE",
"333 600 LINE",
"310 572 LINE",
"392 610 LINE"
);
}
);
};
guideLines = (
{
angle = -99;
position = "{332, 231}";
},
{
angle = -99;
position = "{20, 231}";
}
);
layerId = "927AED37-E9E6-4F96-A08E-421C3785EFC6";
paths = (
{
closed = 1;
nodes = (
"408 710 LINE",
"95 705 LINE",
"79 605 LINE",
"153 571 LINE",
"134 600 LINE",
"55 105 LINE",
"79 131 LINE",
"-1 100 LINE",
"-17 0 LINE",
"295 0 LINE",
"311 100 LINE",
"242 132 LINE",
"252 105 LINE",
"331 600 LINE",
"309 572 LINE",
"392 610 LINE"
);
}
);
width = 362;
},
{
layerId = "89F00A14-383C-41A8-AF30-A12CE933D7AF";
paths = (
{
closed = 1;
nodes = (
"276 0 LINE",
"286 60 LINE",
"202 80 LINE",
"289 620 LINE",
"377 640 LINE",
"387 700 LINE",
"114 695 LINE",
"105 640 LINE",
"189 620 LINE",
"103 80 LINE",
"13 60 LINE",
"3 0 LINE"
);
}
);
width = 363;
}
);
leftKerningGroup = I;
rightKerningGroup = I;
unicode = 0049;
},
{
color = 1;
glyphname = IJ;
layers = (
{
background = {
components = (
{
alignment = -1;
name = I;
},
{
alignment = -1;
name = J;
transform = "{1, 0, 0, 1, 348, 0}";
}
);
};
components = (
{
alignment = -1;
name = I;
},
{
alignment = -1;
name = J;
transform = "{1, 0, 0, 1, 348, 0}";
}
);
layerId = "075BA79B-D813-4287-A9DD-CCAF2D535ED3";
width = 680;
},
{
background = {
components = (
{
name = I;
},
{
alignment = -1;
name = J;
transform = "{1, 0, 0, 1, 394, 0}";
}
);
};
components = (
{
name = I;
},
{
alignment = -1;
name = J;
transform = "{1, 0, 0, 1, 394, 0}";
}
);
layerId = "927AED37-E9E6-4F96-A08E-421C3785EFC6";
width = 735;
},
{
background = {
paths = (
{
closed = 1;
nodes = (
"412 -150 OFFCURVE",
"491 -75 OFFCURVE",
"510 45 CURVE SMOOTH",
"602 620 LINE",
"689 640 LINE",
"699 700 LINE",
"114 695 LINE",
"105 640 LINE",
"189 620 LINE",
"103 80 LINE",
"13 60 LINE",
"3 0 LINE",
"276 0 LINE",
"286 60 LINE",
"202 80 LINE",
"289 620 LINE",
"397 640 LINE",
"502 620 LINE",
"407 25 LINE",
"398 -35 OFFCURVE",
"366 -70 OFFCURVE",
"303 -70 CURVE SMOOTH",
"254 -70 LINE",
"233 -145 LINE",
"233 -145 OFFCURVE",
"271 -150 OFFCURVE",
"295 -150 CURVE SMOOTH"
);
}
);
};
layerId = "89F00A14-383C-41A8-AF30-A12CE933D7AF";
paths = (
{
closed = 1;
nodes = (
"412 -150 OFFCURVE",
"491 -75 OFFCURVE",
"510 45 CURVE SMOOTH",
"602 620 LINE",
"689 640 LINE",
"699 700 LINE",
"114 695 LINE",
"105 640 LINE",
"189 620 LINE",
"103 80 LINE",
"13 60 LINE",
"3 0 LINE",
"276 0 LINE",
"286 60 LINE",
"202 80 LINE",
"289 620 LINE",
"397 640 LINE",
"502 620 LINE",
"407 25 LINE",
"398 -35 OFFCURVE",
"366 -70 OFFCURVE",
"303 -70 CURVE SMOOTH",
"254 -70 LINE",
"233 -145 LINE",
"233 -145 OFFCURVE",
"271 -150 OFFCURVE",
"295 -150 CURVE SMOOTH"
);
}
);
width = 665;
}
);
leftKerningGroup = I;
leftMetricsKey = I;
rightKerningGroup = J;
rightMetricsKey = J;
unicode = 0132;
},
{
color = 1;
glyphname = Icircumflex;
layers = (
{
background = {
components = (
{
name = I;
},
{
alignment = 1;
name = circumflexcomb.case;
transform = "{1, 0, 0, 1, -40, -1}";
}
);
};
components = (
{
name = I;
},
{
alignment = 1;
name = circumflexcomb.case;
transform = "{1, 0, 0, 1, -62, -1}";
}
);
layerId = "075BA79B-D813-4287-A9DD-CCAF2D535ED3";
width = 352;
},
{
background = {
components = (
{
name = I;
},
{
alignment = 1;
name = circumflexcomb.case;
transform = "{1, 0, 0, 1, -66, 0}";
}
);
};
components = (
{
name = I;
},
{
alignment = 1;
name = circumflexcomb.case;
transform = "{1, 0, 0, 1, -54, 1}";
}
);
layerId = "927AED37-E9E6-4F96-A08E-421C3785EFC6";
width = 362;
},
{
background = {
components = (
{
name = I;
}
);
paths = (
{
closed = 1;
nodes = (
"280 833 LINE",
"390 750 LINE",
"437 795 LINE",
"319 910 LINE",
"260 905 LINE",
"104 795 LINE",
"136 750 LINE"
);
}
);
};
components = (
{
name = I;
}
);
layerId = "89F00A14-383C-41A8-AF30-A12CE933D7AF";
paths = (
{
closed = 1;
nodes = (
"280 833 LINE",
"390 750 LINE",
"437 795 LINE",
"319 910 LINE",
"260 905 LINE",
"104 795 LINE",
"136 750 LINE"
);
}
);
width = 363;
}
);
leftKerningGroup = I;
rightKerningGroup = I;
unicode = 00CE;
},
{
color = 1;
glyphname = Idieresis;
layers = (
{
background = {
components = (
{
name = I;
},
{
name = dieresiscomb.case;
transform = "{1, 0, 0, 1, -40, -1}";
}
);
};
components = (
{
name = I;
},
{
name = dieresiscomb.case;
transform = "{1, 0, 0, 1, -33, -1}";
}
);
layerId = "075BA79B-D813-4287-A9DD-CCAF2D535ED3";
width = 352;
},
{
background = {
components = (
{
name = I;
},
{
name = dieresiscomb.case;
transform = "{1, 0, 0, 1, -55, 0}";
}
);
};
components = (
{
name = I;
},
{
name = dieresiscomb.case;
transform = "{1, 0, 0, 1, -53, 0}";
}
);
layerId = "927AED37-E9E6-4F96-A08E-421C3785EFC6";
width = 362;
},
{
background = {
components = (
{
name = I;
}
);
paths = (
{
closed = 1;
nodes = (
"399 765 OFFCURVE",
"427 799 OFFCURVE",
"427 839 CURVE SMOOTH",
"427 868 OFFCURVE",
"410 885 OFFCURVE",
"381 885 CURVE SMOOTH",
"342 885 OFFCURVE",
"317 850 OFFCURVE",
"317 810 CURVE SMOOTH",
"317 782 OFFCURVE",
"334 765 OFFCURVE",
"362 765 CURVE SMOOTH"
);
},
{
closed = 1;
nodes = (
"207 765 OFFCURVE",
"235 799 OFFCURVE",
"235 839 CURVE SMOOTH",
"235 868 OFFCURVE",
"218 885 OFFCURVE",
"189 885 CURVE SMOOTH",
"150 885 OFFCURVE",
"125 850 OFFCURVE",
"125 810 CURVE SMOOTH",
"125 782 OFFCURVE",
"142 765 OFFCURVE",
"170 765 CURVE SMOOTH"
);
}
);
};
components = (
{
name = I;
}
);
layerId = "89F00A14-383C-41A8-AF30-A12CE933D7AF";
paths = (
{
closed = 1;
nodes = (
"399 765 OFFCURVE",
"427 799 OFFCURVE",
"427 839 CURVE SMOOTH",
"427 868 OFFCURVE",
"410 885 OFFCURVE",
"381 885 CURVE SMOOTH",
"342 885 OFFCURVE",
"317 850 OFFCURVE",
"317 810 CURVE SMOOTH",
"317 782 OFFCURVE",
"334 765 OFFCURVE",
"362 765 CURVE SMOOTH"
);
},
{
closed = 1;
nodes = (
"207 765 OFFCURVE",
"235 799 OFFCURVE",
"235 839 CURVE SMOOTH",
"235 868 OFFCURVE",
"218 885 OFFCURVE",
"189 885 CURVE SMOOTH",
"150 885 OFFCURVE",
"125 850 OFFCURVE",
"125 810 CURVE SMOOTH",
"125 782 OFFCURVE",
"142 765 OFFCURVE",
"170 765 CURVE SMOOTH"
);
}
);
width = 363;
}
);
leftKerningGroup = I;
rightKerningGroup = I;
unicode = 00CF;
},
{
color = 1;
glyphname = Iogonek;
layers = (
{
background = {
components = (
{
name = I;
},
{
alignment = 1;
name = ogonekcomb.case.alt;
transform = "{1, 0, 0, 1, -37, 0}";
}
);
};
components = (
{
name = I;
},
{
alignment = 1;
name = ogonekcomb.case.alt;
transform = "{1, 0, 0, 1, -7, 0}";
}
);
layerId = "075BA79B-D813-4287-A9DD-CCAF2D535ED3";
width = 352;
},
{
background = {
components = (
{
name = I;
},
{
alignment = 1;
name = ogonekcomb.case.alt;
transform = "{1, 0, 0, 1, 32, 0}";
}
);
};
components = (
{
name = I;
},
{
alignment = 1;
name = ogonekcomb.case.alt;
transform = "{1, 0, 0, 1, 38, 0}";
}
);
guideLines = (
{
angle = 90;
position = "{-500, -102}";
},
{
angle = 90;
position = "{-647, -102}";
},
{
angle = 90;
position = "{-691, -102}";
},
{
angle = 90;
position = "{-456, -102}";
},
{
angle = -99;
position = "{224, -69}";
}
);
layerId = "927AED37-E9E6-4F96-A08E-421C3785EFC6";
width = 362;
},
{
background = {
components = (
{
name = I;
}
);
paths = (
{
closed = 1;
nodes = (
"148 -220 OFFCURVE",
"190 -200 OFFCURVE",
"190 -200 CURVE",
"188 -153 LINE",
"188 -153 OFFCURVE",
"162 -160 OFFCURVE",
"142 -160 CURVE SMOOTH",
"120 -160 OFFCURVE",
"104 -147 OFFCURVE",
"104 -124 CURVE SMOOTH",
"104 -57 OFFCURVE",
"235 -13 OFFCURVE",
"276 0 CURVE",
"155 0 LINE",
"125 -14 OFFCURVE",
"24 -55 OFFCURVE",
"24 -145 CURVE SMOOTH",
"24 -193 OFFCURVE",
"61 -220 OFFCURVE",
"109 -220 CURVE SMOOTH"
);
}
);
};
components = (
{
name = I;
}
);
layerId = "89F00A14-383C-41A8-AF30-A12CE933D7AF";
paths = (
{
closed = 1;
nodes = (
"148 -220 OFFCURVE",
"190 -200 OFFCURVE",
"190 -200 CURVE",
"188 -153 LINE",
"188 -153 OFFCURVE",
"162 -160 OFFCURVE",
"142 -160 CURVE SMOOTH",
"120 -160 OFFCURVE",
"104 -147 OFFCURVE",
"104 -124 CURVE SMOOTH",
"104 -57 OFFCURVE",
"235 -13 OFFCURVE",
"276 0 CURVE",
"155 0 LINE",
"125 -14 OFFCURVE",
"24 -55 OFFCURVE",
"24 -145 CURVE SMOOTH",
"24 -193 OFFCURVE",
"61 -220 OFFCURVE",
"109 -220 CURVE SMOOTH"
);
}
);
width = 363;
}
);
leftKerningGroup = I;
rightKerningGroup = I;
unicode = 012E;
},
{
color = 1;
glyphname = Itilde;
layers = (
{
anchors = (
{
name = _top;
position = "{184, 691}";
},
{
name = top;
position = "{176, 829}";
}
);
background = {
anchors = (
{
name = _top;
position = "{184, 691}";
},
{
name = top;
position = "{176, 829}";
}
);
components = (
{
name = I;
},
{
name = tildecomb.case;
transform = "{1, 0, 0, 1, -60, -1}";
}
);
};
components = (
{
name = I;
},
{
name = tildecomb.case;
transform = "{1, 0, 0, 1, -57, -1}";
}
);
layerId = "075BA79B-D813-4287-A9DD-CCAF2D535ED3";
width = 352;
},
{
anchors = (
{
name = _top;
position = "{216, 710}";
},
{
name = top;
position = "{259, 963}";
}
);
background = {
anchors = (
{
name = _top;
position = "{216, 710}";
},
{
name = top;
position = "{259, 963}";
}
);
components = (
{
name = I;
},
{
name = tildecomb.case;
transform = "{1, 0, 0, 1, -55, 0}";
}
);
};
components = (
{
name = I;
},
{
name = tildecomb.case;
transform = "{1, 0, 0, 1, -53, 0}";
}
);
layerId = "927AED37-E9E6-4F96-A08E-421C3785EFC6";
width = 362;
},
{
background = {
components = (
{
name = I;
}
);
paths = (
{
closed = 1;
nodes = (
"104 766 OFFCURVE",
"144 810 OFFCURVE",
"178 810 CURVE SMOOTH",
"237 810 OFFCURVE",
"266 766 OFFCURVE",
"334 766 CURVE SMOOTH",
"403 766 OFFCURVE",
"450 856 OFFCURVE",
"450 856 CURVE",
"420 886 LINE",
"420 886 OFFCURVE",
"392 844 OFFCURVE",
"352 844 CURVE SMOOTH",
"294 844 OFFCURVE",
"264 890 OFFCURVE",
"196 890 CURVE SMOOTH",
"132 890 OFFCURVE",
"75 796 OFFCURVE",
"75 796 CURVE",
"104 766 LINE"
);
}
);
};
components = (
{
name = I;
}
);
layerId = "89F00A14-383C-41A8-AF30-A12CE933D7AF";
paths = (
{
closed = 1;
nodes = (
"104 766 OFFCURVE",
"144 810 OFFCURVE",
"178 810 CURVE SMOOTH",
"237 810 OFFCURVE",
"266 766 OFFCURVE",
"334 766 CURVE SMOOTH",
"403 766 OFFCURVE",
"450 856 OFFCURVE",
"450 856 CURVE",
"420 886 LINE",
"420 886 OFFCURVE",
"392 844 OFFCURVE",
"352 844 CURVE SMOOTH",
"294 844 OFFCURVE",
"264 890 OFFCURVE",
"196 890 CURVE SMOOTH",
"132 890 OFFCURVE",
"75 796 OFFCURVE",
"75 796 CURVE",
"104 766 LINE"
);
}
);
width = 363;
}
);
leftKerningGroup = I;
rightKerningGroup = I;
unicode = 0128;
},
{
color = 1;
glyphname = J;
layers = (
{
anchors = (
{
name = bottom;
position = "{122, 0}";
},
{
name = top;
position = "{229, 691}";
}
);
background = {
paths = (
{
closed = 1;
nodes = (
"118 672 LINE",
"229 663 LINE",
"222 671 LINE",
"117 8 LINE SMOOTH",
"103 -78 OFFCURVE",
"58 -114 OFFCURVE",
"-42 -104 CURVE",
"-45 -122 LINE",
"58 -134 OFFCURVE",
"120 -100 OFFCURVE",
"137 9 CURVE SMOOTH",
"242 671 LINE",
"234 663 LINE",
"339 677 LINE",
"341 692 LINE",
"120 687 LINE"
);
}
);
};
layerId = "075BA79B-D813-4287-A9DD-CCAF2D535ED3";
paths = (
{
closed = 1;
nodes = (
"118 672 LINE",
"229 663 LINE",
"222 671 LINE",
"117 8 LINE SMOOTH",
"104 -75 OFFCURVE",
"62 -106 OFFCURVE",
"-8 -106 CURVE SMOOTH",
"-21 -106 OFFCURVE",
"-31 -105 OFFCURVE",
"-42 -104 CURVE",
"-45 -122 LINE",
"-31 -124 OFFCURVE",
"-18 -125 OFFCURVE",
"-6 -125 CURVE SMOOTH",
"75 -125 OFFCURVE",
"122 -84 OFFCURVE",
"137 9 CURVE SMOOTH",
"242 671 LINE",
"234 663 LINE",
"339 677 LINE",
"341 692 LINE",
"120 687 LINE"
);
}
);
width = 332;
},
{
anchors = (
{
name = bottom;
position = "{123, 0}";
},
{
name = top;
position = "{237, 710}";
}
);
background = {
paths = (
{
closed = 1;
nodes = (
"70 605 LINE",
"143 571 LINE",
"125 600 LINE",
"39 63 LINE SMOOTH",
"25 -24 OFFCURVE",
"-8 -51 OFFCURVE",
"-103 -36 CURVE",
"-135 -175 LINE",
"87 -216 OFFCURVE",
"208 -122 OFFCURVE",
"244 108 CURVE SMOOTH",
"322 600 LINE",
"300 572 LINE",
"383 610 LINE",
"399 710 LINE",
"86 705 LINE"
);
}
);
};
layerId = "927AED37-E9E6-4F96-A08E-421C3785EFC6";
paths = (
{
closed = 1;
nodes = (
"70 605 LINE",
"143 571 LINE",
"125 600 LINE",
"39 63 LINE SMOOTH",
"28 -8 OFFCURVE",
"3 -39 OFFCURVE",
"-61 -39 CURVE SMOOTH",
"-72 -39 OFFCURVE",
"-87 -38 OFFCURVE",
"-103 -35 CURVE",
"-135 -175 LINE",
"-101 -181 OFFCURVE",
"-70 -184 OFFCURVE",
"-41 -184 CURVE SMOOTH",
"122 -184 OFFCURVE",
"213 -87 OFFCURVE",
"244 108 CURVE SMOOTH",
"322 600 LINE",
"300 572 LINE",
"383 610 LINE",
"399 710 LINE",
"86 705 LINE"
);
}
);
width = 341;
},
{
layerId = "89F00A14-383C-41A8-AF30-A12CE933D7AF";
paths = (
{
closed = 1;
nodes = (
"94 -150 OFFCURVE",
"173 -75 OFFCURVE",
"192 45 CURVE SMOOTH",
"284 620 LINE",
"371 640 LINE",
"381 700 LINE",
"108 695 LINE",
"99 640 LINE",
"184 620 LINE",
"89 25 LINE",
"79 -35 OFFCURVE",
"48 -70 OFFCURVE",
"-15 -70 CURVE SMOOTH",
"-64 -70 LINE",
"-85 -145 LINE",
"-85 -145 OFFCURVE",
"-47 -150 OFFCURVE",
"-23 -150 CURVE SMOOTH"
);
}
);
width = 347;
},
{
anchors = (
{
name = bottom;
position = "{122, 0}";
},
{
name = top;
position = "{229, 691}";
}
);
associatedMasterId = "075BA79B-D813-4287-A9DD-CCAF2D535ED3";
background = {
paths = (
{
closed = 1;
nodes = (
"340 692 LINE",
"128 687 LINE",
"126 672 LINE",
"227 663 LINE",
"222 671 LINE",
"119 21 LINE",
"139 21 LINE",
"242 671 LINE",
"233 663 LINE",
"338 677 LINE"
);
},
{
closed = 0;
nodes = (
"121 36 LINE SMOOTH",
"104 -69 OFFCURVE",
"69 -105 OFFCURVE",
"-14 -105 CURVE SMOOTH",
"-22 -105 OFFCURVE",
"-32 -105 OFFCURVE",
"-42 -104 CURVE",
"-45 -122 LINE",
"-33 -123 OFFCURVE",
"-23 -124 OFFCURVE",
"-10 -124 CURVE SMOOTH",
"81 -124 OFFCURVE",
"123 -74 OFFCURVE",
"141 38 CURVE SMOOTH"
);
}
);
};
layerId = "24C54765-D6BF-40CD-99DC-CEF862384CC2";
name = "Aug 6 17, 14:50";
paths = (
{
closed = 1;
nodes = (
"118 672 LINE",
"229 663 LINE",
"222 671 LINE",
"116 4 LINE SMOOTH",
"103 -78 OFFCURVE",
"60 -105 OFFCURVE",
"-14 -105 CURVE SMOOTH",
"-42 -105 LINE",
"-46 -122 LINE",
"-34 -123 OFFCURVE",
"-23 -124 OFFCURVE",
"-10 -124 CURVE SMOOTH",
"52 -124 OFFCURVE",
"119 -105 OFFCURVE",
"136 2 CURVE SMOOTH",
"242 671 LINE",
"234 663 LINE",
"339 677 LINE",
"341 692 LINE",
"120 687 LINE"
);
}
);
width = 332;
},
{
anchors = (
{
name = bottom;
position = "{123, 0}";
},
{
name = top;
position = "{237, 710}";
}
);
associatedMasterId = "927AED37-E9E6-4F96-A08E-421C3785EFC6";
background = {
paths = (
{
closed = 1;
nodes = (
"70 605 LINE",
"143 571 LINE",
"125 600 LINE",
"39 63 LINE SMOOTH",
"27 -13 OFFCURVE",
"-9 -40 OFFCURVE",
"-62 -40 CURVE SMOOTH",
"-103 -40 LINE",
"-135 -175 LINE",
"-124 -177 OFFCURVE",
"-96 -185 OFFCURVE",
"-36 -185 CURVE SMOOTH",
"172 -185 OFFCURVE",
"216 -67 OFFCURVE",
"251 152 CURVE SMOOTH",
"322 600 LINE",
"300 572 LINE",
"383 610 LINE",
"399 710 LINE",
"86 705 LINE"
);
}
);
};
layerId = "2558582E-099D-4C8A-84CC-6E1E2576CF60";
name = "Aug 6 17, 14:54";
paths = (
{
closed = 1;
nodes = (
"70 605 LINE",
"143 571 LINE",
"125 600 LINE",
"39 63 LINE SMOOTH",
"27 -13 OFFCURVE",
"-9 -40 OFFCURVE",
"-62 -40 CURVE SMOOTH",
"-103 -40 LINE",
"-135 -175 LINE",
"-94 -182 OFFCURVE",
"-58 -185 OFFCURVE",
"-26 -185 CURVE SMOOTH",
"156 -185 OFFCURVE",
"214 -79 OFFCURVE",
"248 132 CURVE SMOOTH",
"322 600 LINE",
"300 572 LINE",
"383 610 LINE",
"399 710 LINE",
"86 705 LINE"
);
}
);
width = 341;
}
);
leftKerningGroup = J;
rightKerningGroup = J;
unicode = 004A;
},
{
color = 1;
glyphname = Jcircumflex;
layers = (
{
background = {
components = (
{
name = J;
},
{
name = circumflexcomb.case;
transform = "{1, 0, 0, 1, -56, -1}";
}
);
};
components = (
{
name = J;
},
{
name = circumflexcomb.case;
transform = "{1, 0, 0, 1, -78, -1}";
}
);
layerId = "075BA79B-D813-4287-A9DD-CCAF2D535ED3";
width = 332;
},
{
background = {
components = (
{
name = J;
},
{
name = circumflexcomb.case;
transform = "{1, 0, 0, 1, -81, 0}";
}
);
};
components = (
{
name = J;
},
{
name = circumflexcomb.case;
transform = "{1, 0, 0, 1, -68, 1}";
}
);
layerId = "927AED37-E9E6-4F96-A08E-421C3785EFC6";
width = 341;
},
{
background = {
components = (
{
name = J;
}
);
paths = (
{
closed = 1;
nodes = (
"265 833 LINE",
"375 750 LINE",
"422 795 LINE",
"304 910 LINE",
"245 905 LINE",
"89 795 LINE",
"121 750 LINE"
);
}
);
};
components = (
{
name = J;
}
);
layerId = "89F00A14-383C-41A8-AF30-A12CE933D7AF";
paths = (
{
closed = 1;
nodes = (
"265 833 LINE",
"375 750 LINE",
"422 795 LINE",
"304 910 LINE",
"245 905 LINE",
"89 795 LINE",
"121 750 LINE"
);
}
);
width = 347;
}
);
leftKerningGroup = J;
rightKerningGroup = J;
unicode = 0134;
},
{
color = 1;
glyphname = K;
layers = (
{
anchors = (
{
name = bottom;
position = "{306, 0}";
},
{
name = top;
position = "{419, 692}";
}
);
background = {
paths = (
{
closed = 1;
nodes = (
"347 364 LINE",
"347 353 LINE",
"590 671 LINE",
"578 664 LINE",
"679 678 LINE",
"681 693 LINE",
"473 688 LINE",
"471 673 LINE",
"572 665 LINE",
"568 671 LINE",
"329 358 LINE",
"342 364 LINE",
"192 364 LINE",
"197 356 LINE",
"247 672 LINE",
"239 663 LINE",
"344 677 LINE",
"346 692 LINE",
"133 687 LINE",
"131 672 LINE",
"233 663 LINE",
"227 672 LINE",
"124 21 LINE",
"133 29 LINE",
"27 15 LINE",
"25 0 LINE",
"237 0 LINE",
"239 15 LINE",
"139 29 LINE",
"144 21 LINE",
"197 355 LINE",
"189 345 LINE",
"344 345 LINE",
"333 350 LINE",
"511 23 LINE",
"515 29 LINE",
"414 15 LINE",
"412 0 LINE",
"618 0 LINE",
"620 15 LINE",
"524 29 LINE",
"533 23 LINE"
);
}
);
};
layerId = "075BA79B-D813-4287-A9DD-CCAF2D535ED3";
paths = (
{
closed = 1;
nodes = (
"346 364 LINE",
"346 353 LINE",
"594 671 LINE",
"582 664 LINE",
"683 678 LINE",
"685 693 LINE",
"477 688 LINE",
"475 673 LINE",
"576 665 LINE",
"572 671 LINE",
"328 358 LINE",
"341 364 LINE",
"196 364 LINE",
"201 356 LINE",
"251 672 LINE",
"243 663 LINE",
"348 677 LINE",
"350 692 LINE",
"137 687 LINE",
"135 672 LINE",
"237 663 LINE",
"231 672 LINE",
"128 21 LINE",
"137 29 LINE",
"31 15 LINE",
"29 0 LINE",
"241 0 LINE",
"243 15 LINE",
"143 29 LINE",
"148 21 LINE",
"201 355 LINE",
"193 345 LINE",
"343 345 LINE",
"332 350 LINE",
"522 0 LINE",
"617 0 LINE",
"619 15 LINE",
"523 29 LINE",
"532 23 LINE"
);
}
);
width = 661;
},
{
anchors = (
{
name = bottom;
position = "{327, 0}";
},
{
name = top;
position = "{419, 710}";
}
);
background = {
paths = (
{
closed = 1;
nodes = (
"486 395 LINE",
"479 346 LINE",
"672 607 LINE",
"628 574 LINE",
"712 610 LINE",
"727 710 LINE",
"443 705 LINE",
"428 605 LINE",
"494 580 LINE",
"484 609 LINE",
"342 404 LINE",
"395 439 LINE",
"274 439 LINE",
"297 404 LINE",
"329 616 LINE",
"301 574 LINE",
"381 612 LINE",
"395 710 LINE",
"90 705 LINE",
"75 605 LINE",
"146 575 LINE",
"133 611 LINE",
"55 95 LINE",
"80 132 LINE",
"-1 100 LINE",
"-16 0 LINE",
"288 0 LINE",
"303 100 LINE",
"234 137 LINE",
"250 95 LINE",
"286 329 LINE",
"252 294 LINE",
"356 294 LINE",
"313 329 LINE",
"411 99 LINE",
"419 133 LINE",
"355 100 LINE",
"340 0 LINE",
"643 0 LINE",
"658 100 LINE",
"589 133 LINE",
"633 91 LINE"
);
}
);
};
layerId = "927AED37-E9E6-4F96-A08E-421C3785EFC6";
paths = (
{
closed = 1;
nodes = (
"486 395 LINE",
"482 346 LINE",
"682 607 LINE",
"636 574 LINE",
"722 610 LINE",
"737 710 LINE",
"451 705 LINE",
"436 605 LINE",
"500 580 LINE",
"489 609 LINE",
"341 404 LINE",
"396 439 LINE",
"279 439 LINE",
"300 404 LINE",
"334 616 LINE",
"306 573 LINE",
"388 612 LINE",
"404 710 LINE",
"95 705 LINE",
"79 605 LINE",
"153 571 LINE",
"134 600 LINE",
"55 105 LINE",
"80 132 LINE",
"-1 100 LINE",
"-17 0 LINE",
"291 0 LINE",
"307 100 LINE",
"238 134 LINE",
"252 105 LINE",
"288 329 LINE",
"255 294 LINE",
"356 294 LINE",
"314 329 LINE",
"454 0 LINE",
"647 0 LINE",
"662 100 LINE",
"591 133 LINE",
"634 91 LINE"
);
}
);
width = 698;
},
{
layerId = "89F00A14-383C-41A8-AF30-A12CE933D7AF";
paths = (
{
closed = 1;
nodes = (
"269 0 LINE",
"279 60 LINE",
"194 80 LINE",
"232 320 LINE",
"334 320 LINE",
"464 79 LINE",
"385 60 LINE",
"375 0 LINE",
"635 0 LINE",
"645 60 LINE",
"574 80 LINE",
"417 367 LINE",
"606 620 LINE",
"691 640 LINE",
"701 700 LINE",
"553 695 LINE",
"337 400 LINE",
"245 400 LINE",
"281 620 LINE",
"370 640 LINE",
"380 700 LINE",
"106 695 LINE",
"97 640 LINE",
"181 620 LINE",
"94 80 LINE",
"6 60 LINE",
"-4 0 LINE"
);
}
);
width = 682;
}
);
leftKerningGroup = H;
leftMetricsKey = H;
rightKerningGroup = K;
unicode = 004B;
},
{
color = 1;
glyphname = L;
layers = (
{
anchors = (
{
name = bottom;
position = "{274, 0}";
},
{
name = center;
position = "{462, 357}";
},
{
name = top;
position = "{308, 692}";
},
{
name = topright;
position = "{593, 692}";
}
);
background = {
paths = (
{
closed = 1;
nodes = (
"350 692 LINE",
"138 687 LINE",
"136 672 LINE",
"237 663 LINE",
"232 671 LINE",
"129 21 LINE",
"137 29 LINE",
"32 15 LINE",
"30 0 LINE",
"241 0 LINE",
"243 15 LINE",
"143 29 LINE",
"148 21 LINE",
"251 671 LINE",
"243 663 LINE",
"348 677 LINE"
);
}
);
};
guideLines = (
{
angle = -99;
position = "{501, 231}";
},
{
angle = -99;
position = "{162, 231}";
}
);
layerId = "075BA79B-D813-4287-A9DD-CCAF2D535ED3";
paths = (
{
closed = 1;
nodes = (
"438 12 LINE",
"447 19 LINE",
"141 19 LINE",
"146 9 LINE",
"251 671 LINE",
"243 663 LINE",
"362 677 LINE",
"364 692 LINE",
"137 687 LINE",
"135 672 LINE",
"237 663 LINE",
"231 670 LINE",
"128 21 LINE",
"137 29 LINE",
"31 15 LINE",
"29 0 LINE",
"464 0 LINE",
"487 145 LINE",
"473 145 LINE"
);
}
);
width = 545;
},
{
anchors = (
{
name = bottom;
position = "{247, 0}";
},
{
name = center;
position = "{469, 384}";
},
{
name = top;
position = "{308, 710}";
},
{
name = topright;
position = "{583, 710}";
}
);
background = {
anchors = (
{
name = bottom;
position = "{247, 0}";
},
{
name = center;
position = "{433, 384}";
},
{
name = top;
position = "{298, 710}";
},
{
name = topright;
position = "{583, 710}";
}
);
paths = (
{
closed = 1;
nodes = (
"408 710 LINE",
"95 705 LINE",
"79 605 LINE",
"153 571 LINE",
"134 600 LINE",
"55 105 LINE",
"79 131 LINE",
"-1 100 LINE",
"-17 0 LINE",
"295 0 LINE",
"311 100 LINE",
"242 132 LINE",
"252 105 LINE",
"331 600 LINE",
"309 572 LINE",
"392 610 LINE"
);
}
);
};
guideLines = (
{
angle = -99;
position = "{19, 231}";
},
{
angle = -99;
position = "{524, 231}";
}
);
layerId = "927AED37-E9E6-4F96-A08E-421C3785EFC6";
paths = (
{
closed = 1;
nodes = (
"364 114 LINE",
"395 145 LINE",
"233 145 LINE",
"252 105 LINE",
"331 600 LINE",
"309 572 LINE",
"392 610 LINE",
"408 710 LINE",
"95 705 LINE",
"79 605 LINE",
"153 571 LINE",
"134 600 LINE",
"55 105 LINE",
"79 131 LINE",
"-1 100 LINE",
"-17 0 LINE",
"487 0 LINE",
"524 235 LINE",
"408 235 LINE"
);
}
);
width = 541;
},
{
layerId = "89F00A14-383C-41A8-AF30-A12CE933D7AF";
paths = (
{
closed = 1;
nodes = (
"475 0 LINE",
"508 195 LINE",
"440 195 LINE",
"401 80 LINE",
"195 80 LINE",
"281 620 LINE",
"375 640 LINE",
"385 700 LINE",
"106 695 LINE",
"98 640 LINE",
"181 620 LINE",
"95 80 LINE",
"6 60 LINE",
"-4 0 LINE"
);
}
);
width = 524;
}
);
leftKerningGroup = H;
leftMetricsKey = D;
rightKerningGroup = L;
unicode = 004C;
},
{
color = 1;
glyphname = Lcaron;
layers = (
{
background = {
paths = (
{
closed = 1;
nodes = (
"377 532 LINE",
"428 590 OFFCURVE",
"457 645 OFFCURVE",
"465 695 CURVE",
"434 690 LINE",
"426 640 OFFCURVE",
"408 597 OFFCURVE",
"363 536 CURVE"
);
},
{
closed = 1;
nodes = (
"438 12 LINE",
"446 19 LINE",
"143 19 LINE",
"149 12 LINE",
"253 670 LINE",
"245 662 LINE",
"364 677 LINE",
"366 692 LINE",
"142 687 LINE",
"139 672 LINE",
"240 662 LINE",
"234 670 LINE",
"131 21 LINE",
"139 29 LINE",
"35 15 LINE",
"33 0 LINE",
"464 0 LINE",
"487 145 LINE",
"473 145 LINE"
);
}
);
};
components = (
{
name = L;
transform = "{1, 0, 0, 1, -1, -10}";
}
);
layerId = "075BA79B-D813-4287-A9DD-CCAF2D535ED3";
paths = (
{
closed = 1;
nodes = (
"379 531 LINE",
"431 590 OFFCURVE",
"459 644 OFFCURVE",
"467 694 CURVE",
"437 691 LINE",
"429 641 OFFCURVE",
"411 599 OFFCURVE",
"366 538 CURVE"
);
}
);
width = 554;
},
{
background = {
paths = (
{
closed = 1;
nodes = (
"480 483 LINE",
"553 561 OFFCURVE",
"596 641 OFFCURVE",
"609 714 CURVE",
"474 704 LINE",
"468 647 OFFCURVE",
"461 598 OFFCURVE",
"407 518 CURVE"
);
},
{
closed = 1;
nodes = (
"361 114 LINE",
"391 145 LINE",
"230 145 LINE",
"254 115 LINE",
"332 610 LINE",
"308 573 LINE",
"389 610 LINE",
"405 710 LINE",
"95 705 LINE",
"79 605 LINE",
"151 573 LINE",
"137 610 LINE",
"55 95 LINE",
"81 132 LINE",
"-1 100 LINE",
"-17 0 LINE",
"483 0 LINE",
"520 235 LINE",
"406 235 LINE"
);
}
);
};
components = (
{
name = L;
}
);
guideLines = (
{
angle = 90;
position = "{438, 569}";
}
);
layerId = "927AED37-E9E6-4F96-A08E-421C3785EFC6";
paths = (
{
closed = 1;
nodes = (
"481 482 LINE",
"552 560 OFFCURVE",
"596 635 OFFCURVE",
"609 714 CURVE",
"474 704 LINE",
"468 653 OFFCURVE",
"462 600 OFFCURVE",
"408 520 CURVE"
);
}
);
width = 563;
},
{
background = {
components = (
{
name = L;
},
{
name = caroncomb;
transform = "{1, 0, 0, 1, 377, -80}";
}
);
};
components = (
{
name = L;
},
{
name = caroncomb;
transform = "{1, 0, 0, 1, 377, -80}";
}
);
layerId = "89F00A14-383C-41A8-AF30-A12CE933D7AF";
width = 521;
}
);
leftKerningGroup = H;
leftMetricsKey = L;
rightKerningGroup = L;
unicode = 013D;
},
{
color = 1;
glyphname = Lslash;
layers = (
{
background = {
components = (
{
name = L;
transform = "{1, 0, 0, 1, 31, 0}";
}
);
paths = (
{
closed = 1;
nodes = (
"43 245 LINE",
"379 448 LINE",
"373 465 LINE",
"37 262 LINE"
);
}
);
};
components = (
{
name = L;
transform = "{1, 0, 0, 1, 31, 0}";
}
);
guideLines = (
{
angle = -99;
position = "{137, 484}";
}
);
layerId = "075BA79B-D813-4287-A9DD-CCAF2D535ED3";
paths = (
{
closed = 1;
nodes = (
"99 245 LINE",
"425 443 LINE",
"419 460 LINE",
"93 262 LINE"
);
}
);
width = 576;
},
{
background = {
components = (
{
name = L;
transform = "{1, 0, 0, 1, 7, 0}";
}
);
paths = (
{
closed = 1;
nodes = (
"-29 220 LINE",
"394 414 LINE",
"369 515 LINE",
"-54 321 LINE"
);
}
);
};
components = (
{
name = L;
transform = "{1, 0, 0, 1, 7, 0}";
}
);
guideLines = (
{
angle = -0.7948;
position = "{40, 542}";
},
{
angle = -99;
position = "{67, 484}";
}
);
layerId = "927AED37-E9E6-4F96-A08E-421C3785EFC6";
paths = (
{
closed = 1;
nodes = (
"30 217 LINE",
"439 406 LINE",
"406 510 LINE",
"-3 321 LINE"
);
}
);
width = 548;
},
{
background = {
components = (
{
name = L;
transform = "{1, 0, 0, 1, 9, 0}";
}
);
paths = (
{
closed = 1;
nodes = (
"455 397 LINE",
"446 472 LINE",
"32 308 LINE",
"41 233 LINE"
);
}
);
};
components = (
{
name = L;
transform = "{1, 0, 0, 1, 9, 0}";
}
);
layerId = "89F00A14-383C-41A8-AF30-A12CE933D7AF";
paths = (
{
closed = 1;
nodes = (
"455 397 LINE",
"446 472 LINE",
"32 308 LINE",
"41 233 LINE"
);
}
);
width = 533;
}
);
leftKerningGroup = H;
rightKerningGroup = L;
rightMetricsKey = L;
unicode = 0141;
},
{
color = 1;
glyphname = M;
layers = (
{
anchors = (
{
name = bottom;
position = "{408, 0}";
},
{
name = top;
position = "{517, 692}";
}
);
background = {
paths = (
{
closed = 1;
nodes = (
"896 692 LINE",
"684 687 LINE",
"682 672 LINE",
"783 663 LINE",
"778 671 LINE",
"675 21 LINE",
"683 29 LINE",
"578 15 LINE",
"576 0 LINE",
"787 0 LINE",
"789 15 LINE",
"689 29 LINE",
"694 21 LINE",
"797 671 LINE",
"789 663 LINE",
"894 677 LINE"
);
}
);
};
guideLines = (
{
angle = -99;
position = "{727, 231}";
},
{
angle = -99;
position = "{708, 231}";
}
);
layerId = "075BA79B-D813-4287-A9DD-CCAF2D535ED3";
paths = (
{
closed = 1;
nodes = (
"897 692 LINE",
"774 687 LINE",
"432 197 LINE",
"438 197 LINE",
"258 692 LINE",
"137 687 LINE",
"135 672 LINE",
"237 663 LINE",
"231 671 LINE",
"128 21 LINE",
"137 29 LINE",
"31 15 LINE",
"29 0 LINE",
"241 0 LINE",
"243 15 LINE",
"142 29 LINE",
"147 21 LINE",
"249 665 LINE",
"246 664 LINE",
"423 178 LINE",
"443 182 LINE",
"779 661 LINE",
"777 664 LINE",
"675 21 LINE",
"683 29 LINE",
"578 15 LINE",
"576 0 LINE",
"788 0 LINE",
"790 15 LINE",
"689 29 LINE",
"695 21 LINE",
"798 671 LINE",
"788 663 LINE",
"895 677 LINE"
);
}
);
width = 899;
},
{
anchors = (
{
name = bottom;
position = "{370, 0}";
},
{
name = top;
position = "{483, 710}";
}
);
background = {
anchors = (
{
name = bottom;
position = "{370, 0}";
},
{
name = top;
position = "{483, 710}";
}
);
paths = (
{
closed = 1;
nodes = (
"369 710 LINE",
"56 705 LINE",
"40 605 LINE",
"114 571 LINE",
"95 600 LINE",
"16 105 LINE",
"40 131 LINE",
"-40 100 LINE",
"-56 0 LINE",
"256 0 LINE",
"272 100 LINE",
"203 132 LINE",
"213 105 LINE",
"292 600 LINE",
"270 572 LINE",
"353 610 LINE"
);
},
{
closed = 1;
nodes = (
"867 710 LINE",
"571 705 LINE",
"555 605 LINE",
"629 571 LINE",
"610 600 LINE",
"531 105 LINE",
"555 131 LINE",
"475 100 LINE",
"459 0 LINE",
"754 0 LINE",
"770 100 LINE",
"701 132 LINE",
"711 105 LINE",
"790 600 LINE",
"768 572 LINE",
"851 610 LINE"
);
}
);
};
guideLines = (
{
angle = -99;
position = "{19, 231}";
},
{
angle = -99;
position = "{790, 231}";
}
);
layerId = "927AED37-E9E6-4F96-A08E-421C3785EFC6";
paths = (
{
closed = 1;
nodes = (
"862 710 LINE",
"591 705 LINE",
"421 383 LINE",
"450 383 LINE",
"378 710 LINE",
"95 705 LINE",
"79 605 LINE",
"154 571 LINE",
"134 600 LINE",
"55 105 LINE",
"87 134 LINE",
"-1 100 LINE",
"-17 0 LINE",
"253 0 LINE",
"269 100 LINE",
"203 129 LINE",
"213 105 LINE",
"276 497 LINE",
"239 496 LINE",
"324 178 LINE",
"444 183 LINE",
"626 495 LINE",
"593 496 LINE",
"529 95 LINE",
"567 135 LINE",
"475 100 LINE",
"459 0 LINE",
"749 0 LINE",
"765 100 LINE",
"701 132 LINE",
"711 105 LINE",
"791 605 LINE",
"768 572 LINE",
"846 610 LINE"
);
}
);
width = 819;
},
{
layerId = "89F00A14-383C-41A8-AF30-A12CE933D7AF";
paths = (
{
closed = 1;
nodes = (
"267 0 LINE",
"277 60 LINE",
"189 80 LINE",
"266 560 LINE",
"379 175 LINE",
"461 180 LINE",
"695 556 LINE",
"619 80 LINE",
"535 60 LINE",
"525 0 LINE",
"788 0 LINE",
"798 60 LINE",
"718 80 LINE",
"803 620 LINE",
"888 640 LINE",
"898 700 LINE",
"689 695 LINE",
"445 299 LINE",
"326 700 LINE",
"109 695 LINE",
"100 640 LINE",
"183 620 LINE",
"96 80 LINE",
"8 60 LINE",
"-2 0 LINE"
);
}
);
width = 870;
}
);
leftKerningGroup = M;
rightKerningGroup = M;
unicode = 004D;
},
{
color = 2;
glyphname = N;
layers = (
{
anchors = (
{
name = bottom;
position = "{369, 0}";
},
{
name = top;
position = "{475, 692}";
}
);
background = {
paths = (
{
closed = 1;
nodes = (
"349 692 LINE",
"137 687 LINE",
"135 672 LINE",
"236 663 LINE",
"231 671 LINE",
"128 21 LINE",
"136 29 LINE",
"31 15 LINE",
"29 0 LINE",
"240 0 LINE",
"242 15 LINE",
"142 29 LINE",
"147 21 LINE",
"250 671 LINE",
"242 663 LINE",
"347 677 LINE"
);
},
{
closed = 1;
nodes = (
"813 692 LINE",
"601 687 LINE",
"599 672 LINE",
"700 663 LINE",
"695 671 LINE",
"592 21 LINE",
"600 29 LINE",
"495 15 LINE",
"493 0 LINE",
"704 0 LINE",
"706 15 LINE",
"606 29 LINE",
"611 21 LINE",
"714 671 LINE",
"706 663 LINE",
"811 677 LINE"
);
}
);
};
layerId = "075BA79B-D813-4287-A9DD-CCAF2D535ED3";
paths = (
{
closed = 1;
nodes = (
"599 672 LINE",
"700 663 LINE",
"695 672 LINE",
"594 30 LINE",
"598 31 LINE",
"258 692 LINE",
"137 687 LINE",
"135 672 LINE",
"236 663 LINE",
"231 671 LINE",
"128 21 LINE",
"136 29 LINE",
"31 15 LINE",
"29 0 LINE",
"240 0 LINE",
"242 15 LINE",
"142 29 LINE",
"147 21 LINE",
"250 670 LINE",
"246 669 LINE",
"590 0 LINE",
"608 0 LINE",
"714 671 LINE",
"706 663 LINE",
"811 677 LINE",
"813 692 LINE",
"601 687 LINE"
);
}
);
width = 804;
},
{
anchors = (
{
name = bottom;
position = "{333, 0}";
},
{
name = top;
position = "{450, 710}";
}
);
background = {
anchors = (
{
name = bottom;
position = "{323, 0}";
},
{
name = top;
position = "{440, 710}";
}
);
paths = (
{
closed = 1;
nodes = (
"371 710 LINE",
"95 705 LINE",
"79 605 LINE",
"153 571 LINE",
"134 600 LINE",
"55 105 LINE",
"79 131 LINE",
"-1 100 LINE",
"-17 0 LINE",
"258 0 LINE",
"274 100 LINE",
"205 132 LINE",
"215 105 LINE",
"294 600 LINE",
"272 572 LINE",
"355 610 LINE"
);
},
{
closed = 1;
nodes = (
"779 710 LINE",
"503 705 LINE",
"487 605 LINE",
"561 571 LINE",
"542 600 LINE",
"463 105 LINE",
"487 131 LINE",
"407 100 LINE",
"391 0 LINE",
"666 0 LINE",
"682 100 LINE",
"613 132 LINE",
"623 105 LINE",
"702 600 LINE",
"680 572 LINE",
"763 610 LINE"
);
}
);
};
layerId = "927AED37-E9E6-4F96-A08E-421C3785EFC6";
paths = (
{
closed = 1;
nodes = (
"487 605 LINE",
"561 571 LINE",
"542 600 LINE",
"483 228 LINE",
"507 228 LINE",
"378 710 LINE",
"95 705 LINE",
"79 605 LINE",
"153 571 LINE",
"134 600 LINE",
"55 105 LINE",
"79 131 LINE",
"-1 100 LINE",
"-17 0 LINE",
"255 0 LINE",
"271 100 LINE",
"205 132 LINE",
"215 105 LINE",
"277 495 LINE",
"255 495 LINE",
"392 0 LINE",
"606 0 LINE",
"702 600 LINE",
"680 572 LINE",
"758 610 LINE",
"774 710 LINE",
"503 705 LINE"
);
}
);
width = 720;
},
{
layerId = "89F00A14-383C-41A8-AF30-A12CE933D7AF";
paths = (
{
closed = 1;
nodes = (
"258 0 LINE",
"269 60 LINE",
"187 80 LINE",
"264 563 LINE",
"508 0 LINE",
"621 0 LINE",
"719 620 LINE",
"804 640 LINE",
"814 700 LINE",
"559 695 LINE",
"550 640 LINE",
"630 620 LINE",
"554 141 LINE",
"320 700 LINE",
"110 695 LINE",
"101 640 LINE",
"184 620 LINE",
"98 80 LINE",
"9 60 LINE",
"-2 0 LINE"
);
}
);
width = 780;
}
);
leftKerningGroup = H;
rightKerningGroup = H;
unicode = 004E;
},
{
color = 2;
glyphname = Eng;
layers = (
{
background = {
paths = (
{
closed = 0;
nodes = (
"608 0 LINE",
"714 671 LINE",
"706 663 LINE",
"811 677 LINE",
"813 692 LINE",
"601 687 LINE",
"599 672 LINE",
"700 663 LINE",
"695 672 LINE",
"594 30 LINE",
"598 31 LINE",
"258 692 LINE",
"137 687 LINE",
"135 672 LINE",
"236 663 LINE",
"231 671 LINE",
"128 21 LINE",
"136 29 LINE",
"31 15 LINE",
"29 0 LINE",
"240 0 LINE",
"242 15 LINE",
"142 29 LINE",
"147 21 LINE",
"250 670 LINE",
"246 669 LINE",
"590 0 LINE"
);
},
{
closed = 0;
nodes = (
"576 -77 LINE SMOOTH",
"559 -182 OFFCURVE",
"528 -218 OFFCURVE",
"445 -218 CURVE SMOOTH",
"437 -218 OFFCURVE",
"427 -218 OFFCURVE",
"417 -217 CURVE",
"414 -235 LINE",
"426 -236 OFFCURVE",
"436 -237 OFFCURVE",
"449 -237 CURVE SMOOTH",
"540 -237 OFFCURVE",
"578 -187 OFFCURVE",
"596 -75 CURVE SMOOTH"
);
}
);
};
layerId = "075BA79B-D813-4287-A9DD-CCAF2D535ED3";
paths = (
{
closed = 1;
nodes = (
"576 -77 LINE SMOOTH",
"559 -182 OFFCURVE",
"528 -217 OFFCURVE",
"445 -217 CURVE SMOOTH",
"437 -217 OFFCURVE",
"427 -217 OFFCURVE",
"417 -216 CURVE",
"414 -234 LINE",
"426 -235 OFFCURVE",
"436 -236 OFFCURVE",
"449 -236 CURVE SMOOTH",
"540 -236 OFFCURVE",
"578 -187 OFFCURVE",
"596 -75 CURVE SMOOTH",
"714 671 LINE",
"706 663 LINE",
"811 677 LINE",
"813 692 LINE",
"601 687 LINE",
"599 672 LINE",
"700 663 LINE",
"695 672 LINE",
"594 30 LINE",
"598 31 LINE",
"258 692 LINE",
"137 687 LINE",
"135 672 LINE",
"236 663 LINE",
"231 671 LINE",
"128 21 LINE",
"136 29 LINE",
"31 15 LINE",
"29 0 LINE",
"240 0 LINE",
"242 15 LINE",
"142 29 LINE",
"147 21 LINE",
"250 670 LINE",
"246 669 LINE",
"592 -4 LINE",
"593 26 LINE"
);
}
);
width = 804;
},
{
background = {
paths = (
{
closed = 1;
nodes = (
"414 -13 LINE SMOOTH",
"414 -90 OFFCURVE",
"342 -109 OFFCURVE",
"276 -96 CURVE",
"239 -235 LINE",
"465 -277 OFFCURVE",
"577 -185 OFFCURVE",
"611 30 CURVE SMOOTH",
"702 600 LINE",
"680 572 LINE",
"758 610 LINE",
"774 710 LINE",
"503 705 LINE",
"487 605 LINE",
"561 571 LINE",
"542 600 LINE",
"483 228 LINE",
"520 228 LINE",
"375 710 LINE",
"95 705 LINE",
"79 605 LINE",
"153 571 LINE",
"134 600 LINE",
"55 105 LINE",
"79 131 LINE",
"-1 100 LINE",
"-17 0 LINE",
"255 0 LINE",
"271 100 LINE",
"205 132 LINE",
"215 105 LINE",
"277 495 LINE",
"253 495 LINE",
"431 -53 LINE",
"414 22 LINE"
);
}
);
};
layerId = "927AED37-E9E6-4F96-A08E-421C3785EFC6";
paths = (
{
closed = 1;
nodes = (
"414 -13 LINE SMOOTH",
"414 -75 OFFCURVE",
"366 -100 OFFCURVE",
"315 -100 CURVE SMOOTH",
"300 -100 OFFCURVE",
"288 -98 OFFCURVE",
"276 -96 CURVE",
"239 -235 LINE",
"275 -242 OFFCURVE",
"308 -245 OFFCURVE",
"337 -245 CURVE SMOOTH",
"499 -245 OFFCURVE",
"582 -151 OFFCURVE",
"611 30 CURVE SMOOTH",
"702 600 LINE",
"680 572 LINE",
"758 610 LINE",
"774 710 LINE",
"503 705 LINE",
"487 605 LINE",
"561 571 LINE",
"542 600 LINE",
"483 228 LINE",
"520 228 LINE",
"375 710 LINE",
"95 705 LINE",
"79 605 LINE",
"153 571 LINE",
"134 600 LINE",
"55 105 LINE",
"79 131 LINE",
"-1 100 LINE",
"-17 0 LINE",
"255 0 LINE",
"271 100 LINE",
"205 132 LINE",
"215 105 LINE",
"277 495 LINE",
"253 495 LINE",
"431 -53 LINE",
"414 22 LINE"
);
}
);
width = 716;
},
{
background = {
paths = (
{
closed = 1;
nodes = (
"526 -150 OFFCURVE",
"607 -75 OFFCURVE",
"624 34 CURVE",
"718 620 LINE",
"804 640 LINE",
"813 700 LINE",
"558 695 LINE",
"549 640 LINE",
"629 620 LINE",
"553 141 LINE",
"318 700 LINE",
"109 695 LINE",
"100 640 LINE",
"183 620 LINE",
"97 80 LINE",
"8 60 LINE",
"-2 0 LINE",
"258 0 LINE",
"268 60 LINE",
"185 80 LINE",
"263 561 LINE",
"511 -10 LINE",
"497 -50 OFFCURVE",
"468 -70 OFFCURVE",
"417 -70 CURVE SMOOTH",
"368 -70 LINE",
"348 -145 LINE",
"348 -145 OFFCURVE",
"386 -150 OFFCURVE",
"410 -150 CURVE SMOOTH"
);
}
);
};
layerId = "89F00A14-383C-41A8-AF30-A12CE933D7AF";
paths = (
{
closed = 1;
nodes = (
"526 -150 OFFCURVE",
"607 -75 OFFCURVE",
"624 34 CURVE",
"718 620 LINE",
"804 640 LINE",
"813 700 LINE",
"558 695 LINE",
"549 640 LINE",
"629 620 LINE",
"553 141 LINE",
"318 700 LINE",
"109 695 LINE",
"100 640 LINE",
"183 620 LINE",
"97 80 LINE",
"8 60 LINE",
"-2 0 LINE",
"258 0 LINE",
"268 60 LINE",
"185 80 LINE",
"263 561 LINE",
"511 -10 LINE",
"497 -50 OFFCURVE",
"468 -70 OFFCURVE",
"417 -70 CURVE SMOOTH",
"368 -70 LINE",
"348 -145 LINE",
"348 -145 OFFCURVE",
"386 -150 OFFCURVE",
"410 -150 CURVE SMOOTH"
);
}
);
width = 780;
},
{
associatedMasterId = "927AED37-E9E6-4F96-A08E-421C3785EFC6";
background = {
paths = (
{
closed = 1;
nodes = (
"506 -244 OFFCURVE",
"581 -158 OFFCURVE",
"606 0 CURVE SMOOTH",
"701 611 LINE",
"669 570 LINE",
"770 610 LINE",
"785 710 LINE",
"492 705 LINE",
"477 605 LINE",
"564 570 LINE",
"542 610 LINE",
"488 258 LINE",
"511 258 LINE",
"368 710 LINE",
"78 705 LINE",
"63 605 LINE",
"141 574 LINE",
"129 610 LINE",
"51 95 LINE",
"84 135 LINE",
"-18 100 LINE",
"-33 0 LINE",
"259 0 LINE",
"275 100 LINE",
"187 135 LINE",
"209 95 LINE",
"266 465 LINE",
"244 465 LINE",
"421 -21 LINE",
"418 35 LINE",
"412 -5 LINE SMOOTH",
"402 -69 OFFCURVE",
"358 -99 OFFCURVE",
"306 -99 CURVE SMOOTH",
"265 -99 LINE",
"233 -234 LINE",
"245 -236 OFFCURVE",
"272 -244 OFFCURVE",
"332 -244 CURVE SMOOTH"
);
},
{
closed = 0;
nodes = (
"411 -17 LINE SMOOTH",
"403 -69 OFFCURVE",
"376 -105 OFFCURVE",
"317 -105 CURVE SMOOTH"
);
}
);
};
layerId = "355B9817-8392-47E4-A4FA-850018B6D69A";
name = "Aug 4 17, 20:03";
paths = (
{
closed = 1;
nodes = (
"412 -69 OFFCURVE",
"376 -105 OFFCURVE",
"317 -105 CURVE SMOOTH",
"302 -105 OFFCURVE",
"290 -103 OFFCURVE",
"276 -101 CURVE",
"245 -235 LINE",
"274 -241 OFFCURVE",
"297 -245 OFFCURVE",
"330 -245 CURVE SMOOTH",
"457 -245 OFFCURVE",
"577 -183 OFFCURVE",
"611 30 CURVE SMOOTH",
"702 600 LINE",
"680 572 LINE",
"758 610 LINE",
"774 710 LINE",
"503 705 LINE",
"487 605 LINE",
"561 571 LINE",
"542 600 LINE",
"483 228 LINE",
"511 228 LINE",
"378 710 LINE",
"95 705 LINE",
"79 605 LINE",
"153 571 LINE",
"134 600 LINE",
"55 105 LINE",
"79 131 LINE",
"-1 100 LINE",
"-17 0 LINE",
"255 0 LINE",
"271 100 LINE",
"205 132 LINE",
"215 105 LINE",
"277 495 LINE",
"255 495 LINE",
"420 -53 LINE",
"414 14 LINE"
);
}
);
width = 716;
}
);
leftKerningGroup = H;
leftMetricsKey = N;
rightKerningGroup = J;
rightMetricsKey = J;
unicode = 014A;
},
{
color = 1;
glyphname = O;
layers = (
{
anchors = (
{
name = bottom;
position = "{329, 0}";
},
{
name = center;
position = "{387, 346}";
},
{
name = ogonek;
position = "{383, 0}";
},
{
name = top;
position = "{452, 692}";
},
{
name = topleft;
position = "{90, 692}";
},
{
name = topright;
position = "{641, 650}";
}
);
background = {
paths = (
{
closed = 1;
nodes = (
"232 698 OFFCURVE",
"91 479 OFFCURVE",
"91 256 CURVE SMOOTH",
"91 79 OFFCURVE",
"198 -6 OFFCURVE",
"328 -6 CURVE SMOOTH",
"539 -6 OFFCURVE",
"683 205 OFFCURVE",
"683 435 CURVE SMOOTH",
"683 615 OFFCURVE",
"575 698 OFFCURVE",
"448 698 CURVE SMOOTH"
);
},
{
closed = 1;
nodes = (
"566 678 OFFCURVE",
"661 596 OFFCURVE",
"661 431 CURVE SMOOTH",
"661 219 OFFCURVE",
"528 14 OFFCURVE",
"330 14 CURVE SMOOTH",
"210 14 OFFCURVE",
"113 96 OFFCURVE",
"113 261 CURVE SMOOTH",
"113 473 OFFCURVE",
"248 678 OFFCURVE",
"446 678 CURVE SMOOTH"
);
}
);
};
guideLines = (
{
angle = 90;
position = "{352, 854}";
},
{
angle = 90;
position = "{851, 854}";
},
{
angle = -99;
position = "{437, 661}";
}
);
layerId = "075BA79B-D813-4287-A9DD-CCAF2D535ED3";
paths = (
{
closed = 1;
nodes = (
"542 -6 OFFCURVE",
"683 213 OFFCURVE",
"683 436 CURVE SMOOTH",
"683 613 OFFCURVE",
"576 698 OFFCURVE",
"446 698 CURVE SMOOTH",
"235 698 OFFCURVE",
"91 487 OFFCURVE",
"91 257 CURVE SMOOTH",
"91 77 OFFCURVE",
"199 -6 OFFCURVE",
"326 -6 CURVE SMOOTH"
);
},
{
closed = 1;
nodes = (
"208 14 OFFCURVE",
"112 96 OFFCURVE",
"112 261 CURVE SMOOTH",
"112 473 OFFCURVE",
"246 678 OFFCURVE",
"444 678 CURVE SMOOTH",
"564 678 OFFCURVE",
"662 596 OFFCURVE",
"662 431 CURVE SMOOTH",
"662 219 OFFCURVE",
"526 14 OFFCURVE",
"328 14 CURVE SMOOTH"
);
}
);
width = 747;
},
{
anchors = (
{
name = bottom;
position = "{304, 0}";
},
{
name = center;
position = "{361, 355}";
},
{
name = ogonek;
position = "{413, 0}";
},
{
name = top;
position = "{417, 710}";
},
{
name = topleft;
position = "{95, 710}";
},
{
name = topright;
position = "{622, 679}";
}
);
background = {
paths = (
{
closed = 1;
nodes = (
"556 -15 OFFCURVE",
"693 188 OFFCURVE",
"693 450 CURVE SMOOTH",
"693 624 OFFCURVE",
"595 725 OFFCURVE",
"415 725 CURVE SMOOTH",
"165 725 OFFCURVE",
"29 522 OFFCURVE",
"29 260 CURVE SMOOTH",
"29 84 OFFCURVE",
"122 -15 OFFCURVE",
"306 -15 CURVE SMOOTH"
);
},
{
closed = 1;
nodes = (
"265 140 OFFCURVE",
"235 171 OFFCURVE",
"235 246 CURVE SMOOTH",
"235 391 OFFCURVE",
"276 570 OFFCURVE",
"403 570 CURVE SMOOTH",
"458 570 OFFCURVE",
"487 539 OFFCURVE",
"487 464 CURVE SMOOTH",
"487 309 OFFCURVE",
"447 140 OFFCURVE",
"320 140 CURVE SMOOTH"
);
}
);
};
guideLines = (
{
angle = 90;
position = "{553, 764}";
}
);
layerId = "927AED37-E9E6-4F96-A08E-421C3785EFC6";
paths = (
{
closed = 1;
nodes = (
"598 -15 OFFCURVE",
"694 241 OFFCURVE",
"694 434 CURVE SMOOTH",
"694 616 OFFCURVE",
"609 725 OFFCURVE",
"418 725 CURVE SMOOTH",
"127 725 OFFCURVE",
"30 471 OFFCURVE",
"30 277 CURVE SMOOTH",
"30 96 OFFCURVE",
"114 -15 OFFCURVE",
"306 -15 CURVE SMOOTH"
);
},
{
closed = 1;
nodes = (
"269 140 OFFCURVE",
"238 176 OFFCURVE",
"238 270 CURVE SMOOTH",
"238 362 OFFCURVE",
"265 570 OFFCURVE",
"402 570 CURVE SMOOTH",
"456 570 OFFCURVE",
"486 536 OFFCURVE",
"486 442 CURVE SMOOTH",
"486 350 OFFCURVE",
"457 140 OFFCURVE",
"324 140 CURVE SMOOTH"
);
}
);
width = 697;
},
{
layerId = "89F00A14-383C-41A8-AF30-A12CE933D7AF";
paths = (
{
closed = 1;
nodes = (
"528 -10 OFFCURVE",
"703 173 OFFCURVE",
"703 465 CURVE SMOOTH",
"703 609 OFFCURVE",
"612 710 OFFCURVE",
"450 710 CURVE SMOOTH",
"227 710 OFFCURVE",
"58 516 OFFCURVE",
"58 234 CURVE SMOOTH",
"58 83 OFFCURVE",
"150 -10 OFFCURVE",
"299 -10 CURVE SMOOTH"
);
},
{
closed = 1;
nodes = (
"227 75 OFFCURVE",
"168 132 OFFCURVE",
"168 244 CURVE SMOOTH",
"168 448 OFFCURVE",
"272 625 OFFCURVE",
"433 625 CURVE SMOOTH",
"528 625 OFFCURVE",
"593 574 OFFCURVE",
"593 452 CURVE SMOOTH",
"593 238 OFFCURVE",
"481 75 OFFCURVE",
"321 75 CURVE SMOOTH"
);
}
);
width = 735;
},
{
anchors = (
{
name = bottom;
position = "{299, 0}";
},
{
name = center;
position = "{356, 355}";
},
{
name = ogonek;
position = "{393, 0}";
},
{
name = top;
position = "{412, 710}";
},
{
name = topleft;
position = "{90, 710}";
},
{
name = topright;
position = "{617, 679}";
}
);
associatedMasterId = "927AED37-E9E6-4F96-A08E-421C3785EFC6";
background = {
anchors = (
{
name = bottom;
position = "{299, 0}";
},
{
name = center;
position = "{356, 355}";
},
{
name = ogonek;
position = "{393, 0}";
},
{
name = top;
position = "{412, 710}";
},
{
name = topleft;
position = "{90, 710}";
},
{
name = topright;
position = "{617, 679}";
}
);
paths = (
{
closed = 1;
nodes = (
"495 -15 OFFCURVE",
"645 133 OFFCURVE",
"682 370 CURVE SMOOTH",
"718 594 OFFCURVE",
"628 725 OFFCURVE",
"422 725 CURVE SMOOTH",
"215 725 OFFCURVE",
"70 595 OFFCURVE",
"30 344 CURVE SMOOTH",
"-6 113 OFFCURVE",
"81 -15 OFFCURVE",
"281 -15 CURVE SMOOTH"
);
},
{
closed = 1;
nodes = (
"239 140 OFFCURVE",
"218 193 OFFCURVE",
"243 351 CURVE SMOOTH",
"271 531 OFFCURVE",
"316 570 OFFCURVE",
"389 570 CURVE SMOOTH",
"469 570 OFFCURVE",
"496 524 OFFCURVE",
"470 362 CURVE SMOOTH",
"441 182 OFFCURVE",
"392 140 OFFCURVE",
"320 140 CURVE SMOOTH"
);
}
);
};
guideLines = (
{
angle = 90;
position = "{548, 764}";
}
);
layerId = "522D3B76-50CC-432F-9713-5836DC30231A";
name = "Jun 27 17, 18:24";
paths = (
{
closed = 1;
nodes = (
"499 -15 OFFCURVE",
"644 127 OFFCURVE",
"680 357 CURVE SMOOTH",
"717 588 OFFCURVE",
"624 725 OFFCURVE",
"413 725 CURVE SMOOTH",
"211 725 OFFCURVE",
"71 601 OFFCURVE",
"32 357 CURVE SMOOTH",
"-5 119 OFFCURVE",
"85 -15 OFFCURVE",
"290 -15 CURVE SMOOTH"
);
},
{
closed = 1;
nodes = (
"234 140 OFFCURVE",
"217 187 OFFCURVE",
"241 338 CURVE SMOOTH",
"270 525 OFFCURVE",
"320 570 OFFCURVE",
"398 570 CURVE SMOOTH",
"474 570 OFFCURVE",
"497 530 OFFCURVE",
"472 375 CURVE SMOOTH",
"442 188 OFFCURVE",
"387 140 OFFCURVE",
"311 140 CURVE SMOOTH"
);
}
);
width = 683;
},
{
anchors = (
{
name = bottom;
position = "{333, 0}";
},
{
name = center;
position = "{388, 346}";
},
{
name = ogonek;
position = "{384, 0}";
},
{
name = top;
position = "{442, 692}";
},
{
name = topleft;
position = "{91, 692}";
},
{
name = topright;
position = "{642, 650}";
}
);
associatedMasterId = "075BA79B-D813-4287-A9DD-CCAF2D535ED3";
guideLines = (
{
angle = 90;
position = "{353, 854}";
},
{
angle = 90;
position = "{852, 854}";
},
{
angle = 90;
position = "{461, 661}";
}
);
layerId = "5B75C816-DD6E-459D-B38C-6193724B8FFF";
name = "Jul 3 17, 17:50";
paths = (
{
closed = 1;
nodes = (
"487 -6 OFFCURVE",
"641 124 OFFCURVE",
"677 356 CURVE SMOOTH",
"713 587 OFFCURVE",
"595 698 OFFCURVE",
"447 698 CURVE SMOOTH",
"292 698 OFFCURVE",
"136 576 OFFCURVE",
"99 342 CURVE SMOOTH",
"61 103 OFFCURVE",
"181 -6 OFFCURVE",
"327 -6 CURVE SMOOTH"
);
},
{
closed = 1;
nodes = (
"191 14 OFFCURVE",
"85 123 OFFCURVE",
"120 341 CURVE SMOOTH",
"156 567 OFFCURVE",
"305 678 OFFCURVE",
"445 678 CURVE SMOOTH",
"583 678 OFFCURVE",
"690 570 OFFCURVE",
"656 354 CURVE SMOOTH",
"621 132 OFFCURVE",
"473 14 OFFCURVE",
"329 14 CURVE SMOOTH"
);
}
);
width = 747;
}
);
leftKerningGroup = O;
rightKerningGroup = O;
unicode = 004F;
},
{
color = 1;
glyphname = Ocircumflexacute;
layers = (
{
background = {
components = (
{
name = O;
},
{
name = circumflexcomb_acutecomb.case;
transform = "{1, 0, 0, 1, 143, 0}";
}
);
};
components = (
{
name = O;
},
{
name = circumflexcomb_acutecomb.case;
transform = "{1, 0, 0, 1, 149, 0}";
}
);
layerId = "075BA79B-D813-4287-A9DD-CCAF2D535ED3";
width = 747;
},
{
background = {
paths = (
{
closed = 1;
nodes = (
"500 -15 OFFCURVE",
"649 133 OFFCURVE",
"687 370 CURVE SMOOTH",
"723 594 OFFCURVE",
"634 725 OFFCURVE",
"429 725 CURVE SMOOTH",
"224 725 OFFCURVE",
"80 595 OFFCURVE",
"40 344 CURVE SMOOTH",
"3 113 OFFCURVE",
"90 -15 OFFCURVE",
"288 -15 CURVE SMOOTH"
);
},
{
closed = 1;
nodes = (
"247 140 OFFCURVE",
"226 193 OFFCURVE",
"251 351 CURVE SMOOTH",
"279 531 OFFCURVE",
"323 570 OFFCURVE",
"396 570 CURVE SMOOTH",
"476 570 OFFCURVE",
"502 524 OFFCURVE",
"476 362 CURVE SMOOTH",
"447 182 OFFCURVE",
"398 140 OFFCURVE",
"327 140 CURVE SMOOTH"
);
},
{
closed = 1;
nodes = (
"508 862 LINE",
"374 864 LINE",
"567 732 LINE",
"641 808 LINE",
"507 961 LINE",
"399 950 LINE",
"232 808 LINE",
"279 732 LINE"
);
},
{
closed = 1;
nodes = (
"841 994 LINE",
"770 1101 LINE",
"580 941 LINE",
"635 859 LINE"
);
}
);
};
components = (
{
name = O;
},
{
name = circumflexcomb_acutecomb.case;
transform = "{1, 0, 0, 1, 112, 0}";
}
);
layerId = "927AED37-E9E6-4F96-A08E-421C3785EFC6";
width = 697;
},
{
background = {
components = (
{
name = O;
},
{
name = circumflexcomb_acutecomb.case;
transform = "{1, 0, 0, 1, 168, 0}";
}
);
};
components = (
{
name = O;
},
{
name = circumflexcomb_acutecomb.case;
transform = "{1, 0, 0, 1, 168, 0}";
}
);
layerId = "89F00A14-383C-41A8-AF30-A12CE933D7AF";
width = 735;
}
);
leftKerningGroup = O;
rightKerningGroup = O;
unicode = 1ED0;
},
{
color = 1;
glyphname = Ohorn;
layers = (
{
background = {
paths = (
{
closed = 1;
nodes = (
"658 637 OFFCURVE",
"689 665 OFFCURVE",
"696 712 CURVE SMOOTH",
"699 732 OFFCURVE",
"699 755 OFFCURVE",
"693 782 CURVE",
"672 775 LINE",
"676 750 OFFCURVE",
"677 729 OFFCURVE",
"674 712 CURVE SMOOTH",
"666 669 OFFCURVE",
"640 650 OFFCURVE",
"596 650 CURVE",
"555 682 OFFCURVE",
"503 698 OFFCURVE",
"448 698 CURVE SMOOTH",
"297 698 OFFCURVE",
"140 581 OFFCURVE",
"102 341 CURVE SMOOTH",
"65 107 OFFCURVE",
"178 -6 OFFCURVE",
"325 -6 CURVE SMOOTH",
"482 -6 OFFCURVE",
"638 123 OFFCURVE",
"676 357 CURVE SMOOTH",
"697 487 OFFCURVE",
"668 577 OFFCURVE",
"615 632 CURVE"
);
},
{
closed = 1;
nodes = (
"193 14 OFFCURVE",
"88 121 OFFCURVE",
"123 342 CURVE SMOOTH",
"159 568 OFFCURVE",
"304 678 OFFCURVE",
"444 678 CURVE SMOOTH",
"582 678 OFFCURVE",
"689 570 OFFCURVE",
"654 353 CURVE SMOOTH",
"618 129 OFFCURVE",
"470 14 OFFCURVE",
"329 14 CURVE SMOOTH"
);
}
);
};
components = (
{
name = O;
},
{
name = horncomb.case;
transform = "{1, 0, 0, 1, 455, -42}";
}
);
layerId = "075BA79B-D813-4287-A9DD-CCAF2D535ED3";
width = 747;
},
{
background = {
components = (
{
alignment = -1;
name = O;
},
{
name = horncomb.case;
transform = "{1, 0, 0, 1, 500, -31}";
}
);
};
components = (
{
name = O;
},
{
alignment = 1;
name = horncomb.case;
transform = "{1, 0, 0, 1, 486, -31}";
}
);
layerId = "927AED37-E9E6-4F96-A08E-421C3785EFC6";
width = 697;
},
{
background = {
components = (
{
name = O;
},
{
name = horncomb;
transform = "{1, 0, 0, 1, 427, 170}";
}
);
};
components = (
{
name = O;
},
{
name = horncomb;
transform = "{1, 0, 0, 1, 427, 170}";
}
);
layerId = "89F00A14-383C-41A8-AF30-A12CE933D7AF";
width = 735;
}
);
leftKerningGroup = O;
leftMetricsKey = O;
rightKerningGroup = O;
unicode = 01A0;
},
{
color = 1;
glyphname = Oslash;
layers = (
{
background = {
components = (
{
name = O;
transform = "{1, 0, 0, 1, 8, 0}";
}
);
guideLines = (
{
angle = 90;
position = "{393, 592}";
}
);
paths = (
{
closed = 1;
nodes = (
"29 -59 LINE",
"44 -70 LINE",
"673 752 LINE",
"658 762 LINE"
);
}
);
};
components = (
{
name = O;
}
);
guideLines = (
{
angle = -99;
position = "{421, 592}";
},
{
position = "{84, 346}";
}
);
layerId = "075BA79B-D813-4287-A9DD-CCAF2D535ED3";
paths = (
{
closed = 1;
nodes = (
"61 -59 LINE",
"76 -70 LINE",
"705 752 LINE",
"690 762 LINE"
);
}
);
width = 747;
},
{
components = (
{
name = O;
}
);
guideLines = (
{
position = "{-82, 355}";
},
{
angle = -99;
position = "{399, 592}";
}
);
layerId = "927AED37-E9E6-4F96-A08E-421C3785EFC6";
paths = (
{
closed = 1;
nodes = (
"2 -22 LINE",
"95 -83 LINE",
"712 729 LINE",
"620 790 LINE"
);
}
);
width = 697;
},
{
layerId = "89F00A14-383C-41A8-AF30-A12CE933D7AF";
paths = (
{
closed = 1;
nodes = (
"175 19 LINE",
"210 0 OFFCURVE",
"252 -10 OFFCURVE",
"300 -10 CURVE SMOOTH",
"529 -10 OFFCURVE",
"699 173 OFFCURVE",
"699 475 CURVE SMOOTH",
"699 541 OFFCURVE",
"678 598 OFFCURVE",
"638 639 CURVE",
"721 750 LINE",
"664 785 LINE",
"585 679 LINE",
"548 699 OFFCURVE",
"503 710 OFFCURVE",
"451 710 CURVE SMOOTH",
"228 710 OFFCURVE",
"64 516 OFFCURVE",
"64 234 CURVE SMOOTH",
"64 162 OFFCURVE",
"85 103 OFFCURVE",
"122 61 CURVE",
"24 -70 LINE",
"82 -105 LINE"
);
},
{
closed = 1;
nodes = (
"287 75 OFFCURVE",
"257 82 OFFCURVE",
"233 98 CURVE",
"575 554 LINE",
"587 530 OFFCURVE",
"594 500 OFFCURVE",
"594 462 CURVE SMOOTH",
"594 238 OFFCURVE",
"482 75 OFFCURVE",
"322 75 CURVE SMOOTH"
);
},
{
closed = 1;
nodes = (
"176 174 OFFCURVE",
"169 206 OFFCURVE",
"169 244 CURVE SMOOTH",
"169 448 OFFCURVE",
"273 625 OFFCURVE",
"434 625 CURVE SMOOTH",
"470 625 OFFCURVE",
"503 619 OFFCURVE",
"528 604 CURVE",
"188 149 LINE"
);
}
);
width = 735;
}
);
leftKerningGroup = O;
rightKerningGroup = O;
unicode = 00D8;
},
{
color = 1;
glyphname = OE;
layers = (
{
anchors = (
{
name = bottom;
position = "{418, 0}";
},
{
name = top;
position = "{527, 692}";
}
);
background = {
anchors = (
{
name = bottom;
position = "{333, 0}";
},
{
name = center;
position = "{388, 346}";
},
{
name = ogonek;
position = "{384, 0}";
},
{
name = top;
position = "{442, 692}";
},
{
name = topleft;
position = "{91, 692}";
},
{
name = topright;
position = "{642, 650}";
}
);
paths = (
{
closed = 1;
nodes = (
"543 -2 OFFCURVE",
"684 213 OFFCURVE",
"684 436 CURVE SMOOTH",
"684 609 OFFCURVE",
"577 694 OFFCURVE",
"447 694 CURVE SMOOTH",
"236 694 OFFCURVE",
"92 483 OFFCURVE",
"92 257 CURVE SMOOTH",
"92 81 OFFCURVE",
"200 -2 OFFCURVE",
"327 -2 CURVE SMOOTH"
);
},
{
closed = 1;
nodes = (
"209 18 OFFCURVE",
"113 100 OFFCURVE",
"113 261 CURVE SMOOTH",
"113 469 OFFCURVE",
"247 674 OFFCURVE",
"445 674 CURVE SMOOTH",
"565 674 OFFCURVE",
"663 592 OFFCURVE",
"663 431 CURVE SMOOTH",
"663 219 OFFCURVE",
"527 18 OFFCURVE",
"329 18 CURVE SMOOTH"
);
}
);
};
layerId = "075BA79B-D813-4287-A9DD-CCAF2D535ED3";
paths = (
{
closed = 1;
nodes = (
"360 -2 OFFCURVE",
"408 0 OFFCURVE",
"422 0 CURVE SMOOTH",
"785 0 LINE",
"807 141 LINE",
"793 141 LINE",
"758 12 LINE",
"767 19 LINE",
"432 19 LINE",
"438 12 LINE",
"493 366 LINE",
"486 359 LINE",
"764 359 LINE",
"767 378 LINE",
"489 378 LINE",
"495 371 LINE",
"543 680 LINE",
"535 673 LINE",
"858 673 LINE",
"851 680 LINE",
"846 556 LINE",
"861 556 LINE",
"882 692 LINE",
"546 692 LINE SMOOTH",
"529 692 OFFCURVE",
"474 694 OFFCURVE",
"453 694 CURVE SMOOTH",
"223 694 OFFCURVE",
"92 482 OFFCURVE",
"92 263 CURVE SMOOTH",
"92 74 OFFCURVE",
"198 -2 OFFCURVE",
"337 -2 CURVE SMOOTH"
);
},
{
closed = 1;
nodes = (
"422 21 LINE",
"405 19 OFFCURVE",
"373 17 OFFCURVE",
"350 17 CURVE SMOOTH",
"204 17 OFFCURVE",
"113 96 OFFCURVE",
"113 265 CURVE SMOOTH",
"113 467 OFFCURVE",
"234 675 OFFCURVE",
"453 675 CURVE SMOOTH",
"474 675 OFFCURVE",
"514 673 OFFCURVE",
"527 672 CURVE",
"524 679 LINE",
"419 14 LINE"
);
}
);
width = 918;
},
{
anchors = (
{
name = bottom;
position = "{412, 0}";
},
{
name = top;
position = "{525, 710}";
}
);
background = {
anchors = (
{
name = bottom;
position = "{314, 0}";
},
{
name = center;
position = "{371, 355}";
},
{
name = ogonek;
position = "{408, 0}";
},
{
name = top;
position = "{427, 710}";
},
{
name = topleft;
position = "{105, 710}";
},
{
name = topright;
position = "{632, 679}";
}
);
components = (
{
name = E;
transform = "{1, 0, 0, 1, 340, 0}";
}
);
paths = (
{
closed = 1;
nodes = (
"600 -7 OFFCURVE",
"697 241 OFFCURVE",
"697 433 CURVE SMOOTH",
"697 607 OFFCURVE",
"609 716 OFFCURVE",
"420 716 CURVE SMOOTH",
"131 716 OFFCURVE",
"33 472 OFFCURVE",
"33 278 CURVE SMOOTH",
"33 104 OFFCURVE",
"120 -7 OFFCURVE",
"311 -7 CURVE SMOOTH"
);
},
{
closed = 1;
nodes = (
"272 148 OFFCURVE",
"241 183 OFFCURVE",
"241 270 CURVE SMOOTH",
"241 361 OFFCURVE",
"271 561 OFFCURVE",
"404 561 CURVE SMOOTH",
"459 561 OFFCURVE",
"489 527 OFFCURVE",
"489 442 CURVE SMOOTH",
"489 349 OFFCURVE",
"459 148 OFFCURVE",
"328 148 CURVE SMOOTH"
);
}
);
};
guideLines = (
{
position = "{736, 565}";
},
{
position = "{389, 145}";
}
);
layerId = "927AED37-E9E6-4F96-A08E-421C3785EFC6";
paths = (
{
closed = 1;
nodes = (
"359 -7 OFFCURVE",
"468 0 OFFCURVE",
"517 0 CURVE SMOOTH",
"834 0 LINE",
"869 211 LINE",
"753 211 LINE",
"716 115 LINE",
"757 145 LINE",
"574 145 LINE",
"593 106 LINE",
"628 325 LINE",
"594 295 LINE",
"791 295 LINE",
"813 430 LINE",
"619 430 LINE",
"640 401 LINE",
"671 595 LINE",
"637 565 LINE",
"801 565 LINE",
"781 591 LINE",
"791 508 LINE",
"905 508 LINE",
"937 710 LINE",
"682 710 LINE SMOOTH",
"648 710 OFFCURVE",
"497 716 OFFCURVE",
"444 716 CURVE SMOOTH",
"156 716 OFFCURVE",
"33 531 OFFCURVE",
"33 298 CURVE SMOOTH",
"33 88 OFFCURVE",
"127 -7 OFFCURVE",
"310 -7 CURVE SMOOTH"
);
},
{
closed = 1;
nodes = (
"436 160 LINE",
"397 152 OFFCURVE",
"364 147 OFFCURVE",
"338 147 CURVE SMOOTH",
"269 147 OFFCURVE",
"241 181 OFFCURVE",
"241 290 CURVE SMOOTH",
"241 452 OFFCURVE",
"302 564 OFFCURVE",
"421 564 CURVE SMOOTH",
"451 564 OFFCURVE",
"484 557 OFFCURVE",
"520 543 CURVE",
"476 606 LINE",
"395 102 LINE"
);
}
);
width = 910;
},
{
layerId = "89F00A14-383C-41A8-AF30-A12CE933D7AF";
paths = (
{
closed = 1;
nodes = (
"347 -10 OFFCURVE",
"418 0 OFFCURVE",
"456 0 CURVE SMOOTH",
"812 0 LINE",
"843 182 LINE",
"777 182 LINE",
"740 80 LINE",
"513 80 LINE",
"552 325 LINE",
"780 325 LINE",
"792 405 LINE",
"564 405 LINE",
"599 620 LINE",
"820 620 LINE",
"830 530 LINE",
"886 530 LINE",
"913 700 LINE",
"580 700 LINE SMOOTH",
"545 700 OFFCURVE",
"500 710 OFFCURVE",
"447 710 CURVE SMOOTH",
"229 710 OFFCURVE",
"60 526 OFFCURVE",
"60 244 CURVE SMOOTH",
"60 93 OFFCURVE",
"152 -10 OFFCURVE",
"296 -10 CURVE SMOOTH"
);
},
{
closed = 1;
nodes = (
"224 75 OFFCURVE",
"165 132 OFFCURVE",
"165 244 CURVE SMOOTH",
"165 448 OFFCURVE",
"269 625 OFFCURVE",
"430 625 CURVE SMOOTH",
"470 625 OFFCURVE",
"499 620 OFFCURVE",
"499 620 CURVE",
"413 80 LINE",
"413 80 OFFCURVE",
"357 75 OFFCURVE",
"318 75 CURVE SMOOTH"
);
}
);
width = 911;
},
{
associatedMasterId = "927AED37-E9E6-4F96-A08E-421C3785EFC6";
background = {
paths = (
{
closed = 1;
nodes = (
"339 -7 OFFCURVE",
"460 0 OFFCURVE",
"503 0 CURVE SMOOTH",
"820 0 LINE",
"855 211 LINE",
"740 211 LINE",
"702 115 LINE",
"742 145 LINE",
"562 145 LINE",
"586 115 LINE",
"620 325 LINE",
"586 295 LINE",
"777 295 LINE",
"799 430 LINE",
"607 430 LINE",
"632 400 LINE",
"662 595 LINE",
"629 565 LINE",
"797 565 LINE",
"766 591 LINE",
"775 508 LINE",
"891 508 LINE",
"923 710 LINE",
"677 710 LINE SMOOTH",
"637 710 OFFCURVE",
"492 716 OFFCURVE",
"441 716 CURVE SMOOTH",
"214 716 OFFCURVE",
"73 601 OFFCURVE",
"33 346 CURVE SMOOTH",
"-4 112 OFFCURVE",
"80 -7 OFFCURVE",
"288 -7 CURVE SMOOTH"
);
},
{
closed = 1;
nodes = (
"428 159 LINE",
"421 157 OFFCURVE",
"370 147 OFFCURVE",
"328 147 CURVE SMOOTH",
"242 147 OFFCURVE",
"219 190 OFFCURVE",
"245 352 CURVE SMOOTH",
"274 534 OFFCURVE",
"315 561 OFFCURVE",
"397 561 CURVE SMOOTH",
"449 561 OFFCURVE",
"466 550 OFFCURVE",
"516 556 CURVE",
"467 606 LINE",
"388 103 LINE"
);
}
);
};
layerId = "FDC3AA23-EC05-4805-B7C7-510C803F412D";
name = "Aug 1 17, 19:50";
paths = (
{
closed = 1;
nodes = (
"343 -7 OFFCURVE",
"464 0 OFFCURVE",
"507 0 CURVE SMOOTH",
"820 0 LINE",
"855 211 LINE",
"739 211 LINE",
"702 115 LINE",
"743 145 LINE",
"564 145 LINE",
"588 115 LINE",
"618 325 LINE",
"584 295 LINE",
"777 295 LINE",
"799 430 LINE",
"609 430 LINE",
"633 400 LINE",
"661 595 LINE",
"627 565 LINE",
"796 565 LINE",
"766 591 LINE",
"776 508 LINE",
"891 508 LINE",
"923 710 LINE",
"672 710 LINE SMOOTH",
"633 710 OFFCURVE",
"488 716 OFFCURVE",
"432 716 CURVE SMOOTH",
"210 716 OFFCURVE",
"74 607 OFFCURVE",
"35 359 CURVE SMOOTH",
"-3 118 OFFCURVE",
"85 -7 OFFCURVE",
"297 -7 CURVE SMOOTH"
);
},
{
closed = 1;
nodes = (
"426 160 LINE",
"417 158 OFFCURVE",
"365 147 OFFCURVE",
"319 147 CURVE SMOOTH",
"238 147 OFFCURVE",
"218 184 OFFCURVE",
"243 339 CURVE SMOOTH",
"273 528 OFFCURVE",
"320 561 OFFCURVE",
"406 561 CURVE SMOOTH",
"453 561 OFFCURVE",
"471 549 OFFCURVE",
"520 555 CURVE",
"466 606 LINE",
"389 103 LINE"
);
}
);
width = 896;
},
{
associatedMasterId = "075BA79B-D813-4287-A9DD-CCAF2D535ED3";
background = {
paths = (
{
closed = 1;
nodes = (
"355 -2 OFFCURVE",
"404 0 OFFCURVE",
"420 0 CURVE SMOOTH",
"784 0 LINE",
"806 141 LINE",
"792 141 LINE",
"757 12 LINE",
"766 19 LINE",
"431 19 LINE",
"437 12 LINE",
"493 366 LINE",
"485 359 LINE",
"763 359 LINE",
"766 378 LINE",
"488 378 LINE",
"493 371 LINE",
"542 680 LINE",
"534 673 LINE",
"857 673 LINE",
"850 680 LINE",
"845 556 LINE",
"860 556 LINE",
"881 692 LINE",
"545 692 LINE SMOOTH",
"528 692 OFFCURVE",
"472 694 OFFCURVE",
"446 694 CURVE SMOOTH",
"287 694 OFFCURVE",
"136 580 OFFCURVE",
"98 340 CURVE SMOOTH",
"61 107 OFFCURVE",
"169 -2 OFFCURVE",
"320 -2 CURVE SMOOTH"
);
},
{
closed = 1;
nodes = (
"422 21 LINE",
"405 19 OFFCURVE",
"356 18 OFFCURVE",
"331 18 CURVE SMOOTH",
"180 18 OFFCURVE",
"84 120 OFFCURVE",
"119 340 CURVE SMOOTH",
"155 567 OFFCURVE",
"293 674 OFFCURVE",
"446 674 CURVE SMOOTH",
"467 674 OFFCURVE",
"512 673 OFFCURVE",
"526 672 CURVE",
"523 679 LINE",
"418 14 LINE"
);
}
);
};
layerId = "83DC6DE2-D907-4F00-8846-BDD8FC71EE94";
name = "Aug 1 17, 19:55";
paths = (
{
closed = 1;
nodes = (
"355 -2 OFFCURVE",
"404 0 OFFCURVE",
"421 0 CURVE SMOOTH",
"784 0 LINE",
"806 141 LINE",
"792 141 LINE",
"757 12 LINE",
"766 19 LINE",
"431 19 LINE",
"437 12 LINE",
"492 366 LINE",
"485 359 LINE",
"763 359 LINE",
"766 378 LINE",
"488 378 LINE",
"494 371 LINE",
"542 680 LINE",
"534 673 LINE",
"857 673 LINE",
"850 680 LINE",
"845 556 LINE",
"860 556 LINE",
"881 692 LINE",
"545 692 LINE SMOOTH",
"527 692 OFFCURVE",
"471 694 OFFCURVE",
"444 694 CURVE SMOOTH",
"287 694 OFFCURVE",
"136 581 OFFCURVE",
"98 341 CURVE SMOOTH",
"61 108 OFFCURVE",
"170 -2 OFFCURVE",
"321 -2 CURVE SMOOTH"
);
},
{
closed = 1;
nodes = (
"421 21 LINE",
"404 19 OFFCURVE",
"355 18 OFFCURVE",
"330 18 CURVE SMOOTH",
"180 18 OFFCURVE",
"84 119 OFFCURVE",
"119 339 CURVE SMOOTH",
"155 566 OFFCURVE",
"293 674 OFFCURVE",
"447 674 CURVE SMOOTH",
"468 674 OFFCURVE",
"513 673 OFFCURVE",
"526 672 CURVE",
"523 679 LINE",
"418 14 LINE"
);
}
);
width = 917;
}
);
leftKerningGroup = O;
leftMetricsKey = O;
rightKerningGroup = E;
rightMetricsKey = E;
unicode = 0152;
},
{
color = 1;
glyphname = P;
layers = (
{
anchors = (
{
name = bottom;
position = "{241, 0}";
},
{
name = top;
position = "{350, 692}";
}
);
background = {
paths = (
{
closed = 1;
nodes = (
"438 285 OFFCURVE",
"539 364 OFFCURVE",
"561 499 CURVE SMOOTH",
"580 618 OFFCURVE",
"520 692 OFFCURVE",
"384 692 CURVE SMOOTH",
"255 692 LINE",
"137 687 LINE",
"135 672 LINE",
"237 663 LINE",
"231 671 LINE",
"128 21 LINE",
"137 29 LINE",
"31 15 LINE",
"29 0 LINE",
"265 0 LINE",
"267 15 LINE",
"143 29 LINE",
"148 21 LINE",
"191 292 LINE",
"183 285 LINE",
"286 285 LINE SMOOTH"
);
},
{
closed = 1;
nodes = (
"503 673 OFFCURVE",
"557 608 OFFCURVE",
"540 500 CURVE SMOOTH",
"520 378 OFFCURVE",
"428 304 OFFCURVE",
"288 304 CURVE SMOOTH",
"186 304 LINE",
"192 297 LINE",
"252 680 LINE",
"244 673 LINE",
"381 673 LINE SMOOTH"
);
}
);
};
layerId = "075BA79B-D813-4287-A9DD-CCAF2D535ED3";
paths = (
{
closed = 1;
nodes = (
"453 285 OFFCURVE",
"564 390 OFFCURVE",
"564 533 CURVE SMOOTH",
"564 637 OFFCURVE",
"506 692 OFFCURVE",
"384 692 CURVE SMOOTH",
"255 692 LINE",
"137 687 LINE",
"135 672 LINE",
"237 663 LINE",
"231 671 LINE",
"128 21 LINE",
"137 29 LINE",
"31 15 LINE",
"29 0 LINE",
"265 0 LINE",
"267 15 LINE",
"143 29 LINE",
"148 21 LINE",
"191 292 LINE",
"183 285 LINE",
"289 285 LINE SMOOTH"
);
},
{
closed = 1;
nodes = (
"488 673 OFFCURVE",
"543 626 OFFCURVE",
"543 531 CURVE SMOOTH",
"543 403 OFFCURVE",
"443 304 OFFCURVE",
"291 304 CURVE SMOOTH",
"186 304 LINE",
"192 297 LINE",
"252 680 LINE",
"244 673 LINE",
"381 673 LINE SMOOTH"
);
}
);
width = 563;
},
{
anchors = (
{
name = bottom;
position = "{257, 0}";
},
{
name = top;
position = "{370, 710}";
}
);
background = {
paths = (
{
closed = 1;
nodes = (
"408 710 LINE",
"95 705 LINE",
"79 605 LINE",
"153 571 LINE",
"134 600 LINE",
"55 105 LINE",
"79 131 LINE",
"-1 100 LINE",
"-17 0 LINE",
"295 0 LINE",
"311 100 LINE",
"242 132 LINE",
"252 105 LINE",
"331 600 LINE",
"309 572 LINE",
"392 610 LINE"
);
}
);
};
guideLines = (
{
angle = -99;
position = "{19, 231}";
},
{
angle = -99;
position = "{350, 231}";
}
);
layerId = "927AED37-E9E6-4F96-A08E-421C3785EFC6";
paths = (
{
closed = 1;
nodes = (
"503 231 OFFCURVE",
"626 348 OFFCURVE",
"626 518 CURVE SMOOTH",
"626 637 OFFCURVE",
"565 711 OFFCURVE",
"411 711 CURVE SMOOTH",
"352 711 LINE",
"95 705 LINE",
"79 605 LINE",
"153 571 LINE",
"134 600 LINE",
"55 105 LINE",
"79 131 LINE",
"-1 100 LINE",
"-17 0 LINE",
"310 0 LINE",
"326 100 LINE",
"242 132 LINE",
"252 105 LINE",
"278 266 LINE",
"233 231 LINE",
"302 231 LINE SMOOTH"
);
},
{
closed = 1;
nodes = (
"410 566 OFFCURVE",
"421 539 OFFCURVE",
"421 499 CURVE SMOOTH",
"421 434 OFFCURVE",
"393 376 OFFCURVE",
"307 376 CURVE SMOOTH",
"266 376 LINE",
"290 343 LINE",
"331 599 LINE",
"305 566 LINE",
"353 566 LINE SMOOTH"
);
}
);
width = 600;
},
{
layerId = "89F00A14-383C-41A8-AF30-A12CE933D7AF";
paths = (
{
closed = 1;
nodes = (
"271 0 LINE",
"281 60 LINE",
"195 79 LINE",
"224 260 LINE",
"290 260 LINE SMOOTH",
"427 260 OFFCURVE",
"595 320 OFFCURVE",
"595 540 CURVE SMOOTH",
"595 665 OFFCURVE",
"489 700 OFFCURVE",
"399 700 CURVE SMOOTH",
"294 700 LINE",
"109 695 LINE",
"100 640 LINE",
"181 620 LINE",
"95 80 LINE",
"8 60 LINE",
"-2 0 LINE"
);
},
{
closed = 1;
nodes = (
"281 620 LINE",
"381 620 LINE SMOOTH",
"420 620 OFFCURVE",
"490 603 OFFCURVE",
"490 519 CURVE SMOOTH",
"490 428 OFFCURVE",
"447 340 OFFCURVE",
"303 340 CURVE SMOOTH",
"236 340 LINE"
);
}
);
width = 571;
},
{
associatedMasterId = "927AED37-E9E6-4F96-A08E-421C3785EFC6";
background = {
paths = (
{
closed = 1;
nodes = (
"502 231 OFFCURVE",
"604 346 OFFCURVE",
"625 479 CURVE SMOOTH",
"645 606 OFFCURVE",
"587 711 OFFCURVE",
"417 711 CURVE SMOOTH",
"353 711 LINE",
"94 705 LINE",
"78 605 LINE",
"164 570 LINE",
"137 612 LINE",
"55 95 LINE",
"90 135 LINE",
"-2 100 LINE",
"-17 0 LINE",
"314 0 LINE",
"330 100 LINE",
"232 132 LINE",
"252 95 LINE",
"278 261 LINE",
"235 231 LINE",
"298 231 LINE SMOOTH"
);
},
{
closed = 1;
nodes = (
"414 566 OFFCURVE",
"433 532 OFFCURVE",
"425 476 CURVE SMOOTH",
"415 417 OFFCURVE",
"380 376 OFFCURVE",
"321 376 CURVE SMOOTH",
"258 376 LINE",
"292 346 LINE",
"331 596 LINE",
"298 566 LINE",
"365 566 LINE SMOOTH"
);
}
);
};
guideLines = (
{
angle = -99;
position = "{19, 231}";
},
{
angle = -99;
position = "{350, 231}";
}
);
layerId = "89FD20AD-A4C8-4F1F-8A3D-BFC970A4B9D1";
name = "Jun 27 17, 19:55";
paths = (
{
closed = 1;
nodes = (
"494 231 OFFCURVE",
"627 348 OFFCURVE",
"627 518 CURVE SMOOTH",
"627 637 OFFCURVE",
"566 711 OFFCURVE",
"412 711 CURVE SMOOTH",
"353 711 LINE",
"94 705 LINE",
"78 605 LINE",
"163 570 LINE",
"138 614 LINE",
"55 95 LINE",
"92 135 LINE",
"-2 100 LINE",
"-18 0 LINE",
"313 0 LINE",
"329 100 LINE",
"233 132 LINE",
"255 93 LINE",
"282 263 LINE",
"234 231 LINE",
"303 231 LINE SMOOTH"
);
},
{
closed = 1;
nodes = (
"411 566 OFFCURVE",
"429 542 OFFCURVE",
"429 499 CURVE SMOOTH",
"429 437 OFFCURVE",
"392 376 OFFCURVE",
"317 376 CURVE SMOOTH",
"259 376 LINE",
"295 346 LINE",
"335 596 LINE",
"296 566 LINE",
"361 566 LINE SMOOTH"
);
}
);
width = 593;
},
{
associatedMasterId = "927AED37-E9E6-4F96-A08E-421C3785EFC6";
background = {
paths = (
{
closed = 1;
nodes = (
"317 115 LINE",
"259 145 LINE",
"273 230 LINE",
"296 230 LINE SMOOTH",
"501 230 OFFCURVE",
"630 341 OFFCURVE",
"630 528 CURVE SMOOTH",
"630 643 OFFCURVE",
"545 710 OFFCURVE",
"415 710 CURVE SMOOTH",
"349 710 LINE",
"89 705 LINE",
"72 595 LINE",
"128 555 LINE",
"63 145 LINE",
"-5 115 LINE",
"-23 0 LINE",
"299 0 LINE"
);
},
{
closed = 1;
nodes = (
"324 555 LINE",
"361 555 LINE SMOOTH",
"401 555 OFFCURVE",
"427 532 OFFCURVE",
"427 487 CURVE SMOOTH",
"427 422 OFFCURVE",
"385 385 OFFCURVE",
"320 385 CURVE SMOOTH",
"297 385 LINE"
);
}
);
};
guideLines = (
{
angle = -99;
position = "{19, 231}";
},
{
angle = -99;
position = "{350, 231}";
}
);
layerId = "35753A9D-0ECC-4FF6-BCDC-3611364150B5";
name = "Jul 3 17, 11:49";
paths = (
{
closed = 1;
nodes = (
"504 231 OFFCURVE",
"627 348 OFFCURVE",
"627 518 CURVE SMOOTH",
"627 637 OFFCURVE",
"566 711 OFFCURVE",
"412 711 CURVE SMOOTH",
"353 711 LINE",
"94 705 LINE",
"78 605 LINE",
"163 570 LINE",
"138 614 LINE",
"55 95 LINE",
"92 135 LINE",
"-2 100 LINE",
"-18 0 LINE",
"313 0 LINE",
"329 100 LINE",
"233 132 LINE",
"255 93 LINE",
"282 263 LINE",
"234 231 LINE",
"303 231 LINE SMOOTH"
);
},
{
closed = 1;
nodes = (
"408 566 OFFCURVE",
"419 539 OFFCURVE",
"419 499 CURVE SMOOTH",
"419 434 OFFCURVE",
"391 376 OFFCURVE",
"307 376 CURVE SMOOTH",
"259 376 LINE",
"295 346 LINE",
"335 596 LINE",
"296 566 LINE",
"351 566 LINE SMOOTH"
);
}
);
width = 593;
}
);
leftKerningGroup = H;
rightKerningGroup = P;
unicode = 0050;
},
{
color = 1;
glyphname = Thorn;
layers = (
{
anchors = (
{
name = bottom;
position = "{232, 0}";
},
{
name = top;
position = "{345, 692}";
}
);
background = {
paths = (
{
closed = 1;
nodes = (
"241 0 LINE",
"243 15 LINE",
"143 29 LINE",
"148 21 LINE",
"251 671 LINE",
"243 663 LINE",
"348 677 LINE",
"350 692 LINE",
"137 687 LINE",
"135 672 LINE",
"237 663 LINE",
"231 671 LINE",
"128 21 LINE",
"137 29 LINE",
"31 15 LINE",
"29 0 LINE"
);
},
{
closed = 1;
nodes = (
"258 149 LINE SMOOTH",
"422 149 OFFCURVE",
"533 254 OFFCURVE",
"533 397 CURVE SMOOTH",
"533 501 OFFCURVE",
"475 556 OFFCURVE",
"353 556 CURVE SMOOTH",
"224 556 LINE",
"213 537 LINE",
"350 537 LINE SMOOTH",
"457 537 OFFCURVE",
"512 490 OFFCURVE",
"512 395 CURVE SMOOTH",
"512 267 OFFCURVE",
"412 168 OFFCURVE",
"260 168 CURVE SMOOTH",
"155 168 LINE",
"152 149 LINE"
);
}
);
};
layerId = "075BA79B-D813-4287-A9DD-CCAF2D535ED3";
paths = (
{
closed = 1;
nodes = (
"241 0 LINE",
"243 15 LINE",
"143 29 LINE",
"148 21 LINE",
"169 154 LINE",
"159 149 LINE",
"258 149 LINE SMOOTH",
"422 149 OFFCURVE",
"533 254 OFFCURVE",
"533 397 CURVE SMOOTH",
"533 501 OFFCURVE",
"475 556 OFFCURVE",
"353 556 CURVE SMOOTH",
"224 556 LINE",
"232 551 LINE",
"251 671 LINE",
"243 663 LINE",
"348 677 LINE",
"350 692 LINE",
"137 687 LINE",
"135 672 LINE",
"237 663 LINE",
"231 671 LINE",
"128 21 LINE",
"137 29 LINE",
"31 15 LINE",
"29 0 LINE"
);
},
{
closed = 1;
nodes = (
"231 545 LINE",
"221 537 LINE",
"350 537 LINE SMOOTH",
"457 537 OFFCURVE",
"512 490 OFFCURVE",
"512 395 CURVE SMOOTH",
"512 267 OFFCURVE",
"412 168 OFFCURVE",
"260 168 CURVE SMOOTH",
"162 168 LINE",
"170 160 LINE"
);
}
);
width = 554;
},
{
anchors = (
{
name = bottom;
position = "{251, 0}";
},
{
name = top;
position = "{364, 710}";
}
);
background = {
paths = (
{
closed = 1;
nodes = (
"309 0 LINE",
"325 100 LINE",
"242 132 LINE",
"252 105 LINE",
"331 600 LINE",
"309 572 LINE",
"392 610 LINE",
"408 710 LINE",
"95 705 LINE",
"79 605 LINE",
"153 571 LINE",
"134 600 LINE",
"55 105 LINE",
"79 131 LINE",
"-1 100 LINE",
"-17 0 LINE"
);
},
{
closed = 1;
nodes = (
"284 156 LINE SMOOTH",
"475 156 OFFCURVE",
"595 246 OFFCURVE",
"595 399 CURVE SMOOTH",
"595 497 OFFCURVE",
"546 559 OFFCURVE",
"393 559 CURVE SMOOTH",
"313 559 LINE",
"287 419 LINE",
"335 419 LINE SMOOTH",
"388 419 OFFCURVE",
"398 399 OFFCURVE",
"398 372 CURVE SMOOTH",
"398 324 OFFCURVE",
"368 296 OFFCURVE",
"289 296 CURVE SMOOTH",
"248 296 LINE",
"215 156 LINE"
);
}
);
};
layerId = "927AED37-E9E6-4F96-A08E-421C3785EFC6";
paths = (
{
closed = 1;
nodes = (
"309 0 LINE",
"325 100 LINE",
"242 132 LINE",
"252 105 LINE",
"263 178 LINE",
"245 156 LINE",
"284 156 LINE SMOOTH",
"475 156 OFFCURVE",
"595 246 OFFCURVE",
"595 399 CURVE SMOOTH",
"595 497 OFFCURVE",
"545 559 OFFCURVE",
"393 559 CURVE SMOOTH",
"313 559 LINE",
"322 544 LINE",
"331 603 LINE",
"309 572 LINE",
"392 610 LINE",
"408 710 LINE",
"95 705 LINE",
"79 605 LINE",
"153 571 LINE",
"134 600 LINE",
"55 105 LINE",
"79 131 LINE",
"-1 100 LINE",
"-17 0 LINE"
);
},
{
closed = 1;
nodes = (
"304 434 LINE",
"287 419 LINE",
"335 419 LINE SMOOTH",
"388 419 OFFCURVE",
"398 399 OFFCURVE",
"398 372 CURVE SMOOTH",
"398 324 OFFCURVE",
"368 296 OFFCURVE",
"289 296 CURVE SMOOTH",
"268 296 LINE",
"280 283 LINE"
);
}
);
width = 587;
},
{
background = {
paths = (
{
closed = 1;
nodes = (
"269 0 LINE",
"279 60 LINE",
"197 80 LINE",
"209 155 LINE",
"279 155 LINE SMOOTH",
"454 155 OFFCURVE",
"574 254 OFFCURVE",
"574 415 CURVE SMOOTH",
"574 510 OFFCURVE",
"504 565 OFFCURVE",
"379 565 CURVE SMOOTH",
"275 565 LINE",
"284 620 LINE",
"371 640 LINE",
"381 700 LINE",
"109 695 LINE",
"101 640 LINE",
"182 620 LINE",
"96 80 LINE",
"8 60 LINE",
"-1 0 LINE"
);
},
{
closed = 1;
nodes = (
"262 485 LINE",
"361 485 LINE",
"444 485 OFFCURVE",
"474 447 OFFCURVE",
"474 391 CURVE SMOOTH",
"474 291 OFFCURVE",
"406 235 OFFCURVE",
"294 235 CURVE SMOOTH",
"222 235 LINE"
);
}
);
};
layerId = "89F00A14-383C-41A8-AF30-A12CE933D7AF";
paths = (
{
closed = 1;
nodes = (
"269 0 LINE",
"279 60 LINE",
"197 80 LINE",
"209 155 LINE",
"279 155 LINE SMOOTH",
"454 155 OFFCURVE",
"574 254 OFFCURVE",
"574 415 CURVE SMOOTH",
"574 510 OFFCURVE",
"504 565 OFFCURVE",
"379 565 CURVE SMOOTH",
"275 565 LINE",
"284 620 LINE",
"371 640 LINE",
"381 700 LINE",
"109 695 LINE",
"101 640 LINE",
"182 620 LINE",
"96 80 LINE",
"8 60 LINE",
"-1 0 LINE"
);
},
{
closed = 1;
nodes = (
"262 485 LINE",
"361 485 LINE",
"444 485 OFFCURVE",
"474 447 OFFCURVE",
"474 391 CURVE SMOOTH",
"474 291 OFFCURVE",
"406 235 OFFCURVE",
"294 235 CURVE SMOOTH",
"222 235 LINE"
);
}
);
width = 569;
},
{
anchors = (
{
name = bottom;
position = "{251, 0}";
},
{
name = top;
position = "{364, 710}";
}
);
associatedMasterId = "927AED37-E9E6-4F96-A08E-421C3785EFC6";
background = {
paths = (
{
closed = 1;
nodes = (
"408 710 LINE",
"95 705 LINE",
"79 605 LINE",
"153 571 LINE",
"134 600 LINE",
"55 105 LINE",
"79 131 LINE",
"-1 100 LINE",
"-17 0 LINE",
"309 0 LINE",
"325 100 LINE",
"242 132 LINE",
"252 105 LINE",
"331 600 LINE",
"309 572 LINE",
"392 610 LINE"
);
},
{
closed = 1;
nodes = (
"272 165 LINE SMOOTH",
"483 165 OFFCURVE",
"595 250 OFFCURVE",
"595 392 CURVE SMOOTH",
"595 487 OFFCURVE",
"548 542 OFFCURVE",
"394 542 CURVE SMOOTH",
"302 542 LINE",
"285 407 LINE",
"346 407 LINE SMOOTH",
"396 407 OFFCURVE",
"408 394 OFFCURVE",
"408 370 CURVE SMOOTH",
"408 332 OFFCURVE",
"380 300 OFFCURVE",
"294 300 CURVE SMOOTH",
"246 300 LINE",
"213 165 LINE"
);
}
);
};
layerId = "046EA5BA-706C-46A8-9730-43B8679623A5";
name = "Aug 2 17, 15:23";
paths = (
{
closed = 1;
nodes = (
"309 0 LINE",
"325 100 LINE",
"242 132 LINE",
"252 105 LINE",
"331 600 LINE",
"309 572 LINE",
"392 610 LINE",
"408 710 LINE",
"95 705 LINE",
"79 605 LINE",
"153 571 LINE",
"134 600 LINE",
"55 105 LINE",
"79 131 LINE",
"-1 100 LINE",
"-17 0 LINE"
);
},
{
closed = 1;
nodes = (
"272 165 LINE SMOOTH",
"482 165 OFFCURVE",
"595 249 OFFCURVE",
"595 393 CURVE SMOOTH",
"595 487 OFFCURVE",
"547 542 OFFCURVE",
"394 542 CURVE SMOOTH",
"302 542 LINE",
"285 407 LINE",
"346 407 LINE SMOOTH",
"396 407 OFFCURVE",
"408 394 OFFCURVE",
"408 370 CURVE SMOOTH",
"408 332 OFFCURVE",
"380 300 OFFCURVE",
"294 300 CURVE SMOOTH",
"246 300 LINE",
"213 165 LINE"
);
}
);
width = 588;
},
{
anchors = (
{
name = bottom;
position = "{251, 0}";
},
{
name = top;
position = "{364, 710}";
}
);
associatedMasterId = "927AED37-E9E6-4F96-A08E-421C3785EFC6";
background = {
paths = (
{
closed = 1;
nodes = (
"466 156 OFFCURVE",
"571 222 OFFCURVE",
"594 373 CURVE SMOOTH",
"614 506 OFFCURVE",
"548 559 OFFCURVE",
"419 559 CURVE SMOOTH",
"293 559 LINE",
"317 524 LINE",
"329 606 LINE",
"303 568 LINE",
"387 610 LINE",
"402 710 LINE",
"91 705 LINE",
"76 605 LINE",
"151 571 LINE",
"134 610 LINE",
"57 95 LINE",
"85 133 LINE",
"0 100 LINE",
"-15 0 LINE",
"309 0 LINE",
"324 100 LINE",
"234 134 LINE",
"252 97 LINE",
"266 191 LINE",
"232 156 LINE",
"320 156 LINE SMOOTH"
);
},
{
closed = 1;
nodes = (
"386 419 OFFCURVE",
"403 406 OFFCURVE",
"397 361 CURVE SMOOTH",
"389 304 OFFCURVE",
"356 296 OFFCURVE",
"300 296 CURVE SMOOTH",
"254 296 LINE",
"278 266 LINE",
"305 449 LINE",
"272 419 LINE",
"330 419 LINE SMOOTH"
);
}
);
};
layerId = "C7E273D5-2FA0-4927-AF1F-554091D6099C";
name = "Aug 2 17, 15:26";
paths = (
{
closed = 1;
nodes = (
"309 0 LINE",
"325 100 LINE",
"242 132 LINE",
"252 105 LINE",
"331 600 LINE",
"309 572 LINE",
"392 610 LINE",
"408 710 LINE",
"95 705 LINE",
"79 605 LINE",
"153 571 LINE",
"134 600 LINE",
"55 105 LINE",
"79 131 LINE",
"-1 100 LINE",
"-17 0 LINE"
);
},
{
closed = 1;
nodes = (
"272 156 LINE SMOOTH",
"482 156 OFFCURVE",
"595 248 OFFCURVE",
"595 401 CURVE SMOOTH",
"595 512 OFFCURVE",
"547 559 OFFCURVE",
"394 559 CURVE SMOOTH",
"302 559 LINE",
"285 419 LINE",
"336 419 LINE SMOOTH",
"386 419 OFFCURVE",
"398 406 OFFCURVE",
"398 370 CURVE SMOOTH",
"398 328 OFFCURVE",
"370 296 OFFCURVE",
"294 296 CURVE SMOOTH",
"246 296 LINE",
"213 156 LINE"
);
}
);
width = 588;
}
);
leftKerningGroup = H;
rightKerningGroup = Thorn;
rightMetricsKey = P;
unicode = 00DE;
},
{
color = 1;
glyphname = Q;
layers = (
{
background = {
paths = (
{
closed = 1;
nodes = (
"545 -6 OFFCURVE",
"686 213 OFFCURVE",
"686 436 CURVE SMOOTH",
"686 613 OFFCURVE",
"579 698 OFFCURVE",
"449 698 CURVE SMOOTH",
"238 698 OFFCURVE",
"94 487 OFFCURVE",
"94 257 CURVE SMOOTH",
"94 77 OFFCURVE",
"202 -6 OFFCURVE",
"329 -6 CURVE SMOOTH"
);
},
{
closed = 1;
nodes = (
"211 14 OFFCURVE",
"115 96 OFFCURVE",
"115 261 CURVE SMOOTH",
"115 473 OFFCURVE",
"249 678 OFFCURVE",
"447 678 CURVE SMOOTH",
"567 678 OFFCURVE",
"665 596 OFFCURVE",
"665 431 CURVE SMOOTH",
"665 219 OFFCURVE",
"529 14 OFFCURVE",
"331 14 CURVE SMOOTH"
);
}
);
};
layerId = "075BA79B-D813-4287-A9DD-CCAF2D535ED3";
paths = (
{
closed = 1;
nodes = (
"627 -156 OFFCURVE",
"671 -132 OFFCURVE",
"717 -110 CURVE",
"709 -94 LINE",
"666 -115 OFFCURVE",
"624 -135 OFFCURVE",
"597 -135 CURVE SMOOTH",
"550 -135 OFFCURVE",
"480 -77 OFFCURVE",
"355 -2 CURVE",
"351 -5 LINE",
"554 8 OFFCURVE",
"686 224 OFFCURVE",
"686 430 CURVE SMOOTH",
"686 616 OFFCURVE",
"579 698 OFFCURVE",
"449 698 CURVE SMOOTH",
"238 698 OFFCURVE",
"94 483 OFFCURVE",
"94 263 CURVE SMOOTH",
"94 73 OFFCURVE",
"202 -6 OFFCURVE",
"329 -6 CURVE",
"319 -2 LINE",
"485 -106 OFFCURVE",
"544 -156 OFFCURVE",
"592 -156 CURVE SMOOTH"
);
},
{
closed = 1;
nodes = (
"211 14 OFFCURVE",
"115 93 OFFCURVE",
"115 266 CURVE SMOOTH",
"115 470 OFFCURVE",
"249 678 OFFCURVE",
"446 678 CURVE SMOOTH",
"567 678 OFFCURVE",
"665 599 OFFCURVE",
"665 426 CURVE SMOOTH",
"665 222 OFFCURVE",
"529 14 OFFCURVE",
"332 14 CURVE SMOOTH"
);
}
);
width = 754;
},
{
background = {
paths = (
{
closed = 1;
nodes = (
"682 -20 LINE",
"643 -41 OFFCURVE",
"603 -62 OFFCURVE",
"573 -62 CURVE SMOOTH",
"539 -62 OFFCURVE",
"476 -28 OFFCURVE",
"410 28 CURVE",
"413 1 LINE",
"561 47 OFFCURVE",
"658 176 OFFCURVE",
"686 358 CURVE SMOOTH",
"723 588 OFFCURVE",
"630 725 OFFCURVE",
"418 725 CURVE SMOOTH",
"215 725 OFFCURVE",
"75 600 OFFCURVE",
"36 358 CURVE SMOOTH",
"-1 120 OFFCURVE",
"90 -13 OFFCURVE",
"287 -15 CURVE",
"239 4 LINE",
"432 -148 OFFCURVE",
"464 -209 OFFCURVE",
"555 -209 CURVE SMOOTH",
"595 -209 OFFCURVE",
"659 -184 OFFCURVE",
"741 -137 CURVE"
);
},
{
closed = 1;
nodes = (
"274 525 OFFCURVE",
"324 570 OFFCURVE",
"403 570 CURVE SMOOTH",
"480 570 OFFCURVE",
"502 529 OFFCURVE",
"478 376 CURVE SMOOTH",
"448 188 OFFCURVE",
"393 140 OFFCURVE",
"315 140 CURVE SMOOTH",
"238 140 OFFCURVE",
"221 187 OFFCURVE",
"245 338 CURVE SMOOTH"
);
}
);
};
layerId = "927AED37-E9E6-4F96-A08E-421C3785EFC6";
paths = (
{
closed = 1;
nodes = (
"599 -209 OFFCURVE",
"654 -186 OFFCURVE",
"741 -137 CURVE",
"683 -23 LINE",
"633 -49 OFFCURVE",
"601 -62 OFFCURVE",
"573 -62 CURVE SMOOTH",
"529 -62 OFFCURVE",
"494 -31 OFFCURVE",
"410 28 CURVE",
"415 -2 LINE",
"621 53 OFFCURVE",
"694 267 OFFCURVE",
"694 433 CURVE SMOOTH",
"694 616 OFFCURVE",
"606 725 OFFCURVE",
"417 725 CURVE SMOOTH",
"128 725 OFFCURVE",
"30 472 OFFCURVE",
"30 278 CURVE SMOOTH",
"30 106 OFFCURVE",
"107 -3 OFFCURVE",
"280 -14 CURVE",
"238 5 LINE",
"408 -130 OFFCURVE",
"466 -209 OFFCURVE",
"552 -209 CURVE SMOOTH"
);
},
{
closed = 1;
nodes = (
"266 138 OFFCURVE",
"235 174 OFFCURVE",
"235 271 CURVE SMOOTH",
"235 361 OFFCURVE",
"262 570 OFFCURVE",
"401 570 CURVE SMOOTH",
"458 570 OFFCURVE",
"489 535 OFFCURVE",
"489 440 CURVE SMOOTH",
"489 349 OFFCURVE",
"461 138 OFFCURVE",
"323 138 CURVE SMOOTH"
);
}
);
width = 698;
},
{
background = {
paths = (
{
closed = 1;
nodes = (
"622 -182 OFFCURVE",
"729 -125 OFFCURVE",
"729 -125 CURVE",
"700 -65 LINE",
"700 -65 OFFCURVE",
"635 -100 OFFCURVE",
"601 -100 CURVE SMOOTH",
"568 -100 OFFCURVE",
"533 -82 OFFCURVE",
"507 -62 CURVE",
"417 7 LINE",
"585 60 OFFCURVE",
"703 228 OFFCURVE",
"703 475 CURVE SMOOTH",
"703 612 OFFCURVE",
"612 710 OFFCURVE",
"450 710 CURVE SMOOTH",
"227 710 OFFCURVE",
"58 516 OFFCURVE",
"58 234 CURVE SMOOTH",
"58 92 OFFCURVE",
"139 1 OFFCURVE",
"272 -9 CURVE",
"448 -129 LINE SMOOTH",
"483 -153 OFFCURVE",
"529 -182 OFFCURVE",
"568 -182 CURVE SMOOTH"
);
},
{
closed = 1;
nodes = (
"227 75 OFFCURVE",
"168 132 OFFCURVE",
"168 244 CURVE SMOOTH",
"168 448 OFFCURVE",
"272 625 OFFCURVE",
"433 625 CURVE SMOOTH",
"528 625 OFFCURVE",
"593 581 OFFCURVE",
"593 462 CURVE SMOOTH",
"593 238 OFFCURVE",
"481 75 OFFCURVE",
"321 75 CURVE SMOOTH"
);
}
);
};
layerId = "89F00A14-383C-41A8-AF30-A12CE933D7AF";
paths = (
{
closed = 1;
nodes = (
"622 -182 OFFCURVE",
"729 -125 OFFCURVE",
"729 -125 CURVE",
"700 -65 LINE",
"700 -65 OFFCURVE",
"635 -100 OFFCURVE",
"601 -100 CURVE SMOOTH",
"553 -100 OFFCURVE",
"525 -82 OFFCURVE",
"409 7 CURVE",
"591 59 OFFCURVE",
"703 228 OFFCURVE",
"703 475 CURVE SMOOTH",
"703 612 OFFCURVE",
"612 710 OFFCURVE",
"450 710 CURVE SMOOTH",
"227 710 OFFCURVE",
"58 516 OFFCURVE",
"58 234 CURVE SMOOTH",
"58 92 OFFCURVE",
"139 1 OFFCURVE",
"272 -9 CURVE",
"448 -129 LINE SMOOTH",
"483 -153 OFFCURVE",
"529 -182 OFFCURVE",
"568 -182 CURVE SMOOTH"
);
},
{
closed = 1;
nodes = (
"227 75 OFFCURVE",
"168 132 OFFCURVE",
"168 244 CURVE SMOOTH",
"168 448 OFFCURVE",
"272 625 OFFCURVE",
"433 625 CURVE SMOOTH",
"528 625 OFFCURVE",
"593 581 OFFCURVE",
"593 462 CURVE SMOOTH",
"593 238 OFFCURVE",
"481 75 OFFCURVE",
"321 75 CURVE SMOOTH"
);
}
);
width = 741;
},
{
associatedMasterId = "075BA79B-D813-4287-A9DD-CCAF2D535ED3";
background = {
paths = (
{
closed = 1;
nodes = (
"708 -94 LINE",
"665 -116 OFFCURVE",
"623 -135 OFFCURVE",
"596 -135 CURVE SMOOTH",
"549 -135 OFFCURVE",
"478 -77 OFFCURVE",
"354 -2 CURVE",
"355 -5 LINE",
"511 8 OFFCURVE",
"654 135 OFFCURVE",
"689 356 CURVE SMOOTH",
"726 591 OFFCURVE",
"604 698 OFFCURVE",
"453 698 CURVE SMOOTH",
"296 698 OFFCURVE",
"137 581 OFFCURVE",
"99 341 CURVE SMOOTH",
"62 109 OFFCURVE",
"174 -4 OFFCURVE",
"326 -6 CURVE",
"316 -2 LINE",
"482 -106 OFFCURVE",
"541 -156 OFFCURVE",
"588 -156 CURVE SMOOTH",
"621 -156 OFFCURVE",
"667 -132 OFFCURVE",
"715 -109 CURVE"
);
},
{
closed = 1;
nodes = (
"156 568 OFFCURVE",
"302 678 OFFCURVE",
"449 678 CURVE SMOOTH",
"594 678 OFFCURVE",
"702 570 OFFCURVE",
"667 353 CURVE SMOOTH",
"632 129 OFFCURVE",
"482 14 OFFCURVE",
"334 14 CURVE SMOOTH",
"191 14 OFFCURVE",
"85 121 OFFCURVE",
"120 342 CURVE SMOOTH"
);
}
);
};
layerId = "281D70D7-E0AD-49FD-9C13-A89238B62ECC";
name = "Jul 3 17, 18:10";
paths = (
{
closed = 1;
nodes = (
"622 -156 OFFCURVE",
"668 -132 OFFCURVE",
"715 -109 CURVE",
"707 -94 LINE",
"664 -116 OFFCURVE",
"622 -135 OFFCURVE",
"595 -135 CURVE SMOOTH",
"548 -135 OFFCURVE",
"478 -77 OFFCURVE",
"353 -2 CURVE",
"356 -5 LINE",
"511 8 OFFCURVE",
"654 134 OFFCURVE",
"689 355 CURVE SMOOTH",
"726 590 OFFCURVE",
"603 698 OFFCURVE",
"452 698 CURVE SMOOTH",
"295 698 OFFCURVE",
"137 582 OFFCURVE",
"99 342 CURVE SMOOTH",
"62 110 OFFCURVE",
"174 -4 OFFCURVE",
"327 -6 CURVE",
"317 -2 LINE",
"483 -106 OFFCURVE",
"542 -156 OFFCURVE",
"590 -156 CURVE SMOOTH"
);
},
{
closed = 1;
nodes = (
"191 14 OFFCURVE",
"85 120 OFFCURVE",
"120 341 CURVE SMOOTH",
"156 567 OFFCURVE",
"303 678 OFFCURVE",
"450 678 CURVE SMOOTH",
"594 678 OFFCURVE",
"702 571 OFFCURVE",
"667 354 CURVE SMOOTH",
"632 130 OFFCURVE",
"481 14 OFFCURVE",
"333 14 CURVE SMOOTH"
);
}
);
width = 761;
}
);
leftKerningGroup = O;
rightKerningGroup = O;
unicode = 0051;
},
{
color = 1;
glyphname = R;
layers = (
{
anchors = (
{
name = bottom;
position = "{311, 0}";
},
{
name = top;
position = "{378, 691}";
}
);
background = {
paths = (
{
closed = 1;
nodes = (
"265 0 LINE",
"267 15 LINE",
"143 29 LINE",
"148 21 LINE",
"200 350 LINE",
"192 343 LINE",
"269 343 LINE SMOOTH",
"354 343 OFFCURVE",
"393 334 OFFCURVE",
"428 213 CURVE SMOOTH",
"491 0 LINE",
"570 0 LINE",
"572 15 LINE",
"500 29 LINE",
"508 22 LINE",
"447 217 LINE SMOOTH",
"422 296 OFFCURVE",
"408 341 OFFCURVE",
"336 352 CURVE",
"340 349 LINE",
"469 360 OFFCURVE",
"544 428 OFFCURVE",
"559 527 CURVE SMOOTH",
"576 631 OFFCURVE",
"514 692 OFFCURVE",
"379 692 CURVE SMOOTH",
"255 692 LINE",
"137 687 LINE",
"135 672 LINE",
"236 663 LINE",
"231 671 LINE",
"128 21 LINE",
"136 29 LINE",
"31 15 LINE",
"29 0 LINE"
);
},
{
closed = 1;
nodes = (
"252 680 LINE",
"244 673 LINE",
"375 673 LINE SMOOTH",
"498 673 OFFCURVE",
"553 621 OFFCURVE",
"539 528 CURVE SMOOTH",
"522 423 OFFCURVE",
"431 362 OFFCURVE",
"292 362 CURVE SMOOTH",
"196 362 LINE",
"201 355 LINE"
);
}
);
};
layerId = "075BA79B-D813-4287-A9DD-CCAF2D535ED3";
paths = (
{
closed = 1;
nodes = (
"265 0 LINE",
"267 15 LINE",
"143 29 LINE",
"148 21 LINE",
"200 350 LINE",
"192 343 LINE",
"269 343 LINE SMOOTH",
"354 343 OFFCURVE",
"393 334 OFFCURVE",
"428 213 CURVE SMOOTH",
"491 0 LINE",
"570 0 LINE",
"572 15 LINE",
"500 29 LINE",
"508 22 LINE",
"447 217 LINE SMOOTH",
"422 296 OFFCURVE",
"408 341 OFFCURVE",
"336 352 CURVE",
"340 349 LINE",
"472 360 OFFCURVE",
"562 438 OFFCURVE",
"562 559 CURVE SMOOTH",
"562 643 OFFCURVE",
"499 692 OFFCURVE",
"379 692 CURVE SMOOTH",
"255 692 LINE",
"137 687 LINE",
"135 672 LINE",
"236 663 LINE",
"231 671 LINE",
"128 21 LINE",
"136 29 LINE",
"31 15 LINE",
"29 0 LINE"
);
},
{
closed = 1;
nodes = (
"252 680 LINE",
"244 673 LINE",
"375 673 LINE SMOOTH",
"486 673 OFFCURVE",
"541 631 OFFCURVE",
"541 555 CURVE SMOOTH",
"541 432 OFFCURVE",
"435 362 OFFCURVE",
"292 362 CURVE SMOOTH",
"196 362 LINE",
"201 355 LINE"
);
}
);
width = 641;
},
{
anchors = (
{
name = bottom;
position = "{292, 0}";
},
{
name = top;
position = "{373, 710}";
}
);
background = {
paths = (
{
closed = 1;
nodes = (
"408 710 LINE",
"95 705 LINE",
"79 605 LINE",
"153 571 LINE",
"134 600 LINE",
"55 105 LINE",
"79 131 LINE",
"-1 100 LINE",
"-17 0 LINE",
"295 0 LINE",
"311 100 LINE",
"242 132 LINE",
"252 105 LINE",
"331 600 LINE",
"309 572 LINE",
"392 610 LINE"
);
}
);
};
guideLines = (
{
angle = -99;
position = "{19, 231}";
},
{
angle = -99;
position = "{631, 231}";
}
);
layerId = "927AED37-E9E6-4F96-A08E-421C3785EFC6";
paths = (
{
closed = 1;
nodes = (
"295 0 LINE",
"311 100 LINE",
"242 132 LINE",
"252 105 LINE",
"284 305 LINE",
"249 276 LINE",
"289 277 LINE SMOOTH",
"335 278 OFFCURVE",
"339 276 OFFCURVE",
"355 210 CURVE SMOOTH",
"405 0 LINE",
"595 0 LINE",
"611 100 LINE",
"529 139 LINE",
"576 104 LINE",
"530 252 LINE SMOOTH",
"516 296 OFFCURVE",
"482 335 OFFCURVE",
"407 333 CURVE",
"404 300 LINE",
"547 318 OFFCURVE",
"643 399 OFFCURVE",
"643 532 CURVE SMOOTH",
"643 650 OFFCURVE",
"568 711 OFFCURVE",
"424 711 CURVE SMOOTH",
"358 711 LINE",
"95 705 LINE",
"79 605 LINE",
"153 571 LINE",
"134 600 LINE",
"55 105 LINE",
"79 131 LINE",
"-1 100 LINE",
"-17 0 LINE"
);
},
{
closed = 1;
nodes = (
"331 600 LINE",
"305 566 LINE",
"380 566 LINE SMOOTH",
"425 566 OFFCURVE",
"438 547 OFFCURVE",
"438 514 CURVE SMOOTH",
"438 449 OFFCURVE",
"400 406 OFFCURVE",
"329 406 CURVE SMOOTH",
"273 406 LINE",
"295 372 LINE"
);
}
);
width = 647;
},
{
layerId = "89F00A14-383C-41A8-AF30-A12CE933D7AF";
paths = (
{
closed = 1;
nodes = (
"273 0 LINE",
"283 60 LINE",
"197 80 LINE",
"232 305 LINE",
"261 305 LINE SMOOTH",
"328 305 OFFCURVE",
"358 285 OFFCURVE",
"388 185 CURVE SMOOTH",
"444 0 LINE",
"588 0 LINE",
"598 60 LINE",
"526 80 LINE",
"482 210 LINE SMOOTH",
"465 261 OFFCURVE",
"441 307 OFFCURVE",
"423 322 CURVE",
"522 353 OFFCURVE",
"598 428 OFFCURVE",
"598 548 CURVE SMOOTH",
"598 653 OFFCURVE",
"503 700 OFFCURVE",
"403 700 CURVE SMOOTH",
"295 700 LINE",
"109 695 LINE",
"101 640 LINE",
"182 620 LINE",
"96 80 LINE",
"8 60 LINE",
"-2 0 LINE"
);
},
{
closed = 1;
nodes = (
"282 620 LINE",
"385 620 LINE",
"450 620 OFFCURVE",
"493 593 OFFCURVE",
"493 530 CURVE SMOOTH",
"493 432 OFFCURVE",
"418 380 OFFCURVE",
"318 380 CURVE SMOOTH",
"244 380 LINE"
);
}
);
width = 630;
},
{
anchors = (
{
name = bottom;
position = "{286, 0}";
},
{
name = top;
position = "{383, 710}";
}
);
associatedMasterId = "927AED37-E9E6-4F96-A08E-421C3785EFC6";
background = {
paths = (
{
closed = 1;
nodes = (
"294 0 LINE",
"310 100 LINE",
"235 134 LINE",
"255 94 LINE",
"289 305 LINE",
"248 276 LINE",
"288 277 LINE SMOOTH",
"334 278 OFFCURVE",
"335 275 OFFCURVE",
"351 210 CURVE SMOOTH",
"404 0 LINE",
"594 0 LINE",
"610 100 LINE",
"528 139 LINE",
"575 104 LINE",
"529 252 LINE SMOOTH",
"515 296 OFFCURVE",
"481 335 OFFCURVE",
"406 333 CURVE",
"403 300 LINE",
"553 320 OFFCURVE",
"623 395 OFFCURVE",
"639 497 CURVE SMOOTH",
"660 630 OFFCURVE",
"585 710 OFFCURVE",
"423 710 CURVE SMOOTH",
"357 710 LINE",
"94 705 LINE",
"79 605 LINE",
"163 568 LINE",
"137 609 LINE",
"56 94 LINE",
"85 133 LINE",
"-2 100 LINE",
"-18 0 LINE"
);
},
{
closed = 1;
nodes = (
"335 597 LINE",
"294 566 LINE",
"386 566 LINE SMOOTH",
"436 566 OFFCURVE",
"449 540 OFFCURVE",
"443 501 CURVE SMOOTH",
"434 442 OFFCURVE",
"396 406 OFFCURVE",
"331 406 CURVE SMOOTH",
"272 406 LINE",
"299 372 LINE"
);
}
);
};
guideLines = (
{
angle = -99;
position = "{19, 231}";
},
{
angle = -99;
position = "{631, 231}";
}
);
layerId = "F0DA5006-B641-4385-A4BB-E20B6E72F597";
name = "Jul 3 17, 11:51";
paths = (
{
closed = 1;
nodes = (
"294 0 LINE",
"310 100 LINE",
"235 134 LINE",
"255 94 LINE",
"289 305 LINE",
"248 276 LINE",
"288 277 LINE SMOOTH",
"334 278 OFFCURVE",
"338 276 OFFCURVE",
"354 210 CURVE SMOOTH",
"404 0 LINE",
"594 0 LINE",
"610 100 LINE",
"528 139 LINE",
"575 104 LINE",
"529 252 LINE SMOOTH",
"515 296 OFFCURVE",
"481 335 OFFCURVE",
"406 333 CURVE",
"403 300 LINE",
"546 318 OFFCURVE",
"642 399 OFFCURVE",
"642 532 CURVE SMOOTH",
"642 650 OFFCURVE",
"567 710 OFFCURVE",
"423 710 CURVE SMOOTH",
"357 710 LINE",
"94 705 LINE",
"79 605 LINE",
"163 568 LINE",
"137 609 LINE",
"56 94 LINE",
"85 133 LINE",
"-2 100 LINE",
"-18 0 LINE"
);
},
{
closed = 1;
nodes = (
"335 597 LINE",
"294 566 LINE",
"379 566 LINE SMOOTH",
"424 566 OFFCURVE",
"437 547 OFFCURVE",
"437 514 CURVE SMOOTH",
"437 454 OFFCURVE",
"395 406 OFFCURVE",
"324 406 CURVE SMOOTH",
"272 406 LINE",
"299 372 LINE"
);
}
);
width = 641;
}
);
leftKerningGroup = H;
rightKerningGroup = R;
unicode = 0052;
},
{
color = 1;
glyphname = S;
layers = (
{
anchors = (
{
name = bottom;
position = "{264, 0}";
},
{
name = top;
position = "{392, 691}";
}
);
background = {
paths = (
{
closed = 1;
nodes = (
"486 7 OFFCURVE",
"486 196 CURVE SMOOTH",
"486 407 OFFCURVE",
"164 328 OFFCURVE",
"164 514 CURVE SMOOTH",
"164 667 OFFCURVE",
"381 721 OFFCURVE",
"525 644 CURVE",
"517 653 LINE",
"505 522 LINE",
"519 522 LINE",
"546 659 LINE",
"378 744 OFFCURVE",
"143 686 OFFCURVE",
"143 513 CURVE SMOOTH",
"143 310 OFFCURVE",
"465 388 OFFCURVE",
"465 193 CURVE SMOOTH",
"465 31 OFFCURVE",
"243 -30 OFFCURVE",
"83 50 CURVE",
"86 41 LINE",
"95 175 LINE",
"81 175 LINE",
"54 36 LINE",
"231 -56 OFFCURVE"
);
}
);
};
layerId = "075BA79B-D813-4287-A9DD-CCAF2D535ED3";
paths = (
{
closed = 1;
nodes = (
"363 -6 OFFCURVE",
"486 65 OFFCURVE",
"486 196 CURVE SMOOTH",
"486 407 OFFCURVE",
"164 328 OFFCURVE",
"164 514 CURVE SMOOTH",
"164 620 OFFCURVE",
"269 679 OFFCURVE",
"381 679 CURVE SMOOTH",
"430 679 OFFCURVE",
"481 668 OFFCURVE",
"525 644 CURVE",
"517 653 LINE",
"505 522 LINE",
"519 522 LINE",
"546 659 LINE",
"495 685 OFFCURVE",
"437 698 OFFCURVE",
"381 698 CURVE SMOOTH",
"256 698 OFFCURVE",
"143 633 OFFCURVE",
"143 513 CURVE SMOOTH",
"143 310 OFFCURVE",
"465 388 OFFCURVE",
"465 193 CURVE SMOOTH",
"465 79 OFFCURVE",
"355 15 OFFCURVE",
"234 15 CURVE SMOOTH",
"183 15 OFFCURVE",
"130 26 OFFCURVE",
"83 50 CURVE",
"86 41 LINE",
"95 175 LINE",
"81 175 LINE",
"54 36 LINE",
"108 8 OFFCURVE",
"169 -6 OFFCURVE",
"229 -6 CURVE SMOOTH"
);
}
);
width = 590;
},
{
anchors = (
{
name = bottom;
position = "{250, 0}";
},
{
name = top;
position = "{364, 710}";
}
);
background = {
paths = (
{
closed = 1;
nodes = (
"253 -67 OFFCURVE",
"548 -8 OFFCURVE",
"548 241 CURVE SMOOTH",
"548 473 OFFCURVE",
"260 433 OFFCURVE",
"260 524 CURVE SMOOTH",
"260 585 OFFCURVE",
"359 588 OFFCURVE",
"445 565 CURVE",
"424 582 LINE",
"436 486 LINE",
"550 486 LINE",
"589 677 LINE",
"339 777 OFFCURVE",
"66 719 OFFCURVE",
"66 480 CURVE SMOOTH",
"66 254 OFFCURVE",
"352 298 OFFCURVE",
"352 195 CURVE SMOOTH",
"352 124 OFFCURVE",
"227 118 OFFCURVE",
"139 156 CURVE",
"157 126 LINE",
"148 241 LINE",
"32 241 LINE",
"-2 28 LINE"
);
}
);
};
guideLines = (
{
angle = -99;
position = "{32, 241}";
},
{
angle = -99;
position = "{538, 231}";
},
{
angle = -99;
position = "{311, 382}";
}
);
layerId = "927AED37-E9E6-4F96-A08E-421C3785EFC6";
paths = (
{
closed = 1;
nodes = (
"403 -15 OFFCURVE",
"548 68 OFFCURVE",
"548 238 CURVE SMOOTH",
"548 478 OFFCURVE",
"260 429 OFFCURVE",
"260 526 CURVE SMOOTH",
"260 562 OFFCURVE",
"300 578 OFFCURVE",
"352 578 CURVE SMOOTH",
"381 578 OFFCURVE",
"414 573 OFFCURVE",
"445 565 CURVE",
"424 582 LINE",
"436 486 LINE",
"550 486 LINE",
"589 677 LINE",
"512 708 OFFCURVE",
"432 724 OFFCURVE",
"359 724 CURVE SMOOTH",
"196 724 OFFCURVE",
"66 643 OFFCURVE",
"66 484 CURVE SMOOTH",
"66 249 OFFCURVE",
"352 301 OFFCURVE",
"352 195 CURVE SMOOTH",
"352 152 OFFCURVE",
"306 133 OFFCURVE",
"250 133 CURVE SMOOTH",
"214 133 OFFCURVE",
"174 141 OFFCURVE",
"139 156 CURVE",
"157 126 LINE",
"148 241 LINE",
"32 241 LINE",
"-2 28 LINE",
"74 0 OFFCURVE",
"154 -15 OFFCURVE",
"228 -15 CURVE SMOOTH"
);
}
);
width = 577;
},
{
layerId = "89F00A14-383C-41A8-AF30-A12CE933D7AF";
paths = (
{
closed = 1;
nodes = (
"360 -10 OFFCURVE",
"500 73 OFFCURVE",
"500 239 CURVE SMOOTH",
"500 427 OFFCURVE",
"218 389 OFFCURVE",
"218 520 CURVE SMOOTH",
"218 577 OFFCURVE",
"270 625 OFFCURVE",
"355 625 CURVE SMOOTH",
"402 625 OFFCURVE",
"453 607 OFFCURVE",
"453 607 CURVE",
"467 500 LINE",
"523 500 LINE",
"555 670 LINE",
"555 670 OFFCURVE",
"457 710 OFFCURVE",
"371 710 CURVE SMOOTH",
"243 710 OFFCURVE",
"111 642 OFFCURVE",
"111 485 CURVE SMOOTH",
"111 284 OFFCURVE",
"393 329 OFFCURVE",
"393 196 CURVE SMOOTH",
"393 117 OFFCURVE",
"307 75 OFFCURVE",
"235 75 CURVE SMOOTH",
"176 75 OFFCURVE",
"130 96 OFFCURVE",
"130 96 CURVE",
"127 205 LINE",
"61 205 LINE",
"33 30 LINE",
"33 30 OFFCURVE",
"121 -10 OFFCURVE",
"220 -10 CURVE SMOOTH"
);
}
);
width = 578;
},
{
anchors = (
{
name = bottom;
position = "{249, 0}";
},
{
name = top;
position = "{367, 710}";
}
);
associatedMasterId = "927AED37-E9E6-4F96-A08E-421C3785EFC6";
background = {
anchors = (
{
name = bottom;
position = "{249, 0}";
},
{
name = top;
position = "{367, 710}";
}
);
paths = (
{
closed = 1;
nodes = (
"266 562 OFFCURVE",
"309 577 OFFCURVE",
"357 577 CURVE SMOOTH",
"386 577 OFFCURVE",
"415 572 OFFCURVE",
"440 563 CURVE",
"424 582 LINE",
"435 486 LINE",
"550 486 LINE",
"593 679 LINE",
"518 709 OFFCURVE",
"440 725 OFFCURVE",
"368 725 CURVE SMOOTH",
"217 725 OFFCURVE",
"92 655 OFFCURVE",
"67 496 CURVE SMOOTH",
"27 245 OFFCURVE",
"368 298 OFFCURVE",
"350 188 CURVE SMOOTH",
"344 149 OFFCURVE",
"299 132 OFFCURVE",
"248 132 CURVE SMOOTH",
"212 132 OFFCURVE",
"173 141 OFFCURVE",
"144 157 CURVE",
"156 126 LINE",
"149 241 LINE",
"32 241 LINE",
"-2 26 LINE",
"68 -2 OFFCURVE",
"143 -16 OFFCURVE",
"216 -16 CURVE SMOOTH",
"376 -16 OFFCURVE",
"521 55 OFFCURVE",
"546 215 CURVE SMOOTH",
"587 470 OFFCURVE",
"245 426 OFFCURVE",
"261 528 CURVE SMOOTH"
);
}
);
};
guideLines = (
{
angle = -99;
position = "{32, 241}";
},
{
angle = -99;
position = "{517, 231}";
}
);
layerId = "ADF12B8F-B310-46E3-938A-717189D5C827";
name = "Aug 18 17, 19:15";
paths = (
{
closed = 1;
nodes = (
"403 -14 OFFCURVE",
"548 71 OFFCURVE",
"548 244 CURVE SMOOTH",
"548 476 OFFCURVE",
"260 428 OFFCURVE",
"260 524 CURVE SMOOTH",
"260 561 OFFCURVE",
"302 579 OFFCURVE",
"353 579 CURVE SMOOTH",
"382 579 OFFCURVE",
"415 573 OFFCURVE",
"445 565 CURVE",
"424 582 LINE",
"436 486 LINE",
"550 486 LINE",
"589 677 LINE",
"511 708 OFFCURVE",
"433 724 OFFCURVE",
"363 724 CURVE SMOOTH",
"194 724 OFFCURVE",
"66 631 OFFCURVE",
"66 475 CURVE SMOOTH",
"66 244 OFFCURVE",
"352 302 OFFCURVE",
"352 195 CURVE SMOOTH",
"352 153 OFFCURVE",
"307 131 OFFCURVE",
"249 131 CURVE SMOOTH",
"214 131 OFFCURVE",
"174 139 OFFCURVE",
"139 154 CURVE",
"157 126 LINE",
"148 241 LINE",
"32 241 LINE",
"-2 28 LINE",
"74 0 OFFCURVE",
"152 -14 OFFCURVE",
"225 -14 CURVE SMOOTH"
);
}
);
width = 577;
}
);
leftKerningGroup = S;
rightKerningGroup = S;
unicode = 0053;
},
{
color = 1;
glyphname = Scedilla;
layers = (
{
background = {
guideLines = (
{
angle = -99;
position = "{75, -45}";
}
);
paths = (
{
closed = 1;
nodes = (
"520 426 OFFCURVE",
"134 312 OFFCURVE",
"168 527 CURVE SMOOTH",
"185 635 OFFCURVE",
"282 678 OFFCURVE",
"378 678 CURVE SMOOTH",
"427 678 OFFCURVE",
"477 666 OFFCURVE",
"515 647 CURVE",
"504 522 LINE",
"518 522 LINE",
"545 659 LINE",
"494 685 OFFCURVE",
"438 698 OFFCURVE",
"384 698 CURVE SMOOTH",
"265 698 OFFCURVE",
"165 640 OFFCURVE",
"147 523 CURVE SMOOTH",
"111 290 OFFCURVE",
"497 404 OFFCURVE",
"461 178 CURVE SMOOTH",
"444 71 OFFCURVE",
"342 15 OFFCURVE",
"234 15 CURVE SMOOTH",
"184 15 OFFCURVE",
"134 26 OFFCURVE",
"88 49 CURVE",
"97 175 LINE",
"83 175 LINE",
"55 36 LINE",
"109 8 OFFCURVE",
"169 -6 OFFCURVE",
"228 -6 CURVE SMOOTH",
"235 -6 OFFCURVE",
"242 -6 OFFCURVE",
"250 -5 CURVE",
"233 -87 LINE",
"297 -88 OFFCURVE",
"323 -106 OFFCURVE",
"318 -141 CURVE SMOOTH",
"313 -175 OFFCURVE",
"280 -192 OFFCURVE",
"243 -192 CURVE SMOOTH",
"223 -192 OFFCURVE",
"201 -187 OFFCURVE",
"183 -179 CURVE",
"173 -196 LINE",
"194 -207 OFFCURVE",
"218 -212 OFFCURVE",
"240 -212 CURVE SMOOTH",
"288 -212 OFFCURVE",
"330 -188 OFFCURVE",
"338 -138 CURVE SMOOTH",
"344 -102 OFFCURVE",
"328 -74 OFFCURVE",
"258 -68 CURVE",
"268 -4 LINE",
"374 9 OFFCURVE",
"465 70 OFFCURVE",
"482 181 CURVE SMOOTH"
);
}
);
};
components = (
{
name = S;
},
{
alignment = -1;
name = cedillacomb.case;
transform = "{1, 0, 0, 1, 145, 0}";
}
);
layerId = "075BA79B-D813-4287-A9DD-CCAF2D535ED3";
width = 590;
},
{
background = {
paths = (
{
closed = 1;
nodes = (
"588 470 OFFCURVE",
"248 426 OFFCURVE",
"266 528 CURVE SMOOTH",
"272 562 OFFCURVE",
"313 577 OFFCURVE",
"361 577 CURVE SMOOTH",
"384 577 OFFCURVE",
"407 574 OFFCURVE",
"429 568 CURVE",
"438 486 LINE",
"552 486 LINE",
"595 679 LINE",
"521 709 OFFCURVE",
"443 725 OFFCURVE",
"372 725 CURVE SMOOTH",
"223 725 OFFCURVE",
"98 655 OFFCURVE",
"73 496 CURVE SMOOTH",
"34 245 OFFCURVE",
"371 298 OFFCURVE",
"354 188 CURVE SMOOTH",
"348 149 OFFCURVE",
"303 132 OFFCURVE",
"252 132 CURVE SMOOTH",
"221 132 OFFCURVE",
"187 139 OFFCURVE",
"159 152 CURVE",
"154 241 LINE",
"38 241 LINE",
"4 26 LINE",
"62 3 OFFCURVE",
"123 -11 OFFCURVE",
"184 -15 CURVE",
"162 -117 LINE",
"210 -119 OFFCURVE",
"261 -129 OFFCURVE",
"257 -151 CURVE SMOOTH",
"254 -166 OFFCURVE",
"240 -172 OFFCURVE",
"219 -172 CURVE SMOOTH",
"194 -172 OFFCURVE",
"161 -164 OFFCURVE",
"136 -154 CURVE",
"87 -246 LINE",
"121 -266 OFFCURVE",
"162 -275 OFFCURVE",
"203 -275 CURVE SMOOTH",
"291 -275 OFFCURVE",
"377 -232 OFFCURVE",
"391 -146 CURVE SMOOTH",
"400 -89 OFFCURVE",
"363 -49 OFFCURVE",
"291 -39 CURVE",
"296 -10 LINE",
"422 9 OFFCURVE",
"527 81 OFFCURVE",
"548 215 CURVE SMOOTH"
);
}
);
};
components = (
{
name = S;
},
{
name = cedillacomb.case;
transform = "{1, 0, 0, 1, 137, 0}";
}
);
layerId = "927AED37-E9E6-4F96-A08E-421C3785EFC6";
width = 577;
},
{
background = {
components = (
{
name = S;
},
{
name = cedilla;
transform = "{1, 0, 0, 1, 6, 0}";
}
);
};
components = (
{
name = S;
},
{
name = cedilla;
transform = "{1, 0, 0, 1, 6, 0}";
}
);
layerId = "89F00A14-383C-41A8-AF30-A12CE933D7AF";
width = 578;
}
);
leftKerningGroup = S;
rightKerningGroup = S;
unicode = 015E;
},
{
color = 1;
glyphname = Sdotbelowdotaccent;
layers = (
{
background = {
components = (
{
name = S;
},
{
name = dotaccentcomb.case;
transform = "{1, 0, 0, 1, 187, -1}";
},
{
name = dotbelowcomb.case;
transform = "{1, 0, 0, 1, 249, 0}";
}
);
};
components = (
{
name = S;
},
{
name = dotaccentcomb.case;
transform = "{1, 0, 0, 1, 198, -1}";
},
{
name = dotbelowcomb.case;
transform = "{1, 0, 0, 1, 180, 0}";
}
);
guideLines = (
{
angle = 90;
position = "{-153, 0}";
}
);
layerId = "075BA79B-D813-4287-A9DD-CCAF2D535ED3";
width = 590;
},
{
background = {
paths = (
{
closed = 1;
nodes = (
"268 562 OFFCURVE",
"311 577 OFFCURVE",
"359 577 CURVE SMOOTH",
"387 577 OFFCURVE",
"416 572 OFFCURVE",
"441 563 CURVE",
"425 582 LINE",
"436 486 LINE",
"550 486 LINE",
"593 679 LINE",
"519 709 OFFCURVE",
"441 725 OFFCURVE",
"370 725 CURVE SMOOTH",
"220 725 OFFCURVE",
"96 655 OFFCURVE",
"71 496 CURVE SMOOTH",
"32 245 OFFCURVE",
"368 298 OFFCURVE",
"351 188 CURVE SMOOTH",
"345 149 OFFCURVE",
"301 132 OFFCURVE",
"250 132 CURVE SMOOTH",
"214 132 OFFCURVE",
"175 141 OFFCURVE",
"146 157 CURVE",
"159 126 LINE",
"152 241 LINE",
"36 241 LINE",
"2 26 LINE",
"71 -2 OFFCURVE",
"146 -16 OFFCURVE",
"218 -16 CURVE SMOOTH",
"377 -16 OFFCURVE",
"521 55 OFFCURVE",
"546 215 CURVE SMOOTH",
"586 470 OFFCURVE",
"248 426 OFFCURVE",
"263 528 CURVE SMOOTH"
);
},
{
closed = 1;
nodes = (
"435 761 OFFCURVE",
"486 798 OFFCURVE",
"497 870 CURVE SMOOTH",
"508 943 OFFCURVE",
"471 978 OFFCURVE",
"411 978 CURVE SMOOTH",
"350 978 OFFCURVE",
"299 942 OFFCURVE",
"288 869 CURVE SMOOTH",
"277 799 OFFCURVE",
"313 761 OFFCURVE",
"375 761 CURVE SMOOTH"
);
},
{
closed = 1;
nodes = (
"269 -258 OFFCURVE",
"320 -221 OFFCURVE",
"331 -149 CURVE SMOOTH",
"342 -76 OFFCURVE",
"305 -41 OFFCURVE",
"245 -41 CURVE SMOOTH",
"184 -41 OFFCURVE",
"133 -77 OFFCURVE",
"122 -150 CURVE SMOOTH",
"111 -220 OFFCURVE",
"147 -258 OFFCURVE",
"209 -258 CURVE SMOOTH"
);
}
);
};
components = (
{
name = S;
},
{
name = dotaccentcomb.case;
transform = "{1, 0, 0, 1, 156, 0}";
},
{
name = dotbelowcomb.case;
transform = "{1, 0, 0, 1, 154, 0}";
}
);
layerId = "927AED37-E9E6-4F96-A08E-421C3785EFC6";
width = 577;
},
{
layerId = "89F00A14-383C-41A8-AF30-A12CE933D7AF";
width = 600;
}
);
leftKerningGroup = S;
rightKerningGroup = S;
unicode = 1E68;
},
{
color = 1;
glyphname = Germandbls;
layers = (
{
background = {
paths = (
{
closed = 1;
nodes = (
"553 -6 OFFCURVE",
"622 89 OFFCURVE",
"637 183 CURVE SMOOTH",
"657 313 OFFCURVE",
"573 373 OFFCURVE",
"405 390 CURVE",
"406 381 LINE",
"634 626 LINE",
"637 647 LINE",
"568 681 OFFCURVE",
"499 698 OFFCURVE",
"437 698 CURVE SMOOTH",
"305 698 OFFCURVE",
"202 619 OFFCURVE",
"174 447 CURVE SMOOTH",
"107 21 LINE",
"115 29 LINE",
"10 15 LINE",
"8 0 LINE",
"123 0 LINE",
"194 447 LINE SMOOTH",
"219 606 OFFCURVE",
"312 679 OFFCURVE",
"434 679 CURVE SMOOTH",
"491 679 OFFCURVE",
"556 663 OFFCURVE",
"622 631 CURVE",
"622 640 LINE",
"390 391 LINE",
"387 373 LINE",
"552 356 OFFCURVE",
"634 302 OFFCURVE",
"615 182 CURVE SMOOTH",
"602 97 OFFCURVE",
"539 14 OFFCURVE",
"421 14 CURVE SMOOTH",
"359 14 OFFCURVE",
"316 30 OFFCURVE",
"283 46 CURVE",
"286 37 LINE",
"296 171 LINE",
"281 171 LINE",
"254 32 LINE",
"295 10 OFFCURVE",
"344 -6 OFFCURVE",
"412 -6 CURVE SMOOTH"
);
}
);
};
layerId = "075BA79B-D813-4287-A9DD-CCAF2D535ED3";
paths = (
{
closed = 1;
nodes = (
"553 -6 OFFCURVE",
"622 88 OFFCURVE",
"636 182 CURVE SMOOTH",
"657 312 OFFCURVE",
"572 373 OFFCURVE",
"405 390 CURVE",
"406 381 LINE",
"634 626 LINE",
"636 647 LINE",
"567 681 OFFCURVE",
"499 698 OFFCURVE",
"436 698 CURVE SMOOTH",
"305 698 OFFCURVE",
"202 620 OFFCURVE",
"174 448 CURVE SMOOTH",
"107 21 LINE",
"115 29 LINE",
"10 15 LINE",
"8 0 LINE",
"123 0 LINE",
"193 446 LINE SMOOTH",
"219 605 OFFCURVE",
"312 679 OFFCURVE",
"435 679 CURVE SMOOTH",
"492 679 OFFCURVE",
"557 663 OFFCURVE",
"623 631 CURVE",
"622 640 LINE",
"390 391 LINE",
"388 373 LINE",
"552 356 OFFCURVE",
"634 303 OFFCURVE",
"615 183 CURVE SMOOTH",
"602 98 OFFCURVE",
"538 14 OFFCURVE",
"419 14 CURVE SMOOTH",
"359 14 OFFCURVE",
"315 30 OFFCURVE",
"282 46 CURVE",
"286 37 LINE",
"296 171 LINE",
"281 171 LINE",
"254 32 LINE",
"296 10 OFFCURVE",
"345 -6 OFFCURVE",
"413 -6 CURVE SMOOTH"
);
}
);
width = 715;
},
{
background = {
paths = (
{
closed = 1;
nodes = (
"487 -58 OFFCURVE",
"685 14 OFFCURVE",
"685 224 CURVE SMOOTH",
"685 338 OFFCURVE",
"603 380 OFFCURVE",
"512 407 CURVE",
"525 384 LINE",
"677 561 LINE",
"696 673 LINE",
"400 779 OFFCURVE",
"146 739 OFFCURVE",
"100 445 CURVE",
"290 427 LINE",
"314 575 OFFCURVE",
"379 604 OFFCURVE",
"523 557 CURVE",
"522 607 LINE",
"378 427 LINE",
"360 312 LINE",
"445 298 OFFCURVE",
"488 283 OFFCURVE",
"488 222 CURVE SMOOTH",
"488 167 OFFCURVE",
"454 102 OFFCURVE",
"384 139 CURVE",
"415 113 LINE",
"404 204 LINE",
"290 204 LINE",
"259 10 LINE"
);
},
{
closed = 1;
nodes = (
"222 0 LINE",
"317 595 LINE",
"120 595 LINE",
"42 105 LINE",
"66 131 LINE",
"-24 100 LINE",
"-40 0 LINE"
);
}
);
};
layerId = "927AED37-E9E6-4F96-A08E-421C3785EFC6";
paths = (
{
closed = 1;
nodes = (
"572 -15 OFFCURVE",
"685 65 OFFCURVE",
"685 224 CURVE SMOOTH",
"685 338 OFFCURVE",
"603 380 OFFCURVE",
"512 407 CURVE",
"525 384 LINE",
"677 561 LINE",
"696 673 LINE",
"600 707 OFFCURVE",
"509 726 OFFCURVE",
"427 726 CURVE SMOOTH",
"257 726 OFFCURVE",
"128 644 OFFCURVE",
"96 445 CURVE SMOOTH",
"42 104 LINE",
"66 131 LINE",
"-22 100 LINE",
"-38 0 LINE",
"222 0 LINE",
"290 427 LINE SMOOTH",
"307 533 OFFCURVE",
"345 578 OFFCURVE",
"418 578 CURVE SMOOTH",
"447 578 OFFCURVE",
"482 570 OFFCURVE",
"523 557 CURVE",
"522 607 LINE",
"378 427 LINE",
"360 312 LINE",
"445 298 OFFCURVE",
"488 283 OFFCURVE",
"488 222 CURVE SMOOTH",
"488 178 OFFCURVE",
"466 128 OFFCURVE",
"422 128 CURVE SMOOTH",
"411 128 OFFCURVE",
"398 131 OFFCURVE",
"384 139 CURVE",
"415 113 LINE",
"404 204 LINE",
"290 204 LINE",
"259 10 LINE",
"314 -7 OFFCURVE",
"368 -15 OFFCURVE",
"418 -15 CURVE SMOOTH"
);
}
);
width = 705;
},
{
layerId = "89F00A14-383C-41A8-AF30-A12CE933D7AF";
width = 600;
}
);
leftKerningGroup = H;
rightKerningGroup = B;
unicode = 1E9E;
},
{
color = 1;
glyphname = T;
layers = (
{
anchors = (
{
name = bottom;
position = "{226, 0}";
},
{
name = center;
position = "{281, 346}";
},
{
name = top;
position = "{336, 692}";
}
);
background = {
anchors = (
{
name = bottom;
position = "{226, 0}";
},
{
name = center;
position = "{281, 346}";
},
{
name = top;
position = "{336, 692}";
}
);
paths = (
{
closed = 1;
nodes = (
"346 0 LINE",
"348 15 LINE",
"234 29 LINE",
"239 21 LINE",
"343 680 LINE",
"336 673 LINE",
"543 673 LINE",
"536 680 LINE",
"531 552 LINE",
"545 552 LINE",
"567 692 LINE",
"104 692 LINE",
"82 552 LINE",
"97 552 LINE",
"131 680 LINE",
"122 673 LINE",
"330 673 LINE",
"324 680 LINE",
"220 21 LINE",
"228 29 LINE",
"108 15 LINE",
"106 0 LINE"
);
}
);
};
layerId = "075BA79B-D813-4287-A9DD-CCAF2D535ED3";
paths = (
{
closed = 1;
nodes = (
"346 0 LINE",
"348 15 LINE",
"234 29 LINE",
"239 21 LINE",
"343 680 LINE",
"335 673 LINE",
"546 673 LINE",
"539 680 LINE",
"534 552 LINE",
"548 552 LINE",
"570 692 LINE",
"100 692 LINE",
"78 552 LINE",
"93 552 LINE",
"127 680 LINE",
"118 673 LINE",
"330 673 LINE",
"323 680 LINE",
"219 21 LINE",
"228 29 LINE",
"107 15 LINE",
"105 0 LINE"
);
}
);
width = 534;
},
{
anchors = (
{
name = bottom;
position = "{256, 0}";
},
{
name = center;
position = "{312, 355}";
},
{
name = top;
position = "{368, 710}";
}
);
background = {
paths = (
{
closed = 1;
nodes = (
"528 710 LINE",
"215 705 LINE",
"199 605 LINE",
"273 571 LINE",
"254 600 LINE",
"175 105 LINE",
"199 131 LINE",
"109 100 LINE",
"93 0 LINE",
"425 0 LINE",
"441 100 LINE",
"362 132 LINE",
"372 105 LINE",
"451 600 LINE",
"429 572 LINE",
"512 610 LINE"
);
}
);
};
guideLines = (
{
angle = -99;
position = "{295, 243}";
},
{
angle = -99;
position = "{-2, 231}";
},
{
angle = -99;
position = "{585, 231}";
}
);
layerId = "927AED37-E9E6-4F96-A08E-421C3785EFC6";
paths = (
{
closed = 1;
nodes = (
"425 0 LINE",
"441 100 LINE",
"362 132 LINE",
"372 105 LINE",
"450 595 LINE",
"404 565 LINE",
"535 565 LINE",
"499 595 LINE",
"510 474 LINE",
"625 474 LINE",
"663 710 LINE",
"72 710 LINE",
"35 474 LINE",
"150 474 LINE",
"199 603 LINE",
"152 565 LINE",
"284 565 LINE",
"253 595 LINE",
"175 105 LINE",
"199 131 LINE",
"109 100 LINE",
"93 0 LINE"
);
}
);
width = 595;
},
{
layerId = "89F00A14-383C-41A8-AF30-A12CE933D7AF";
paths = (
{
closed = 1;
nodes = (
"381 0 LINE",
"391 60 LINE",
"295 80 LINE",
"381 620 LINE",
"510 620 LINE",
"520 520 LINE",
"584 520 LINE",
"613 700 LINE",
"75 700 LINE",
"45 520 LINE",
"110 520 LINE",
"151 620 LINE",
"281 620 LINE",
"195 80 LINE",
"92 60 LINE",
"82 0 LINE"
);
}
);
width = 549;
}
);
leftKerningGroup = T;
rightKerningGroup = T;
unicode = 0054;
},
{
color = 1;
glyphname = Tbar;
layers = (
{
background = {
components = (
{
name = T;
}
);
paths = (
{
closed = 1;
nodes = (
"130 356 LINE",
"433 356 LINE",
"436 375 LINE",
"133 375 LINE"
);
}
);
};
components = (
{
name = T;
}
);
layerId = "075BA79B-D813-4287-A9DD-CCAF2D535ED3";
paths = (
{
closed = 1;
nodes = (
"130 356 LINE",
"433 356 LINE",
"436 375 LINE",
"133 375 LINE"
);
}
);
width = 534;
},
{
background = {
components = (
{
name = T;
}
);
paths = (
{
closed = 1;
nodes = (
"89 279 LINE",
"514 279 LINE",
"533 394 LINE",
"107 394 LINE"
);
}
);
};
components = (
{
name = T;
}
);
layerId = "927AED37-E9E6-4F96-A08E-421C3785EFC6";
paths = (
{
closed = 1;
nodes = (
"89 279 LINE",
"514 279 LINE",
"533 394 LINE",
"107 394 LINE"
);
}
);
width = 595;
},
{
background = {
components = (
{
name = T;
}
);
paths = (
{
closed = 1;
nodes = (
"476 316 LINE",
"490 395 LINE",
"106 395 LINE",
"92 316 LINE"
);
}
);
};
components = (
{
name = T;
}
);
layerId = "89F00A14-383C-41A8-AF30-A12CE933D7AF";
paths = (
{
closed = 1;
nodes = (
"476 316 LINE",
"490 395 LINE",
"106 395 LINE",
"92 316 LINE"
);
}
);
width = 549;
}
);
leftKerningGroup = T;
leftMetricsKey = T;
rightKerningGroup = T;
rightMetricsKey = T;
unicode = 0166;
},
{
color = 1;
glyphname = Tcedilla;
layers = (
{
background = {
components = (
{
name = T;
},
{
name = cedillacomb.case;
transform = "{1, 0, 0, 1, 130, 0}";
}
);
};
components = (
{
name = T;
},
{
alignment = -1;
name = cedillacomb.case;
transform = "{1, 0, 0, 1, 111, 0}";
}
);
layerId = "075BA79B-D813-4287-A9DD-CCAF2D535ED3";
width = 534;
},
{
background = {
components = (
{
name = T;
}
);
paths = (
{
closed = 1;
nodes = (
"40 474 LINE",
"154 474 LINE",
"191 565 LINE",
"248 565 LINE",
"178 123 LINE",
"108 100 LINE",
"92 0 LINE",
"191 0 LINE",
"165 -117 LINE",
"213 -119 OFFCURVE",
"264 -129 OFFCURVE",
"260 -151 CURVE SMOOTH",
"257 -166 OFFCURVE",
"243 -172 OFFCURVE",
"222 -172 CURVE SMOOTH",
"197 -172 OFFCURVE",
"164 -164 OFFCURVE",
"139 -154 CURVE",
"90 -246 LINE",
"124 -266 OFFCURVE",
"165 -275 OFFCURVE",
"206 -275 CURVE SMOOTH",
"294 -275 OFFCURVE",
"380 -232 OFFCURVE",
"394 -146 CURVE SMOOTH",
"403 -89 OFFCURVE",
"366 -49 OFFCURVE",
"294 -39 CURVE",
"300 0 LINE",
"420 0 LINE",
"436 100 LINE",
"373 124 LINE",
"443 565 LINE",
"500 565 LINE",
"508 474 LINE",
"622 474 LINE",
"659 710 LINE",
"78 710 LINE"
);
}
);
};
components = (
{
name = T;
},
{
name = cedillacomb.case;
transform = "{1, 0, 0, 1, 143, 0}";
}
);
layerId = "927AED37-E9E6-4F96-A08E-421C3785EFC6";
width = 595;
},
{
background = {
components = (
{
name = T;
},
{
name = cedilla;
}
);
};
components = (
{
name = T;
},
{
name = cedilla;
}
);
layerId = "89F00A14-383C-41A8-AF30-A12CE933D7AF";
width = 549;
}
);
leftKerningGroup = T;
rightKerningGroup = T;
unicode = 0162;
},
{
color = 1;
glyphname = U;
layers = (
{
anchors = (
{
name = bottom;
position = "{331, 0}";
},
{
name = ogonek;
position = "{398, 0}";
},
{
name = top;
position = "{441, 692}";
},
{
name = topright;
position = "{751, 690}";
}
);
background = {
anchors = (
{
name = bottom;
position = "{331, 0}";
},
{
name = ogonek;
position = "{398, 0}";
},
{
name = top;
position = "{441, 692}";
},
{
name = topright;
position = "{717, 689}";
}
);
paths = (
{
closed = 1;
nodes = (
"552 672 LINE",
"653 664 LINE",
"647 671 LINE",
"581 254 LINE SMOOTH",
"557 101 OFFCURVE",
"498 13 OFFCURVE",
"329 13 CURVE SMOOTH",
"175 13 OFFCURVE",
"135 88 OFFCURVE",
"159 245 CURVE SMOOTH",
"227 671 LINE",
"219 663 LINE",
"324 677 LINE",
"326 692 LINE",
"114 687 LINE",
"112 672 LINE",
"213 663 LINE",
"208 671 LINE",
"140 245 LINE SMOOTH",
"114 78 OFFCURVE",
"160 -6 OFFCURVE",
"327 -6 CURVE SMOOTH",
"507 -6 OFFCURVE",
"575 90 OFFCURVE",
"601 254 CURVE SMOOTH",
"667 671 LINE",
"659 663 LINE",
"764 677 LINE",
"766 692 LINE",
"554 687 LINE"
);
}
);
};
layerId = "075BA79B-D813-4287-A9DD-CCAF2D535ED3";
paths = (
{
closed = 1;
nodes = (
"552 672 LINE",
"653 664 LINE",
"647 671 LINE",
"581 255 LINE SMOOTH",
"557 102 OFFCURVE",
"498 13 OFFCURVE",
"328 13 CURVE SMOOTH",
"201 13 OFFCURVE",
"152 63 OFFCURVE",
"152 168 CURVE SMOOTH",
"152 191 OFFCURVE",
"155 216 OFFCURVE",
"159 244 CURVE SMOOTH",
"227 671 LINE",
"219 663 LINE",
"324 677 LINE",
"326 692 LINE",
"113 687 LINE",
"111 672 LINE",
"213 663 LINE",
"207 671 LINE",
"139 246 LINE SMOOTH",
"134 218 OFFCURVE",
"132 192 OFFCURVE",
"132 168 CURVE SMOOTH",
"132 53 OFFCURVE",
"189 -6 OFFCURVE",
"328 -6 CURVE SMOOTH",
"507 -6 OFFCURVE",
"575 89 OFFCURVE",
"601 253 CURVE SMOOTH",
"667 671 LINE",
"658 663 LINE",
"765 677 LINE",
"767 692 LINE",
"554 687 LINE"
);
}
);
width = 743;
},
{
anchors = (
{
name = bottom;
position = "{309, 0}";
},
{
name = ogonek;
position = "{443, 10}";
},
{
name = top;
position = "{422, 710}";
},
{
name = topright;
position = "{718, 709}";
}
);
background = {
anchors = (
{
name = bottom;
position = "{308, 0}";
},
{
name = ogonek;
position = "{422, 0}";
},
{
name = top;
position = "{427, 710}";
},
{
name = topright;
position = "{657, 707}";
}
);
paths = (
{
closed = 1;
nodes = (
"767 710 LINE",
"454 705 LINE",
"438 605 LINE",
"512 571 LINE",
"493 600 LINE",
"414 105 LINE",
"438 131 LINE",
"358 100 LINE",
"342 0 LINE",
"654 0 LINE",
"670 100 LINE",
"601 132 LINE",
"611 105 LINE",
"690 600 LINE",
"668 572 LINE",
"751 610 LINE"
);
},
{
closed = 1;
nodes = (
"392 710 LINE",
"79 705 LINE",
"63 605 LINE",
"137 571 LINE",
"118 600 LINE",
"39 105 LINE",
"63 131 LINE",
"-17 100 LINE",
"-33 0 LINE",
"279 0 LINE",
"295 100 LINE",
"226 132 LINE",
"236 105 LINE",
"315 600 LINE",
"293 572 LINE",
"376 610 LINE"
);
}
);
};
guideLines = (
{
angle = -99;
position = "{694, 231}";
}
);
layerId = "927AED37-E9E6-4F96-A08E-421C3785EFC6";
paths = (
{
closed = 1;
nodes = (
"438 605 LINE",
"512 571 LINE",
"493 600 LINE",
"444 291 LINE SMOOTH",
"428 189 OFFCURVE",
"399 140 OFFCURVE",
"322 140 CURVE SMOOTH",
"274 140 OFFCURVE",
"256 159 OFFCURVE",
"256 205 CURVE SMOOTH",
"256 221 OFFCURVE",
"258 241 OFFCURVE",
"262 264 CURVE SMOOTH",
"315 600 LINE",
"293 572 LINE",
"370 610 LINE",
"386 710 LINE",
"79 705 LINE",
"63 605 LINE",
"134 573 LINE",
"118 600 LINE",
"66 276 LINE SMOOTH",
"62 248 OFFCURVE",
"59 223 OFFCURVE",
"59 200 CURVE SMOOTH",
"59 53 OFFCURVE",
"145 -15 OFFCURVE",
"310 -15 CURVE SMOOTH",
"494 -15 OFFCURVE",
"607 67 OFFCURVE",
"640 279 CURVE SMOOTH",
"690 600 LINE",
"668 572 LINE",
"751 610 LINE",
"767 710 LINE",
"454 705 LINE"
);
}
);
width = 704;
},
{
background = {
paths = (
{
closed = 1;
nodes = (
"542 -10 OFFCURVE",
"624 110 OFFCURVE",
"653 295 CURVE SMOOTH",
"705 620 LINE",
"789 640 LINE",
"799 700 LINE",
"523 695 LINE",
"514 640 LINE",
"604 620 LINE",
"550 285 LINE SMOOTH",
"526 135 OFFCURVE",
"475 75 OFFCURVE",
"355 75 CURVE SMOOTH",
"236 75 OFFCURVE",
"202 136 OFFCURVE",
"224 270 CURVE SMOOTH",
"280 620 LINE",
"367 640 LINE",
"377 700 LINE",
"103 695 LINE",
"94 640 LINE",
"179 620 LINE",
"123 270 LINE SMOOTH",
"97 87 OFFCURVE",
"151 -10 OFFCURVE",
"336 -10 CURVE SMOOTH"
);
}
);
};
layerId = "89F00A14-383C-41A8-AF30-A12CE933D7AF";
paths = (
{
closed = 1;
nodes = (
"542 -10 OFFCURVE",
"624 110 OFFCURVE",
"653 295 CURVE SMOOTH",
"705 620 LINE",
"789 640 LINE",
"799 700 LINE",
"523 695 LINE",
"514 640 LINE",
"604 620 LINE",
"550 285 LINE SMOOTH",
"526 135 OFFCURVE",
"475 75 OFFCURVE",
"355 75 CURVE SMOOTH",
"236 75 OFFCURVE",
"202 136 OFFCURVE",
"224 270 CURVE SMOOTH",
"280 620 LINE",
"367 640 LINE",
"377 700 LINE",
"103 695 LINE",
"94 640 LINE",
"179 620 LINE",
"123 270 LINE SMOOTH",
"97 87 OFFCURVE",
"151 -10 OFFCURVE",
"336 -10 CURVE SMOOTH"
);
}
);
width = 765;
}
);
leftKerningGroup = U;
rightKerningGroup = U;
unicode = 0055;
},
{
color = 1;
glyphname = Uhookabove;
layers = (
{
background = {
paths = (
{
closed = 1;
nodes = (
"562 672 LINE",
"673 664 LINE",
"667 671 LINE",
"601 254 LINE SMOOTH",
"577 101 OFFCURVE",
"514 13 OFFCURVE",
"329 13 CURVE SMOOTH",
"160 13 OFFCURVE",
"115 88 OFFCURVE",
"140 245 CURVE SMOOTH",
"207 671 LINE",
"199 663 LINE",
"313 677 LINE",
"316 692 LINE",
"84 687 LINE",
"81 672 LINE",
"192 663 LINE",
"186 671 LINE",
"119 245 LINE SMOOTH",
"93 78 OFFCURVE",
"144 -6 OFFCURVE",
"327 -6 CURVE SMOOTH",
"523 -6 OFFCURVE",
"596 90 OFFCURVE",
"622 254 CURVE SMOOTH",
"688 671 LINE",
"680 663 LINE",
"794 677 LINE",
"797 692 LINE",
"565 687 LINE"
);
},
{
closed = 1;
nodes = (
"456 730 LINE",
"461 761 LINE",
"512 767 OFFCURVE",
"543 792 OFFCURVE",
"548 828 CURVE SMOOTH",
"554 872 OFFCURVE",
"521 890 OFFCURVE",
"478 890 CURVE SMOOTH",
"457 890 OFFCURVE",
"435 886 OFFCURVE",
"413 878 CURVE",
"416 862 LINE",
"437 868 OFFCURVE",
"457 871 OFFCURVE",
"474 871 CURVE SMOOTH",
"507 871 OFFCURVE",
"529 859 OFFCURVE",
"524 827 CURVE SMOOTH",
"519 794 OFFCURVE",
"489 778 OFFCURVE",
"442 776 CURVE",
"435 730 LINE"
);
}
);
};
components = (
{
name = U;
},
{
name = hookabovecomb.case;
transform = "{1, 0, 0, 1, 220, 0}";
}
);
layerId = "075BA79B-D813-4287-A9DD-CCAF2D535ED3";
width = 743;
},
{
background = {
paths = (
{
closed = 1;
nodes = (
"437 605 LINE",
"505 575 LINE",
"497 621 LINE",
"444 285 LINE SMOOTH",
"428 183 OFFCURVE",
"403 140 OFFCURVE",
"327 140 CURVE SMOOTH",
"255 140 OFFCURVE",
"246 180 OFFCURVE",
"260 270 CURVE SMOOTH",
"316 620 LINE",
"291 572 LINE",
"371 610 LINE",
"387 710 LINE",
"77 705 LINE",
"61 605 LINE",
"133 573 LINE",
"121 620 LINE",
"65 270 LINE SMOOTH",
"33 70 OFFCURVE",
"112 -15 OFFCURVE",
"297 -15 CURVE SMOOTH",
"484 -15 OFFCURVE",
"606 73 OFFCURVE",
"639 285 CURVE SMOOTH",
"692 621 LINE",
"664 572 LINE",
"748 610 LINE",
"763 710 LINE",
"453 705 LINE"
);
},
{
closed = 1;
nodes = (
"480 756 LINE",
"486 792 LINE",
"553 806 OFFCURVE",
"586 846 OFFCURVE",
"594 897 CURVE SMOOTH",
"607 977 OFFCURVE",
"548 1012 OFFCURVE",
"469 1012 CURVE SMOOTH",
"432 1012 OFFCURVE",
"391 1004 OFFCURVE",
"350 990 CURVE",
"358 903 LINE",
"380 909 OFFCURVE",
"403 914 OFFCURVE",
"422 914 CURVE SMOOTH",
"445 914 OFFCURVE",
"461 907 OFFCURVE",
"458 887 CURVE SMOOTH",
"454 863 OFFCURVE",
"427 850 OFFCURVE",
"377 847 CURVE",
"363 756 LINE"
);
}
);
};
components = (
{
name = U;
},
{
name = hookabovecomb.case;
transform = "{1, 0, 0, 1, 202, 0}";
}
);
layerId = "927AED37-E9E6-4F96-A08E-421C3785EFC6";
width = 704;
},
{
background = {
components = (
{
name = U;
},
{
name = hookabovecomb;
transform = "{1, 0, 0, 1, 287, 170}";
}
);
};
components = (
{
name = U;
},
{
name = hookabovecomb;
transform = "{1, 0, 0, 1, 287, 170}";
}
);
layerId = "89F00A14-383C-41A8-AF30-A12CE933D7AF";
width = 765;
}
);
leftKerningGroup = U;
rightKerningGroup = U;
unicode = 1EE6;
},
{
color = 1;
glyphname = Uhorn;
layers = (
{
anchors = (
{
name = bottom;
position = "{335, 0}";
},
{
name = top;
position = "{444, 692}";
}
);
background = {
paths = (
{
closed = 1;
nodes = (
"552 672 LINE",
"653 664 LINE",
"647 671 LINE",
"581 255 LINE SMOOTH",
"557 102 OFFCURVE",
"498 13 OFFCURVE",
"328 13 CURVE SMOOTH",
"201 13 OFFCURVE",
"152 63 OFFCURVE",
"152 168 CURVE SMOOTH",
"152 191 OFFCURVE",
"155 216 OFFCURVE",
"159 244 CURVE SMOOTH",
"227 671 LINE",
"219 663 LINE",
"324 677 LINE",
"326 692 LINE",
"113 687 LINE",
"111 672 LINE",
"213 663 LINE",
"207 671 LINE",
"139 246 LINE SMOOTH",
"134 218 OFFCURVE",
"132 192 OFFCURVE",
"132 168 CURVE SMOOTH",
"132 53 OFFCURVE",
"189 -6 OFFCURVE",
"328 -6 CURVE SMOOTH",
"507 -6 OFFCURVE",
"575 89 OFFCURVE",
"601 253 CURVE SMOOTH",
"668 678 LINE",
"660 672 LINE",
"753 665 OFFCURVE",
"790 731 OFFCURVE",
"769 821 CURVE",
"749 816 LINE",
"762 736 OFFCURVE",
"744 692 OFFCURVE",
"668 690 CURVE SMOOTH",
"554 687 LINE"
);
}
);
};
layerId = "075BA79B-D813-4287-A9DD-CCAF2D535ED3";
paths = (
{
closed = 1;
nodes = (
"507 -6 OFFCURVE",
"575 89 OFFCURVE",
"601 253 CURVE SMOOTH",
"668 678 LINE",
"660 672 LINE",
"736 666 OFFCURVE",
"775 709 OFFCURVE",
"775 775 CURVE SMOOTH",
"775 789 OFFCURVE",
"773 805 OFFCURVE",
"769 821 CURVE",
"749 816 LINE",
"752 801 OFFCURVE",
"753 786 OFFCURVE",
"753 775 CURVE SMOOTH",
"753 721 OFFCURVE",
"729 692 OFFCURVE",
"668 690 CURVE SMOOTH",
"554 687 LINE",
"552 672 LINE",
"653 664 LINE",
"647 671 LINE",
"581 255 LINE SMOOTH",
"557 102 OFFCURVE",
"498 13 OFFCURVE",
"329 13 CURVE SMOOTH",
"202 13 OFFCURVE",
"152 63 OFFCURVE",
"152 167 CURVE SMOOTH",
"152 193 OFFCURVE",
"155 216 OFFCURVE",
"159 244 CURVE SMOOTH",
"227 671 LINE",
"219 663 LINE",
"324 677 LINE",
"326 692 LINE",
"113 687 LINE",
"111 672 LINE",
"213 663 LINE",
"207 671 LINE",
"139 246 LINE SMOOTH",
"134 218 OFFCURVE",
"132 191 OFFCURVE",
"132 169 CURVE SMOOTH",
"132 53 OFFCURVE",
"187 -6 OFFCURVE",
"328 -6 CURVE SMOOTH"
);
}
);
width = 741;
},
{
anchors = (
{
name = bottom;
position = "{312, 0}";
},
{
name = top;
position = "{425, 710}";
}
);
background = {
anchors = (
{
name = bottom;
position = "{312, 0}";
},
{
name = top;
position = "{425, 710}";
}
);
paths = (
{
closed = 1;
nodes = (
"793 615 OFFCURVE",
"869 703 OFFCURVE",
"816 868 CURVE",
"680 842 LINE",
"695 769 OFFCURVE",
"695 710 OFFCURVE",
"614 708 CURVE SMOOTH",
"454 705 LINE",
"438 605 LINE",
"512 571 LINE",
"493 600 LINE",
"444 291 LINE SMOOTH",
"428 189 OFFCURVE",
"399 140 OFFCURVE",
"322 140 CURVE SMOOTH",
"273 140 OFFCURVE",
"256 160 OFFCURVE",
"256 205 CURVE SMOOTH",
"256 220 OFFCURVE",
"258 241 OFFCURVE",
"262 264 CURVE SMOOTH",
"315 600 LINE",
"293 572 LINE",
"370 610 LINE",
"386 710 LINE",
"79 705 LINE",
"63 605 LINE",
"134 573 LINE",
"118 600 LINE",
"66 276 LINE SMOOTH",
"62 248 OFFCURVE",
"59 225 OFFCURVE",
"59 198 CURVE SMOOTH",
"59 53 OFFCURVE",
"147 -15 OFFCURVE",
"312 -15 CURVE SMOOTH",
"493 -15 OFFCURVE",
"607 67 OFFCURVE",
"640 279 CURVE SMOOTH",
"694 625 LINE",
"627 605 LINE"
);
}
);
};
layerId = "927AED37-E9E6-4F96-A08E-421C3785EFC6";
paths = (
{
closed = 1;
nodes = (
"493 -15 OFFCURVE",
"607 67 OFFCURVE",
"640 279 CURVE SMOOTH",
"694 625 LINE",
"627 605 LINE",
"758 613 OFFCURVE",
"833 669 OFFCURVE",
"833 773 CURVE SMOOTH",
"833 801 OFFCURVE",
"827 833 OFFCURVE",
"816 868 CURVE",
"680 842 LINE",
"685 820 OFFCURVE",
"688 799 OFFCURVE",
"688 781 CURVE SMOOTH",
"688 739 OFFCURVE",
"671 709 OFFCURVE",
"614 708 CURVE SMOOTH",
"454 705 LINE",
"438 605 LINE",
"512 571 LINE",
"493 600 LINE",
"444 291 LINE SMOOTH",
"428 189 OFFCURVE",
"399 140 OFFCURVE",
"322 140 CURVE SMOOTH",
"273 140 OFFCURVE",
"256 160 OFFCURVE",
"256 205 CURVE SMOOTH",
"256 220 OFFCURVE",
"258 241 OFFCURVE",
"262 264 CURVE SMOOTH",
"315 600 LINE",
"293 572 LINE",
"370 610 LINE",
"386 710 LINE",
"79 705 LINE",
"63 605 LINE",
"134 573 LINE",
"118 600 LINE",
"66 276 LINE SMOOTH",
"62 248 OFFCURVE",
"59 225 OFFCURVE",
"59 198 CURVE SMOOTH",
"59 53 OFFCURVE",
"147 -15 OFFCURVE",
"312 -15 CURVE SMOOTH"
);
}
);
width = 750;
},
{
anchors = (
{
name = _topright;
position = "{813.5, 700}";
},
{
name = bottom;
position = "{341, 0}";
},
{
name = ogonek;
position = "{646, 10}";
},
{
name = top;
position = "{452, 700}";
},
{
name = topright;
position = "{813.5, 700}";
}
);
background = {
paths = (
{
closed = 1;
nodes = (
"542 -10 OFFCURVE",
"624 110 OFFCURVE",
"653 295 CURVE SMOOTH",
"705 620 LINE",
"724 700 LINE",
"523 695 LINE",
"514 640 LINE",
"604 620 LINE",
"550 285 LINE SMOOTH",
"526 135 OFFCURVE",
"475 75 OFFCURVE",
"355 75 CURVE SMOOTH",
"236 75 OFFCURVE",
"202 136 OFFCURVE",
"224 270 CURVE SMOOTH",
"280 620 LINE",
"367 640 LINE",
"377 700 LINE",
"103 695 LINE",
"94 640 LINE",
"179 620 LINE",
"123 270 LINE SMOOTH",
"97 87 OFFCURVE",
"151 -10 OFFCURVE",
"336 -10 CURVE SMOOTH"
);
},
{
closed = 1;
nodes = (
"722 634 OFFCURVE",
"819 673 OFFCURVE",
"843 789 CURVE",
"765 789 LINE",
"749 736 OFFCURVE",
"704 700 OFFCURVE",
"651 700 CURVE",
"638 634 LINE"
);
}
);
};
layerId = "89F00A14-383C-41A8-AF30-A12CE933D7AF";
paths = (
{
closed = 1;
nodes = (
"542 -10 OFFCURVE",
"624 110 OFFCURVE",
"653 295 CURVE SMOOTH",
"705 620 LINE",
"724 700 LINE",
"523 695 LINE",
"514 640 LINE",
"604 620 LINE",
"550 285 LINE SMOOTH",
"526 135 OFFCURVE",
"475 75 OFFCURVE",
"355 75 CURVE SMOOTH",
"236 75 OFFCURVE",
"202 136 OFFCURVE",
"224 270 CURVE SMOOTH",
"280 620 LINE",
"367 640 LINE",
"377 700 LINE",
"103 695 LINE",
"94 640 LINE",
"179 620 LINE",
"123 270 LINE SMOOTH",
"97 87 OFFCURVE",
"151 -10 OFFCURVE",
"336 -10 CURVE SMOOTH"
);
},
{
closed = 1;
nodes = (
"722 634 OFFCURVE",
"819 673 OFFCURVE",
"843 789 CURVE",
"765 789 LINE",
"749 736 OFFCURVE",
"704 700 OFFCURVE",
"651 700 CURVE",
"638 634 LINE"
);
}
);
width = 765;
}
);
leftKerningGroup = U;
leftMetricsKey = U;
rightKerningGroup = U;
unicode = 01AF;
},
{
color = 1;
glyphname = Uogonek;
layers = (
{
background = {
components = (
{
name = U;
},
{
name = ogonekcomb.case.alt;
transform = "{1, 0, 0, 1, 213, 0}";
}
);
};
components = (
{
name = U;
},
{
name = ogonekcomb.case.alt;
transform = "{1, 0, 0, 1, 239, 0}";
}
);
layerId = "075BA79B-D813-4287-A9DD-CCAF2D535ED3";
width = 743;
},
{
background = {
components = (
{
name = U;
},
{
name = ogonekcomb.case.alt;
transform = "{1, 0, 0, 1, 239, 0}";
}
);
};
components = (
{
name = U;
},
{
name = ogonekcomb.case.alt;
transform = "{1, 0, 0, 1, 256, 10}";
}
);
layerId = "927AED37-E9E6-4F96-A08E-421C3785EFC6";
width = 704;
},
{
background = {
paths = (
{
closed = 1;
nodes = (
"357 -220 OFFCURVE",
"399 -200 OFFCURVE",
"399 -200 CURVE",
"397 -153 LINE",
"397 -153 OFFCURVE",
"371 -160 OFFCURVE",
"351 -160 CURVE SMOOTH",
"329 -160 OFFCURVE",
"313 -147 OFFCURVE",
"313 -124 CURVE SMOOTH",
"313 -67 OFFCURVE",
"399 -20 OFFCURVE",
"466 10 CURVE SMOOTH",
"534 40 OFFCURVE",
"622 101 OFFCURVE",
"653 295 CURVE SMOOTH",
"705 620 LINE",
"789 640 LINE",
"799 700 LINE",
"523 695 LINE",
"514 640 LINE",
"604 620 LINE",
"550 285 LINE SMOOTH",
"526 135 OFFCURVE",
"475 75 OFFCURVE",
"355 75 CURVE SMOOTH",
"247 75 OFFCURVE",
"218 127 OFFCURVE",
"218 201 CURVE SMOOTH",
"218 222 OFFCURVE",
"220 246 OFFCURVE",
"224 270 CURVE SMOOTH",
"280 620 LINE",
"367 640 LINE",
"377 700 LINE",
"103 695 LINE",
"94 640 LINE",
"179 620 LINE",
"123 270 LINE SMOOTH",
"119 242 OFFCURVE",
"116 215 OFFCURVE",
"116 190 CURVE SMOOTH",
"116 72.414 OFFCURVE",
"169.622 -9 OFFCURVE",
"334.255 -10 CURVE",
"300.507 -30 OFFCURVE",
"233 -77 OFFCURVE",
"233 -145 CURVE SMOOTH",
"233 -193 OFFCURVE",
"270 -220 OFFCURVE",
"318 -220 CURVE SMOOTH"
);
}
);
};
layerId = "89F00A14-383C-41A8-AF30-A12CE933D7AF";
paths = (
{
closed = 1;
nodes = (
"357 -220 OFFCURVE",
"399 -200 OFFCURVE",
"399 -200 CURVE",
"397 -153 LINE",
"397 -153 OFFCURVE",
"371 -160 OFFCURVE",
"351 -160 CURVE SMOOTH",
"329 -160 OFFCURVE",
"313 -147 OFFCURVE",
"313 -124 CURVE SMOOTH",
"313 -67 OFFCURVE",
"399 -20 OFFCURVE",
"466 10 CURVE SMOOTH",
"534 40 OFFCURVE",
"622 101 OFFCURVE",
"653 295 CURVE SMOOTH",
"705 620 LINE",
"789 640 LINE",
"799 700 LINE",
"523 695 LINE",
"514 640 LINE",
"604 620 LINE",
"550 285 LINE SMOOTH",
"526 135 OFFCURVE",
"475 75 OFFCURVE",
"355 75 CURVE SMOOTH",
"247 75 OFFCURVE",
"218 127 OFFCURVE",
"218 201 CURVE SMOOTH",
"218 222 OFFCURVE",
"220 246 OFFCURVE",
"224 270 CURVE SMOOTH",
"280 620 LINE",
"367 640 LINE",
"377 700 LINE",
"103 695 LINE",
"94 640 LINE",
"179 620 LINE",
"123 270 LINE SMOOTH",
"119 242 OFFCURVE",
"116 215 OFFCURVE",
"116 190 CURVE SMOOTH",
"116 72.414 OFFCURVE",
"169.622 -9 OFFCURVE",
"334.255 -10 CURVE",
"300.507 -30 OFFCURVE",
"233 -77 OFFCURVE",
"233 -145 CURVE SMOOTH",
"233 -193 OFFCURVE",
"270 -220 OFFCURVE",
"318 -220 CURVE SMOOTH"
);
}
);
width = 765;
}
);
leftKerningGroup = U;
leftMetricsKey = U;
rightKerningGroup = U;
rightMetricsKey = U;
unicode = 0172;
},
{
color = 1;
glyphname = V;
layers = (
{
anchors = (
{
name = bottom;
position = "{264, 0}";
},
{
name = top;
position = "{373, 692}";
}
);
background = {
paths = (
{
closed = 1;
nodes = (
"268 -2 LINE",
"600 670 LINE",
"590 663 LINE",
"690 677 LINE",
"693 692 LINE",
"469 687 LINE",
"467 672 LINE",
"583 664 LINE",
"580 670 LINE",
"260 19 LINE",
"264 19 LINE",
"160 670 LINE",
"156 663 LINE",
"276 677 LINE",
"278 692 LINE",
"54 687 LINE",
"51 672 LINE",
"148 663 LINE",
"140 670 LINE",
"249 -2 LINE"
);
}
);
};
layerId = "075BA79B-D813-4287-A9DD-CCAF2D535ED3";
paths = (
{
closed = 1;
nodes = (
"268 -2 LINE",
"600 670 LINE",
"590 663 LINE",
"690 677 LINE",
"693 692 LINE",
"469 687 LINE",
"467 672 LINE",
"583 664 LINE",
"580 670 LINE",
"260 19 LINE",
"264 19 LINE",
"160 670 LINE",
"156 663 LINE",
"276 677 LINE",
"278 692 LINE",
"54 687 LINE",
"51 672 LINE",
"148 663 LINE",
"140 670 LINE",
"249 -2 LINE"
);
}
);
width = 609;
},
{
anchors = (
{
name = bottom;
position = "{297, 0}";
},
{
name = top;
position = "{429, 710}";
}
);
background = {
paths = (
{
closed = 1;
nodes = (
"396 0 LINE",
"701 610 LINE",
"653 576 LINE",
"735 610 LINE",
"751 710 LINE",
"481 705 LINE",
"465 605 LINE",
"533 572 LINE",
"524 611 LINE",
"326 177 LINE",
"349 177 LINE",
"305 624 LINE",
"274 575 LINE",
"361 610 LINE",
"377 710 LINE",
"67 705 LINE",
"52 605 LINE",
"124 571 LINE",
"85 605 LINE",
"187 0 LINE"
);
}
);
};
layerId = "927AED37-E9E6-4F96-A08E-421C3785EFC6";
paths = (
{
closed = 1;
nodes = (
"398 0 LINE",
"701 610 LINE",
"652 576 LINE",
"735 610 LINE",
"751 710 LINE",
"481 705 LINE",
"466 605 LINE",
"532 572 LINE",
"521 611 LINE",
"325 177 LINE",
"347 177 LINE",
"302 624 LINE",
"273 575 LINE",
"362 610 LINE",
"377 710 LINE",
"67 705 LINE",
"52 605 LINE",
"123 571 LINE",
"85 605 LINE",
"188 0 LINE"
);
}
);
width = 679;
},
{
layerId = "89F00A14-383C-41A8-AF30-A12CE933D7AF";
paths = (
{
closed = 1;
nodes = (
"345 0 LINE",
"649 620 LINE",
"731 640 LINE",
"741 700 LINE",
"473 695 LINE",
"463 640 LINE",
"543 620 LINE",
"326 145 LINE",
"230 700 LINE",
"53 695 LINE",
"44 640 LINE",
"129 620 LINE",
"250 0 LINE"
);
}
);
width = 672;
}
);
leftKerningGroup = V;
rightKerningGroup = V;
unicode = 0056;
},
{
color = 1;
glyphname = W;
layers = (
{
anchors = (
{
name = bottom;
position = "{436, 0}";
},
{
name = top;
position = "{553, 691}";
}
);
background = {
anchors = (
{
name = bottom;
position = "{436, 0}";
},
{
name = top;
position = "{553, 691}";
}
);
paths = (
{
closed = 1;
nodes = (
"810 672 LINE",
"926 664 LINE",
"922 670 LINE",
"643 24 LINE",
"647 24 LINE",
"558 692 LINE",
"539 689 LINE",
"228 22 LINE",
"231 21 LINE",
"168 671 LINE",
"162 663 LINE",
"283 677 LINE",
"285 692 LINE",
"60 687 LINE",
"57 672 LINE",
"156 663 LINE",
"148 671 LINE",
"213 -2 LINE",
"236 -2 LINE",
"545 662 LINE",
"541 662 LINE",
"630 -2 LINE",
"650 -2 LINE",
"941 670 LINE",
"931 663 LINE",
"1030 677 LINE",
"1033 692 LINE",
"812 687 LINE"
);
}
);
};
layerId = "075BA79B-D813-4287-A9DD-CCAF2D535ED3";
paths = (
{
closed = 1;
nodes = (
"810 672 LINE",
"925 664 LINE",
"921 670 LINE",
"643 24 LINE",
"647 24 LINE",
"557 692 LINE",
"539 689 LINE",
"228 22 LINE",
"231 21 LINE",
"168 671 LINE",
"162 663 LINE",
"283 677 LINE",
"285 692 LINE",
"60 687 LINE",
"57 672 LINE",
"155 663 LINE",
"148 671 LINE",
"214 -2 LINE",
"236 -2 LINE",
"545 662 LINE",
"541 662 LINE",
"630 -2 LINE",
"650 -2 LINE",
"941 670 LINE",
"931 663 LINE",
"1030 677 LINE",
"1033 692 LINE",
"812 687 LINE"
);
}
);
width = 955;
},
{
anchors = (
{
name = bottom;
position = "{431, 0}";
},
{
name = top;
position = "{564, 710}";
}
);
background = {
anchors = (
{
name = bottom;
position = "{431, 0}";
},
{
name = top;
position = "{564, 710}";
}
);
paths = (
{
closed = 1;
nodes = (
"753 605 LINE",
"821 575 LINE",
"806 611 LINE",
"646 183 LINE",
"687 184 LINE",
"649 710 LINE",
"468 705 LINE",
"270 182 LINE",
"310 182 LINE",
"287 611 LINE",
"261 575 LINE",
"338 610 LINE",
"353 710 LINE",
"68 705 LINE",
"52 605 LINE",
"104 580 LINE",
"86 611 LINE",
"154 0 LINE",
"336 0 LINE",
"524 465 LINE",
"503 466 LINE",
"532 0 LINE",
"717 0 LINE",
"986 629 LINE",
"934 577 LINE",
"1017 610 LINE",
"1033 710 LINE",
"768 705 LINE"
);
}
);
};
layerId = "927AED37-E9E6-4F96-A08E-421C3785EFC6";
paths = (
{
closed = 1;
nodes = (
"753 605 LINE",
"820 575 LINE",
"804 611 LINE",
"645 183 LINE",
"683 184 LINE",
"643 710 LINE",
"467 705 LINE",
"269 182 LINE",
"309 182 LINE",
"284 611 LINE",
"260 575 LINE",
"338 610 LINE",
"353 710 LINE",
"68 705 LINE",
"52 605 LINE",
"103 580 LINE",
"86 611 LINE",
"155 0 LINE",
"337 0 LINE",
"525 465 LINE",
"504 466 LINE",
"533 0 LINE",
"718 0 LINE",
"985 629 LINE",
"933 577 LINE",
"1018 610 LINE",
"1033 710 LINE",
"768 705 LINE"
);
}
);
width = 962;
},
{
layerId = "89F00A14-383C-41A8-AF30-A12CE933D7AF";
paths = (
{
closed = 1;
nodes = (
"303 0 LINE",
"527 485 LINE",
"614 0 LINE",
"677 0 LINE",
"964 621 LINE",
"1041 640 LINE",
"1051 700 LINE",
"783 695 LINE",
"773 640 LINE",
"859 620 LINE",
"671 178 LINE",
"591 700 LINE",
"528 695 LINE",
"306 185 LINE",
"230 699 LINE",
"53 695 LINE",
"44 640 LINE",
"128 620 LINE",
"238 0 LINE"
);
}
);
width = 967;
}
);
leftKerningGroup = W;
rightKerningGroup = W;
unicode = 0057;
},
